<?xml version="1.0" encoding="iso-8859-1"?>
<!-- Generator: Adobe Illustrator 19.0.0, SVG Export Plug-In . SVG Version: 6.00 Build 0)  -->
<svg version="1.1" id="Capa_1" xmlns="http://www.w3.org/2000/svg" xmlns:xlink="http://www.w3.org/1999/xlink" x="0px" y="0px"
	 viewBox="0 0 433.902 433.902" style="enable-background:new 0 0 433.902 433.902;" xml:space="preserve">
<g>
	<g>
		<path d="M414.001,305.071v-32.7c-0.5-86.4-57.2-162.4-140-187.3c6.8-33.6-15-66.4-48.6-73.1c-33.6-6.8-66.4,15-73.1,48.6
			c-2,10-1.5,20.3,1.4,30.1c-37.6,11.4-69.5,33-93,62.9c-26,33.2-39.7,74.4-39.7,119.3v31.9c-13,7.2-21.1,20.9-21,35.8v41.7
			c0.1,22.6,18.5,40.9,41.1,40.9h0.1h351.4c22.6,0.2,41.1-18.1,41.3-40.7v-0.1v-41.7
			C434.001,326.071,426.401,312.571,414.001,305.071z M174.101,57.271c6.3-16.1,21.8-26.6,39-26.6c23.2,0,42,18.8,42.1,42.1
			c0,5.3-1,10.6-3,15.6c-8.6,21.6-33.1,32.1-54.6,23.5C176.001,103.271,165.501,78.771,174.101,57.271z M41.001,272.871
			c0-79.3,47.5-142.9,121.7-164c19.9,27.9,58.7,34.3,86.5,14.4c7.2-5.1,13.2-11.8,17.6-19.4c34.9,10.3,65.8,31,88.5,59.3
			c24.8,31,38.4,69.5,38.6,109.2v27c-1,0-1-0.3-1.3-0.3h-351.3c-0.1,0-0.3,0.3-0.3,0.3V272.871z M414.001,382.171L414.001,382.171
			c-0.1,11.6-9.5,20.9-21.1,20.9c-0.1,0-0.1,0-0.2,0h-351.4c-11.6,0.2-21.1-9.1-21.3-20.7c0-0.1,0-0.1,0-0.2v-41.7
			c0-9.2,5.9-17.3,14.6-20.1c0,0,0.1-0.1,0.1-0.2c2.1-0.8,4.4-1.2,6.6-1.2h351.4c2.3,0,4.6,0.4,6.7,1.3c0.1,0,0.1,0.1,0.2,0.1
			c8.6,2.9,14.4,11,14.4,20.1V382.171z"/>
	</g>
</g>
<g>
</g>
<g>
</g>
<g>
</g>
<g>
</g>
<g>
</g>
<g>
</g>
<g>
</g>
<g>
</g>
<g>
</g>
<g>
</g>
<g>
</g>
<g>
</g>
<g>
</g>
<g>
</g>
<g>
</g>
</svg>
