<?xml version="1.0" encoding="iso-8859-1"?>
<!-- Generator: Adobe Illustrator 17.1.0, SVG Export Plug-In . SVG Version: 6.00 Build 0)  -->
<!DOCTYPE svg PUBLIC "-//W3C//DTD SVG 1.1//EN" "http://www.w3.org/Graphics/SVG/1.1/DTD/svg11.dtd">
<svg version="1.1" id="Capa_1" xmlns="http://www.w3.org/2000/svg" xmlns:xlink="http://www.w3.org/1999/xlink" x="0px" y="0px"
	 viewBox="0 0 212.314 212.314" style="enable-background:new 0 0 212.314 212.314;" xml:space="preserve">
<path d="M168.067,212.314h-55.475c-1.657,0-3-1.343-3-3V79.929l-7.87-0.021v129.406c0,1.657-1.343,3-3,3H44.248
	c-1.657,0-3-1.343-3-3V23.089c0-4.119,2.104-7.757,5.292-9.895V3c0-1.657,1.343-3,3-3h114.495c1.657,0,3,1.343,3,3v11.166
	c2.471,2.183,4.032,5.375,4.032,8.923v186.225C171.067,210.971,169.724,212.314,168.067,212.314z M115.592,206.314h49.475V49.476
	h-1.653c-13.993,0-25.377-11.384-25.377-25.377v-6.915h-16.729v35.048c0,4.586-2.548,8.71-6.65,10.762l-5.499,2.75v8.185
	l3.442,0.009c1.653,0.004,2.992,1.346,2.992,3V206.314z M47.248,206.314h48.475V76.9c0-0.797,0.317-1.561,0.882-2.124
	c0.563-0.561,1.324-0.876,2.118-0.876c0.003,0,0.005,0,0.008,0l4.428,0.012V17.184h-28.88v6.915
	c0,13.993-11.384,25.377-25.377,25.377h-1.653V206.314z M109.158,17.184v41.851l2.815-1.408c2.057-1.029,3.334-3.096,3.334-5.396
	V17.184H109.158z M144.037,17.184v6.915c0,10.685,8.692,19.377,19.377,19.377h1.653V23.089c0-3.256-2.649-5.905-5.905-5.905H144.037
	z M47.248,43.476h1.653c10.685,0,19.377-8.692,19.377-19.377v-6.915H53.153c-3.256,0-5.905,2.649-5.905,5.905V43.476z
	 M141.037,11.184h19.998V6H52.54v5.184H141.037z"/>
<g>
</g>
<g>
</g>
<g>
</g>
<g>
</g>
<g>
</g>
<g>
</g>
<g>
</g>
<g>
</g>
<g>
</g>
<g>
</g>
<g>
</g>
<g>
</g>
<g>
</g>
<g>
</g>
<g>
</g>
</svg>
