<svg id="Capa_1" enable-background="new 0 0 512.369 512.369" height="512" viewBox="0 0 512.369 512.369" width="512" xmlns="http://www.w3.org/2000/svg"><g><path d="m477.529 135.855c-6.234 0-12.087 1.654-17.155 4.535v-32.762c0-4.142-3.358-7.5-7.5-7.5s-7.5 3.358-7.5 7.5c0 0 .013 49.491.019 49.617-1.74 4.141-2.704 8.685-2.704 13.451v48.056l-2.056 1.23c-25.494 15.264-44.061 39.396-52.281 67.95-1.146 3.98 1.152 8.136 5.133 9.282s8.136-1.152 9.282-5.132c7.166-24.89 23.35-45.925 45.572-59.229l5.703-3.415c2.263-1.355 3.647-3.798 3.647-6.435v-52.307c0-10.94 8.9-19.84 19.839-19.84 10.94 0 19.84 8.9 19.84 19.84v128.184c0 9.699-4.057 19.068-11.132 25.704l-20.447 19.18c-1.56 1.463-2.42 3.521-2.367 5.658l2.371 94.578c.005.201-.063.375-.204.519-.14.144-.313.216-.513.216h-165.505c-.202 0-.376-.074-.516-.219-.141-.146-.208-.322-.201-.524l1.013-27.305c.154-4.14-3.077-7.62-7.216-7.773-4.156-.177-7.62 3.077-7.773 7.216l-1.014 27.306c-.159 4.306 1.399 8.385 4.389 11.488s7.009 4.811 11.317 4.811h4.697v45c0 4.142 3.358 7.5 7.5 7.5s7.5-3.358 7.5-7.5v-45h126.675v45c0 4.142 3.358 7.5 7.5 7.5s7.5-3.358 7.5-7.5v-45h4.134c4.272 0 8.269-1.685 11.251-4.743 2.983-3.059 4.567-7.096 4.46-11.368l-2.286-91.218 17.997-16.881c10.085-9.46 15.869-22.817 15.869-36.644v-128.186c.002-19.211-15.627-34.84-34.838-34.84z"/><path d="m286.878 362.22-.814 21.946c-.154 4.139 3.077 7.619 7.217 7.772.095.004.189.005.283.005 4.014 0 7.34-3.177 7.49-7.222l.928-25.009c.073-1.963-.627-3.876-1.95-5.329l-18.659-20.482c-11.406-12.521-17.688-28.745-17.688-45.683v-195.944c0-9.421 7.665-17.086 17.086-17.086s17.086 7.665 17.086 17.086v89.483c0 4.142 3.358 7.5 7.5 7.5s7.5-3.358 7.5-7.5v-116.411c0-9.421 7.665-17.086 17.086-17.086s17.086 7.665 17.086 17.086v116.411c0 4.142 3.358 7.5 7.5 7.5s7.5-3.358 7.5-7.5v-149.536c0-9.421 7.665-17.086 17.086-17.086s17.086 7.665 17.086 17.086v149.536c0 4.142 3.358 7.5 7.5 7.5s7.5-3.358 7.5-7.5v-121.932c0-9.421 7.665-17.086 17.086-17.086s17.086 7.665 17.086 17.086v15.84c0 4.142 3.358 7.5 7.5 7.5s7.5-3.358 7.5-7.5v-15.84c0-17.692-14.394-32.086-32.086-32.086-6.278 0-12.135 1.819-17.086 4.948v-.465c0-17.692-14.394-32.086-32.086-32.086s-32.086 14.394-32.086 32.086v5.986c-4.951-3.128-10.809-4.947-17.086-4.947-17.623 0-31.969 14.282-32.081 31.878-4.952-3.13-10.812-4.951-17.091-4.951-9.862 0-18.696 4.476-24.586 11.499-5.89-7.023-14.724-11.499-24.586-11.499-6.28 0-12.139 1.82-17.092 4.951-.112-17.597-14.458-31.879-32.081-31.879-6.278 0-12.135 1.819-17.086 4.948v-5.987c0-17.692-14.394-32.086-32.086-32.086s-32.086 14.394-32.086 32.086v.465c-4.951-3.128-10.809-4.948-17.086-4.948-17.692 0-32.086 14.394-32.086 32.086v80.565c-5.068-2.88-10.921-4.535-17.155-4.535-19.212.001-34.841 15.63-34.841 34.841v19.716c0 4.142 3.358 7.5 7.5 7.5s7.5-3.358 7.5-7.5v-19.716c0-10.94 8.9-19.84 19.839-19.84 10.94 0 19.84 8.9 19.84 19.84v52.307c0 2.637 1.385 5.08 3.647 6.435l5.703 3.415c22.222 13.305 38.406 34.34 45.572 59.23.946 3.288 3.945 5.427 7.204 5.427.687 0 1.385-.095 2.078-.294 3.98-1.146 6.278-5.302 5.133-9.282-8.221-28.555-26.788-52.686-52.281-67.95l-2.056-1.231v-48.056c0-4.747-.958-9.274-2.685-13.402v-97.469c0-9.421 7.665-17.086 17.086-17.086s17.086 7.665 17.086 17.086v121.932c0 4.142 3.358 7.5 7.5 7.5s7.5-3.358 7.5-7.5v-149.536c0-9.421 7.665-17.086 17.086-17.086s17.086 7.665 17.086 17.086v149.536c0 4.142 3.358 7.5 7.5 7.5s7.5-3.358 7.5-7.5v-116.411c0-9.421 7.665-17.086 17.086-17.086s17.086 7.665 17.086 17.086v116.411c0 4.142 3.358 7.5 7.5 7.5s7.5-3.358 7.5-7.5v-89.483c0-9.421 7.665-17.086 17.086-17.086s17.086 7.665 17.086 17.086v195.945c0 16.938-6.282 33.162-17.688 45.683l-18.659 20.482c-1.323 1.452-2.023 3.366-1.95 5.329l3.126 84.277c.007.202-.06.378-.2.524-.141.146-.314.219-.516.219h-165.504c-.201 0-.373-.073-.513-.216-.14-.144-.208-.317-.203-.519l2.371-94.578c.054-2.137-.807-4.196-2.367-5.658l-20.447-19.18c-7.075-6.635-11.132-16.004-11.132-25.703v-76.505c0-4.142-3.358-7.5-7.5-7.5s-7.5 3.358-7.5 7.5v76.505c0 13.827 5.784 27.183 15.869 36.644l17.997 16.881-2.286 91.218c-.107 4.271 1.476 8.308 4.459 11.367 2.983 3.06 6.979 4.744 11.252 4.744h4.134v45c0 4.142 3.358 7.5 7.5 7.5s7.5-3.358 7.5-7.5v-45h126.675v45c0 4.142 3.358 7.5 7.5 7.5s7.5-3.358 7.5-7.5v-45h4.697c4.309 0 8.328-1.709 11.318-4.812 2.989-3.103 4.548-7.183 4.388-11.488l-3.013-81.214 16.595-18.216c5.84-6.411 10.564-13.624 14.099-21.356 3.536 7.732 8.259 14.945 14.099 21.356z"/></g></svg>