<svg id="Layer_1" enable-background="new 0 0 511.988 511.988" height="512" viewBox="0 0 511.988 511.988" width="512" xmlns="http://www.w3.org/2000/svg"><g><g><path d="m493.429 265.942c-15.783-23.234-40.072-43.828-68.395-57.988-41.021-20.51-83.328-37.402-124.547-49.936 2.692-3.48 4.555-7.561 5.436-12.181 3.326-17.441-8.824-39.214-43.359-45.801-33.885-6.457-52.955 9.649-56.331 27.353-.62 3.253-.706 6.419-.308 9.467-1.589-.215-3.179-.431-4.758-.629-69.423-8.694-123.783.078-153.066 24.712-21.479 18.067-37.159 46.14-44.15 79.044-6.352 29.896-4.996 60.926 3.721 85.134 8.475 23.536 23.451 38.588 41.926 42.643v24.543c0 11.637 9.467 21.104 21.104 21.104h370.502c11.637 0 21.104-9.467 21.104-21.104v-23.936c25.875-2.654 43.251-15.851 48.274-37.133 4.457-18.885-1.795-42.683-17.153-65.292zm-267.549-134.807c1.624-8.517 12.438-15.362 32.938-11.452 21.037 4.012 28.981 14.428 27.459 22.408-.863 4.526-4.791 7.41-11.682 8.587-15.183-3.981-30.141-7.324-44.756-10.001-4.365-3.669-4.445-6.993-3.959-9.542zm216.427 261.168c0 .588-.516 1.104-1.104 1.104h-370.502c-.588 0-1.104-.516-1.104-1.104v-23.431h372.71zm48.809-65.664c-4.338 18.376-23.499 22.233-38.81 22.233h-42.754c4.807-4.697 9.011-10.054 12.905-16.318 2.916-4.69 1.478-10.856-3.213-13.772-4.69-2.914-10.856-1.477-13.772 3.214-7.947 12.782-16.911 20.195-32.619 26.877h-82.337c7.485-6.461 13.768-14.001 19.475-23.182 2.916-4.69 1.477-10.856-3.213-13.772-4.69-2.914-10.856-1.477-13.772 3.214-10.006 16.096-21.276 25.37-41.105 33.74h-109.094c-12.148-4.747-44.418-20.516-48.62-55.054-.667-5.482-5.657-9.385-11.134-8.719-5.482.667-9.386 5.652-8.719 11.135 2.08 17.095 9.923 33.075 22.681 46.215 2.169 2.234 4.473 4.374 6.889 6.423h-44.226c-19.369-.156-29.108-19.196-33.189-30.532-14.783-41.054-4.255-109.508 34.486-142.097 24.608-20.7 74.799-28.053 137.706-20.171 66.998 8.393 144.208 33.171 217.409 69.771 25.313 12.655 46.903 30.888 60.795 51.338 12.218 17.984 17.405 36.011 14.231 49.457z"/><ellipse cx="322.014" cy="282.554" rx="10" ry="9.565"/></g></g></svg>