<?xml version="1.0" encoding="iso-8859-1"?>
<!-- Generator: Adobe Illustrator 19.0.0, SVG Export Plug-In . SVG Version: 6.00 Build 0)  -->
<svg version="1.1" id="Capa_1" xmlns="http://www.w3.org/2000/svg" xmlns:xlink="http://www.w3.org/1999/xlink" x="0px" y="0px"
	 viewBox="0 0 512 512" style="enable-background:new 0 0 512 512;" xml:space="preserve">
<g>
	<g>
		<path d="M406.113,74.752h-42.809V29.17c0-16.084-13.085-29.17-29.17-29.17H223.573c-16.085,0-29.171,13.086-29.171,29.17v198.824
			l-84.611,62.885c-0.01,0.007-0.02,0.015-0.03,0.021l-0.087,0.066c-0.031,0.023-0.058,0.052-0.088,0.075
			c-0.286,0.219-0.559,0.453-0.82,0.701c-0.037,0.034-0.08,0.063-0.116,0.099c-29.207,28.551-38.985,62.704-26.825,93.703
			c10.516,26.807,35.453,45.549,65.102,49.723c0.125,9.307,1.951,18.516,5.561,27.373c12.221,29.985,42.137,49.36,76.214,49.36
			c15.827,0,31.659-4.063,47.097-12.06c0.163-0.081,0.324-0.164,0.482-0.254c0.571-0.299,1.143-0.591,1.712-0.9
			c0.488-0.266,0.953-0.57,1.39-0.913l152.068-119.092c2.42-1.896,3.834-4.799,3.834-7.873V103.922
			C435.283,87.838,422.197,74.752,406.113,74.752z M214.402,29.17c0-5.057,4.114-9.17,9.171-9.17h110.561
			c5.056,0,9.17,4.113,9.17,9.17v45.582H214.402V29.17z M210.367,241.048c2.539-1.887,4.035-4.863,4.035-8.026V94.752h53.464
			c-0.958,2.886-1.485,5.967-1.485,9.17v198.715l-69.651,49.914c-4.852-11.906-12.117-23.237-21.183-32.826
			c-10.532-11.137-23.229-19.586-37.398-25.003L210.367,241.048z M149.224,415.366c-22.099-3.387-41.115-17.581-48.782-37.126
			c-8.596-21.913-1.804-46.618,18.592-68.412c35.793,7.867,54.175,35.534,60.856,54.869c-0.175,0.148-0.363,0.281-0.528,0.442
			c-1.038,1.015-2.046,2.04-3.036,3.071c-0.087,0.093-0.177,0.182-0.26,0.277C162.272,382.948,153.199,399.028,149.224,415.366z
			 M262.586,484.154c-11.263,5.208-22.635,7.847-33.886,7.847c-25.909-0.001-48.555-14.488-57.693-36.91
			c-3.544-8.696-4.787-17.787-3.846-26.954c0.116-0.566,0.192-1.148,0.208-1.746c0.001-0.014-0.001-0.027-0.001-0.041
			c1.859-13.909,8.752-27.942,20.348-40.999c23.432,2.115,44.817,13.95,59.206,32.931
			C261.269,437.208,266.869,460.981,262.586,484.154z M283.986,468.863c0.004-22.407-7.255-44.366-21.126-62.664
			c-13.889-18.321-33.056-31.257-54.59-37.313l73.937-52.985c2.621-1.878,4.175-4.904,4.175-8.128v-138.27h128.901v115.61
			c-33.317,3.696-62.268,24.248-75.404,54.305c-11.623,26.597-8.338,55.436,8.517,79.003L283.986,468.863z M415.283,366.038
			l-51.139,40.05c-12.429-17.77-14.657-38.71-5.939-58.659c9.969-22.812,31.748-38.614,57.078-42.159V366.038z M415.283,149.504
			H286.382v-45.582c0-5.057,4.113-9.17,9.169-9.17h110.563c5.055,0,9.169,4.113,9.169,9.17V149.504z"/>
	</g>
</g>
<g>
	<g>
		<path d="M388.158,216.975c-5.523,0-10,4.477-10,10v34.164c0,5.522,4.477,10,10,10s10-4.478,10-10v-34.164
			C398.158,221.452,393.681,216.975,388.158,216.975z"/>
	</g>
</g>
<g>
	<g>
		<path d="M388.158,185.715c-5.523,0-10,4.477-10,10v0.277c0,5.523,4.477,10,10,10s10-4.478,10-10v-0.277
			C398.158,190.192,393.681,185.715,388.158,185.715z"/>
	</g>
</g>
<g>
</g>
<g>
</g>
<g>
</g>
<g>
</g>
<g>
</g>
<g>
</g>
<g>
</g>
<g>
</g>
<g>
</g>
<g>
</g>
<g>
</g>
<g>
</g>
<g>
</g>
<g>
</g>
<g>
</g>
</svg>
