<svg height="512" viewBox="0 0 60 47" width="512" xmlns="http://www.w3.org/2000/svg"><g id="Page-1" fill="none" fill-rule="evenodd"><g id="008---Boxer-Briefs" fill="rgb(0,0,0)" fill-rule="nonzero"><path id="Shape" d="m58 6c0-4.746-18.315-6-28-6s-28 1.254-28 6v5.861c-.287 1.03-2 7.382-2 12.139v19c-.00207881.3808256.21233064.7297741.553.9 4.21661673 1.9611911 8.79734704 3.0172083 13.447 3.1 3.7740302.0773083 7.5448516-.268177 11.242-1.03.347866-.0874932.6222241-.3546013.719-.7l1.309-4.57c1.7986029.394678 3.6613971.394678 5.46 0l1.309 4.571c.0967759.3453987.371134.6125068.719.7 3.6971862.7614873 7.4680072 1.1066372 11.242 1.029 4.649653-.0827917 9.2303833-1.1388089 13.447-3.1.3406694-.1702259.5550788-.5191744.553-.9v-19c0-4.757-1.713-11.109-2-12.139zm-2 5.992c-.223 1.049-5.447 2.779-15.009 3.578-3.191.267-6.863.43-10.991.43-16.514 0-25.7-2.609-26-4v-3.551c1.28696426.65283261 2.64865919 1.14646801 4.055 1.47.0815918.03352786.16738754.05573381.255.066 6.217 1.525 15.638 2.015 21.69 2.015s15.475-.49 21.692-2.016c.1066217-.01068711.2107155-.03907633.308-.084 1.3871515-.32184581 2.7302509-.81039822 4-1.455zm-42.1-2.992c5.3384169-.69141598 10.7170546-1.02549286 16.1-1 5.3829345-.02511506 10.7615471.30896026 16.1 1-5.3372947.70307405-10.7167255 1.0372002-16.1 1-5.3832539.0364554-10.7626335-.29766755-16.1-1zm16.1-7c16.483 0 25.671 2.6 26 4-.129.55-1.641 1.283-4.405 1.972-5.254-1.254-13.095-1.972-21.595-1.972s-16.348.719-21.6 1.974c-2.77-.689-4.281-1.421-4.4-1.965.3-1.402 9.493-4.009 26-4.009zm28 40.36c-3.7894461 1.6544957-7.8660673 2.5513524-12 2.64-3.419268.0385088-6.8345036-.2467638-10.2-.852l-1.168-4.075c2.78082-1.3346444 4.7681625-3.9039917 5.361-6.931.0689754-.5411827-.3085417-1.037778-.8484541-1.1160776-.5399125-.0782996-1.0429454.290596-1.1305459.8290776-.041.245-1.014 6.145-8.014 6.145s-7.973-5.9-8.01-6.142c-.0784244-.5467619-.5852381-.9264244-1.132-.848s-.9264244.5852381-.848 1.132c.5928375 3.0270083 2.58018 5.5963556 5.361 6.931l-1.171 4.075c-3.3654964.6052362-6.780732.8905088-10.2.852-4.13374148-.0911187-8.20995307-.9882249-12-2.641v-18.359c.14189839-3.3312036.63802732-6.6378359 1.48-9.864 2.655 1.756 8.531 2.782 14.566 3.328.1007097 3.5832749.4239994 7.1568285.968 10.7.0801661.4821996.497182.835775.986.836.0553075.0002649.1105278-.0044204.165-.014.2616511-.043598.4952601-.1893666.6494208-.405229.1541606-.2158624.2162407-.4841305.1725792-.745771-.5187248-3.3801396-.830306-6.7888319-.933-10.207 3.6.265 7.138.372 9.947.372s6.339-.107 9.94-.372c-.0967134 3.4182434-.4059773 6.8271601-.926 10.207-.0436615.2616405.0184186.5299086.1725792.745771.1541607.2158624.3877697.361631.6494208.405229.0538146.0094614.1083602.0141463.163.014.4881196-.0006315.9044606-.3535703.985-.835.5448393-3.5429316.8658091-7.1166841.961-10.7 6.037-.547 11.917-1.573 14.574-3.329.8422479 3.2261077 1.3383813 6.5327695 1.48 9.864z"/></g></g></svg>