<?xml version="1.0" encoding="iso-8859-1"?>
<!-- Generator: Adobe Illustrator 19.0.0, SVG Export Plug-In . SVG Version: 6.00 Build 0)  -->
<svg version="1.1" id="Capa_1" xmlns="http://www.w3.org/2000/svg" xmlns:xlink="http://www.w3.org/1999/xlink" x="0px" y="0px"
	 viewBox="0 0 512 512" style="enable-background:new 0 0 512 512;" xml:space="preserve">
<g>
	<g>
		<path d="M497.231,73.846H14.769C6.613,73.846,0,80.459,0,88.615v59.077v118.154c0,8.157,6.613,14.769,14.769,14.769
			c78.723,0,142.769,64.046,142.769,142.769c0,8.156,6.613,14.769,14.769,14.769h167.385c8.157,0,14.769-6.613,14.769-14.769
			c0-78.723,64.046-142.769,142.769-142.769c8.157,0,14.769-6.613,14.769-14.769V147.692V88.615
			C512,80.459,505.387,73.846,497.231,73.846z M29.538,251.704v-89.243h132.923v77.634l-44.658,45.274
			C92.751,266.618,62.452,254.511,29.538,251.704z M325.55,408.615H186.45c-3.408-39.943-20.507-76.037-46.562-103.571
			l47.858-48.519c2.726-2.764,4.255-6.491,4.255-10.372v-83.692h128v83.692c0,3.881,1.528,7.608,4.255,10.372l47.858,48.519
			C346.056,332.578,328.957,368.672,325.55,408.615z M482.462,251.704c-32.914,2.807-63.212,14.914-88.265,33.665l-44.658-45.274
			v-77.634h132.923V251.704z M482.462,132.923H29.538v-29.538h452.923V132.923z"/>
	</g>
</g>
<g>
</g>
<g>
</g>
<g>
</g>
<g>
</g>
<g>
</g>
<g>
</g>
<g>
</g>
<g>
</g>
<g>
</g>
<g>
</g>
<g>
</g>
<g>
</g>
<g>
</g>
<g>
</g>
<g>
</g>
</svg>
