<?xml version="1.0"?>
<svg xmlns="http://www.w3.org/2000/svg" id="OutLine" viewBox="0 0 512 512" width="512" height="512"><path d="M495.938,247.008l-16-128a8.005,8.005,0,0,0-8.745-6.967C469.619,112.2,313.073,128,256,128S42.381,112.2,40.807,112.041a8,8,0,0,0-8.745,6.967l-16,128a7.955,7.955,0,0,0,4.365,8.138l0,.009c73.431,36.716,137.241,84.568,189.659,142.226.038.043.081.079.12.12q.162.169.333.33c.083.078.167.155.253.23.12.1.245.2.371.3.085.065.17.131.258.193.141.1.287.189.434.279.079.048.157.1.237.144.169.1.344.18.52.263.065.031.128.065.194.094.2.087.408.164.617.235.046.016.091.036.137.05.229.074.463.134.7.187.031.007.06.017.091.024.242.051.49.089.74.117.026,0,.052.009.079.012A7.952,7.952,0,0,0,216,400h80a7.952,7.952,0,0,0,.835-.044c.027,0,.053-.009.079-.012.25-.028.5-.066.74-.117.031-.007.06-.017.091-.024.237-.053.471-.113.7-.187.046-.014.091-.034.137-.05.209-.071.416-.148.617-.235.066-.029.129-.063.194-.094.176-.083.351-.168.52-.263.08-.045.158-.1.237-.144.147-.09.293-.181.434-.279.088-.062.173-.128.258-.193.126-.1.251-.194.371-.3.086-.075.17-.152.253-.23q.171-.161.333-.33c.039-.041.082-.077.12-.12,52.418-57.658,116.228-105.51,189.659-142.226l0-.009a7.955,7.955,0,0,0,4.365-8.138ZM56.237,256H64c71.414,0,130.842,49.355,142.079,113.843C162.724,325.557,112.5,287.4,56.237,256ZM223.781,384C219.384,303.894,149.4,240,64,240H33.062L46.97,128.736C79.78,131.979,204.842,144,256,144s176.22-12.021,209.03-15.264L478.938,240H448c-85.4,0-155.384,63.894-159.781,144Zm82.14-14.157C317.158,305.355,376.586,256,448,256h7.763C399.5,287.4,349.276,325.557,305.921,369.843Z"/></svg>
