<?xml version="1.0" encoding="iso-8859-1"?>
<!-- Generator: Adobe Illustrator 19.0.0, SVG Export Plug-In . SVG Version: 6.00 Build 0)  -->
<svg version="1.1" id="Layer_1" xmlns="http://www.w3.org/2000/svg" xmlns:xlink="http://www.w3.org/1999/xlink" x="0px" y="0px"
	 viewBox="0 0 512.329 512.329" style="enable-background:new 0 0 512.329 512.329;" xml:space="preserve">
<g>
	<g>
		<g>
			<path d="M166.927,256h67.904c11.782,0,21.333-9.551,21.333-21.333v-67.904C256.165,74.661,181.504,0,89.402,0H21.498
				C9.716,0,0.165,9.551,0.165,21.333v67.904C0.165,181.339,74.825,256,166.927,256z M213.498,166.763v16.401L73.001,42.667h16.401
				C157.94,42.667,213.498,98.225,213.498,166.763z M42.831,72.837l140.497,140.497h-16.401
				c-68.538,0-124.096-55.558-124.096-124.096V72.837z"/>
			<path d="M490.831,106.667h-25.237c-92.102,0-166.763,74.661-166.763,166.763v25.237c0,11.782,9.551,21.333,21.333,21.333h25.237
				c92.102,0,166.763-74.661,166.763-166.763V128C512.165,116.218,502.613,106.667,490.831,106.667z M469.498,153.237
				c0,68.538-55.558,124.096-124.096,124.096h-3.904v-3.904c0-68.538,55.558-124.096,124.096-124.096h3.904V153.237z"/>
			<path d="M298.723,350.69c-69.792-69.792-182.946-69.792-252.759-0.003l-31.107,31.107c-12.97,13.03-12.97,34.057-0.034,47.053
				l31.138,31.139c69.816,69.792,182.97,69.792,252.762,0l31.104-31.104c13.003-13.003,13.003-34.084,0-47.087L298.723,350.69z
				 M268.553,380.86l3.14,3.14H72.99l3.14-3.14C129.28,327.729,215.422,327.729,268.553,380.86z M76.128,429.813l-3.146-3.146
				h198.719l-3.149,3.149C215.422,482.946,129.28,482.946,76.128,429.813z"/>
		</g>
	</g>
</g>
<g>
</g>
<g>
</g>
<g>
</g>
<g>
</g>
<g>
</g>
<g>
</g>
<g>
</g>
<g>
</g>
<g>
</g>
<g>
</g>
<g>
</g>
<g>
</g>
<g>
</g>
<g>
</g>
<g>
</g>
</svg>
