<?xml version="1.0" encoding="iso-8859-1"?>
<!-- Generator: Adobe Illustrator 19.0.0, SVG Export Plug-In . SVG Version: 6.00 Build 0)  -->
<svg version="1.1" id="Capa_1" xmlns="http://www.w3.org/2000/svg" xmlns:xlink="http://www.w3.org/1999/xlink" x="0px" y="0px"
	 viewBox="0 0 470 470" style="enable-background:new 0 0 470 470;" xml:space="preserve">
<g>
	<path d="M152.133,272.948c3.67,26.322,27.68,45.428,57.089,45.428c0.627,0,1.255-0.009,1.885-0.027
		c24.612-0.705,50.238-13.165,72.157-35.084c21.919-21.919,34.379-47.545,35.084-72.157c0.4-13.986-3.658-27.584-11.427-38.291
		c-8.303-11.44-20.368-18.786-33.973-20.683c-2.422-0.338-4.888-0.509-7.327-0.509c-26.684,0-48.951,19.499-51.796,45.357
		c-0.714,6.493-2.362,9.272-4.967,11.876c-2.605,2.605-5.384,4.253-11.877,4.967c-13.542,1.49-25.686,8.332-34.195,19.266
		C154.049,244.316,150.167,258.844,152.133,272.948z M198.622,228.735c9.114-1.003,15.348-3.775,20.843-9.271
		c5.495-5.495,8.268-11.728,9.271-20.842c2.007-18.242,17.864-31.998,36.886-31.998c1.749,0,3.517,0.123,5.256,0.365
		c22.055,3.075,33.033,24.305,32.478,43.688c-0.595,20.768-11.497,42.78-30.696,61.98c-19.2,19.2-41.212,30.102-61.98,30.697
		c-0.486,0.014-0.971,0.021-1.456,0.021c-18.735,0-39.258-11.164-42.232-32.499c-1.41-10.113,1.372-20.527,7.634-28.573
		C180.622,234.597,189.145,229.778,198.622,228.735z"/>
	<path d="M412.832,455h-6.5v-20.375c2.378-1.258,4-3.754,4-6.631s-1.622-5.373-4-6.631V400.12c2.378-1.258,4-3.754,4-6.631
		s-1.622-5.373-4-6.631V83.142c2.378-1.258,4-3.754,4-6.631s-1.622-5.373-4-6.631V48.636c2.378-1.258,4-3.754,4-6.631
		s-1.622-5.373-4-6.631V15h6.5c4.142,0,7.5-3.358,7.5-7.5s-3.358-7.5-7.5-7.5H57.168c-4.142,0-7.5,3.358-7.5,7.5s3.358,7.5,7.5,7.5
		h6.5v20.375c-2.378,1.258-4,3.754-4,6.631s1.622,5.373,4,6.631V69.88c-2.378,1.258-4,3.754-4,6.631s1.622,5.373,4,6.631v303.716
		c-2.378,1.258-4,3.754-4,6.631s1.622,5.373,4,6.631v21.244c-2.378,1.258-4,3.754-4,6.631s1.622,5.373,4,6.631V455h-6.5
		c-4.142,0-7.5,3.358-7.5,7.5s3.358,7.5,7.5,7.5h355.664c4.142,0,7.5-3.358,7.5-7.5S416.974,455,412.832,455z M391.332,15v19.505
		H78.668V15H391.332z M101.168,69.011h-22.5V49.505h312.664v19.505H131.168c-4.142,0-7.5,3.358-7.5,7.5s3.358,7.5,7.5,7.5h260.164
		v19.505H78.668V84.011h22.5c4.142,0,7.5-3.358,7.5-7.5S105.31,69.011,101.168,69.011z M391.332,118.516v232.967H78.668V118.516
		H391.332z M101.168,420.494h-22.5v-19.505h230.164c4.142,0,7.5-3.358,7.5-7.5s-3.358-7.5-7.5-7.5H78.668v-19.505h312.664v19.505
		h-52.5c-4.142,0-7.5,3.358-7.5,7.5s3.358,7.5,7.5,7.5h52.5v19.505H131.168c-4.142,0-7.5,3.358-7.5,7.5s3.358,7.5,7.5,7.5h260.164
		V455H78.668v-19.506h22.5c4.142,0,7.5-3.358,7.5-7.5S105.31,420.494,101.168,420.494z"/>
</g>
<g>
</g>
<g>
</g>
<g>
</g>
<g>
</g>
<g>
</g>
<g>
</g>
<g>
</g>
<g>
</g>
<g>
</g>
<g>
</g>
<g>
</g>
<g>
</g>
<g>
</g>
<g>
</g>
<g>
</g>
</svg>
