<svg id="Layer_3" enable-background="new 0 0 64 64" height="512" viewBox="0 0 64 64" width="512" xmlns="http://www.w3.org/2000/svg"><path d="m53.18 31.44-.429-.123 2.202-2.202c5.28-5.279 5.28-13.87 0-19.149-4.253-4.253-10.895-5.183-16.151-2.261l-2.956 1.642c-5.302 2.945-10.164 6.613-14.453 10.902-3.224 3.224-6.107 6.8-8.59 10.625l-1.983.566c-5.782 1.652-9.82 7.005-9.82 13.019 0 7.467 6.074 13.541 13.541 13.541h34.919c7.466 0 13.54-6.074 13.54-13.541 0-6.014-4.038-11.367-9.82-13.019zm-.291 2.009c-.126 2.644-.364 5.304-.737 7.919-.021.15-.282.15-.304 0-.398-2.788-.649-5.623-.767-8.448l1.549.443c.088.025.172.059.259.086zm-13.116-23.996c.08-.044.163-.08.244-.122 1.782 1.961 3.495 4.01 5.079 6.122.045.061.039.146-.014.2-.054.054-.139.06-.2.014-2.255-1.691-4.438-3.518-6.516-5.431zm-3.244 1.808c2.271 2.122 4.67 4.143 7.152 6.005.382.287.836.428 1.29.428.556 0 1.11-.212 1.525-.627.753-.752.838-1.962.2-2.814-1.478-1.971-3.074-3.879-4.724-5.725 4.019-1.233 8.514-.198 11.566 2.854 4.5 4.5 4.5 11.821 0 16.321l-2.987 2.987-.622-.178c-5.578-1.594-11.356-2.417-17.142-2.486-1.819-2.226-3.759-4.385-5.787-6.414l-2.015-2.015c.99-.901 2.006-1.771 3.051-2.606l.378.378c2.882 2.882 5.997 5.583 9.257 8.028.382.287.837.428 1.29.428.556 0 1.11-.212 1.525-.627.753-.752.839-1.962.2-2.814-2.361-3.149-4.965-6.156-7.736-8.953 1.167-.764 2.362-1.485 3.579-2.17zm4.471 19.386c.668.096 1.335.2 1.999.317-.002 3.969-.287 7.973-.848 11.904-.021.15-.282.15-.304 0-.561-3.942-.847-7.959-.847-11.939zm-10-.63c.333-.005.666-.017 1-.017s.667.012 1 .017v2.911c0 3.98-.286 7.997-.848 11.939-.021.15-.282.15-.304 0-.562-3.941-.848-7.958-.848-11.938zm.267-15.451c2.806 2.807 5.436 5.841 7.818 9.017.045.061.039.146-.014.2s-.139.06-.2.014c-3.185-2.389-6.228-5.027-9.043-7.843l-.199-.199c.54-.404 1.085-.802 1.638-1.189zm-7.74 6.401 2.059 2.059c1.596 1.596 3.118 3.289 4.588 5.017-.686.019-1.371.051-2.056.091-1.35-1.187-2.678-2.425-3.947-3.694l-2.052-2.052c.232-.24.452-.491.688-.726.237-.236.481-.463.72-.695zm-6.426 7.716c.282.282.553.575.831.861-.721.159-1.439.329-2.155.513.37-.527.752-1.044 1.138-1.56zm3.157.392c-.574-.609-1.152-1.215-1.743-1.806l-.378-.378c.836-1.045 1.708-2.06 2.607-3.05l2.013 2.014c.848.848 1.726 1.677 2.614 2.494-1.713.173-3.418.418-5.113.726zm2.742 1.572v.282c0 3.98-.286 7.997-.848 11.939-.021.15-.282.15-.304 0-.561-3.931-.846-7.935-.848-11.904.665-.117 1.332-.221 2-.317zm-10.081 2.274c-.118 2.825-.369 5.659-.767 8.448-.021.15-.282.15-.304 0-.373-2.615-.611-5.275-.737-7.919.087-.027.171-.061.259-.086zm36.54 23.079h-34.918c-6.364 0-11.541-5.178-11.541-11.541 0-4.309 2.438-8.213 6.143-10.186.138 2.466.378 4.941.726 7.379.151 1.053 1.067 1.848 2.131 1.848s1.98-.795 2.131-1.849c.439-3.071.706-6.196.812-9.303 1.345-.377 2.7-.711 4.065-.998.019 3.936.304 7.904.861 11.801.151 1.054 1.067 1.849 2.131 1.849s1.98-.795 2.131-1.849c.577-4.036.869-8.148.869-12.222v-.535c1.329-.148 2.663-.251 4-.314v2.849c0 4.074.292 8.187.869 12.223.151 1.053 1.067 1.848 2.131 1.848s1.98-.795 2.131-1.849c.577-4.036.869-8.148.869-12.222v-2.849c1.337.063 2.671.166 4 .314v.535c0 4.074.292 8.187.869 12.223.151 1.053 1.067 1.848 2.131 1.848s1.98-.795 2.131-1.849c.557-3.897.842-7.865.861-11.801 1.365.286 2.72.621 4.065.998.105 3.107.373 6.233.812 9.303.151 1.054 1.067 1.849 2.131 1.849s1.98-.795 2.131-1.849c.348-2.438.588-4.912.726-7.378 3.705 1.973 6.143 5.877 6.143 10.186 0 6.363-5.177 11.541-11.541 11.541z"/></svg>