<svg id="Capa_1" enable-background="new 0 0 512 512" height="512" viewBox="0 0 512 512" width="512" xmlns="http://www.w3.org/2000/svg"><g><path d="m365.24 68.557c-25.066 0-49.408 12.77-72.349 37.953-15.714 17.25-30.305 40.007-42.65 66.375-36.052-14.346-73.883-22.961-103.481-22.961-80.924-.001-146.76 65.835-146.76 146.759s65.836 146.761 146.76 146.761c34.396 0 82.745-12.028 126.087-32.728 26.086 21.176 58.505 32.728 92.393 32.728 80.924 0 146.76-65.837 146.76-146.761 0-78.092-61.976-228.126-146.76-228.126zm-335.24 228.126c0-64.382 52.378-116.76 116.76-116.76 35.019 0 85.947 14.786 126.728 36.792 45.374 24.485 71.397 53.633 71.397 79.968s-26.023 55.482-71.397 79.969c-40.781 22.006-91.709 36.792-126.728 36.792-64.382-.001-116.76-52.38-116.76-116.761zm335.24 116.76c-22.652 0-44.474-6.492-63.179-18.554 41.483-25.481 72.825-59.459 72.825-98.206 0-38.266-30.951-76.041-87.15-106.369-3.312-1.787-6.682-3.522-10.089-5.215 11.006-23.422 23.802-43.433 37.423-58.386 11.7-12.845 29.902-28.155 50.171-28.155 26.335 0 55.481 26.023 79.968 71.398 22.005 40.779 36.791 91.708 36.791 126.727 0 64.381-52.378 116.76-116.76 116.76z"/></g></svg>