<svg id="Layer_1" enable-background="new 0 0 511.992 511.992" height="512" viewBox="0 0 511.992 511.992" width="512" xmlns="http://www.w3.org/2000/svg"><g><path d="m461.596 78.907-106.026-74.241c-11.674-8.175-27.822-5.327-35.996 6.348l-98.787 141.083c-5.548-.503-11.21 1.881-14.628 6.762-36.053 51.487-128.938 184.14-164.844 235.42-4.58 6.543-.568 15.6 7.34 16.62l24.575 3.171c.274.035.515.203.643.449l11.745 22.704c2.387 4.616 6.89 7.769 12.044 8.435l25.353 3.271c.275.036.515.204.643.45l11.745 22.703c2.386 4.616 6.889 7.77 12.045 8.436l25.357 3.273c.273.035.514.203.641.449l11.389 22.014c3.68 7.11 13.564 7.728 18.129 1.21 8.159-11.652 156.51-223.519 164.843-235.42 3.255-4.649 3.883-10.695 1.356-16.066l41.837-59.75c2.376-3.393 1.552-8.07-1.842-10.445-3.394-2.376-8.069-1.55-10.445 1.842l-40.623 58.016-12.606-8.827 89.28-127.504c3.132-4.475 2.04-10.665-2.435-13.798l-82.35-57.662c-4.482-3.14-10.66-2.055-13.8 2.434l-89.279 127.5-12.605-8.826 97.566-139.341c3.43-4.898 10.207-6.093 15.105-2.664l106.026 74.241c4.898 3.43 6.094 10.207 2.664 15.105l-36.834 52.604c-2.376 3.393-1.552 8.069 1.842 10.445 3.396 2.377 8.07 1.551 10.445-1.842l36.834-52.604c8.174-11.673 5.327-27.821-6.347-35.995zm-266.768 414.022-8.062-15.582c-2.388-4.616-6.891-7.769-12.044-8.433l-25.355-3.273c-.275-.035-.515-.203-.643-.449l-11.746-22.705c-2.387-4.616-6.89-7.769-12.044-8.435l-25.353-3.271c-.275-.035-.515-.203-.643-.45l-11.745-22.704c-2.388-4.616-6.89-7.769-12.045-8.435l-17.393-2.244 13.828-19.748c15.429 10.804 120.813 84.594 137.071 95.979zm150.717-439.873 74.008 51.822-86.357 123.332-30.861-21.61 65.372-93.361c2.376-3.393 1.552-8.069-1.842-10.445s-8.069-1.55-10.445 1.842l-65.372 93.361-30.861-21.609zm9.6 208.834c.657.508.695 1.091.373 1.55l-106.793 152.516-14.456-81.981c-.72-4.08-4.607-6.8-8.688-6.084-4.079.719-6.803 4.609-6.083 8.688l17.06 96.754-19.297 27.559c-15.429-10.804-120.813-84.594-137.071-95.979l115.276-164.631 17.934 101.719c.72 4.08 4.611 6.804 8.688 6.084 4.079-.719 6.803-4.609 6.083-8.688l-20.539-116.49 10.813-15.444c.301-.43.892-.601 1.411-.286 175.835 123.097-47.403-33.209 135.289 94.713z"/></g></svg>