<svg height="496pt" viewBox="0 0 496 496" width="496pt" xmlns="http://www.w3.org/2000/svg"><path d="m480 304h-32v-96h16c8.824219 0 16-7.175781 16-16v-32c0-8.824219-7.175781-16-16-16h-16c0-8.824219-7.175781-16-16-16h-16c-8.824219 0-16 7.175781-16 16h-17.472656c-3.3125-9.289062-12.113282-16-22.527344-16h-9.472656c-3.3125-9.289062-12.113282-16-22.527344-16h-6.152344l27.433594-64h10.71875c8.824219 0 16-7.175781 16-16v-16c0-8.824219-7.175781-16-16-16h-224c-8.824219 0-16 7.175781-16 16v16c0 8.824219 7.175781 16 16 16h10.726562l27.433594 64h-62.160156v-8c0-17.648438-14.351562-32-32-32s-32 14.351562-32 32v144c0 17.648438 14.351562 32 32 32s32-14.351562 32-32v-8h76.886719c11.785156 0 21.738281 8.433594 23.671875 20.054688l10 59.945312h-46.558594v16h-32v-16h-104c-22.054688 0-40 17.945312-40 40s17.945312 40 40 40h104v-16h33.472656c3.3125 9.289062 12.113282 16 22.527344 16h24v16h-16v48h16v32h64v-32h16v-48h-16v-16h24c13.230469 0 24-10.769531 24-24v-56h-46.558594l9.992188-59.945312c1.933594-11.621094 11.894531-20.054688 23.679687-20.054688h4.886719c10.414062 0 19.214844-6.710938 22.527344-16h9.472656c10.414062 0 19.214844-6.710938 22.527344-16h17.472656v128c0 8.824219 7.175781 16 16 16h64c8.824219 0 16-7.175781 16-16v-16c0-8.824219-7.175781-16-16-16zm-344-288h224l.007812 16h-224.007812zm195.871094 32-34.910156 81.457031c-3.792969 8.832031-12.449219 14.542969-22.066407 14.542969h-53.796875c-9.617187 0-18.273437-5.710938-22.066406-14.542969l-34.902344-81.457031zm-251.871094 216c-8.824219 0-16-7.175781-16-16h16v-16h-16v-48h16v-16h-16v-48h16v-16h-16c0-8.824219 7.175781-16 16-16s16 7.175781 16 16v32h-16v16h16v48h-16v16h16v32c0 8.824219-7.175781 16-16 16zm48 120h-88c-13.230469 0-24-10.769531-24-24s10.769531-24 24-24h88zm16-32h32v16h-32zm128 128h-32v-16h32zm16-32h-64v-16h64zm-16-32h-32v-16h32zm48-40c0 4.414062-3.59375 8-8 8h-112c-4.40625 0-8-3.585938-8-8v-40h128zm16-160c0 4.40625-3.59375 8-8 8h-4.886719c-19.640625 0-36.234375 14.054688-39.457031 33.433594l-10.433594 62.566406h-34.445312l-10.433594-62.566406c-3.222656-19.378906-19.816406-33.433594-39.457031-33.433594h-76.886719v-96h69.007812l3.328126 7.761719c6.3125 14.726562 20.742187 24.238281 36.769531 24.238281h53.796875c16.027344 0 30.457031-9.511719 36.769531-24.238281l3.320313-7.761719h13.007812c4.40625 0 8 3.59375 8 8zm32-16c0 4.40625-3.59375 8-8 8h-8v-64h8c4.40625 0 8 3.59375 8 8zm16-8v-32h16v32zm80-32v32h-16v-32zm16 176h-64v-192h16v176h48zm0 0"/><path d="m128 208h48v-64h-48zm16-48h16v32h-16zm0 0"/></svg>