<svg id="Capa_1" enable-background="new 0 0 512 512" height="512" viewBox="0 0 512 512" width="512" xmlns="http://www.w3.org/2000/svg"><g><g><path d="m8.05 287.91c4.085.832 8.385-1.092 10.52-4.663 2.118-3.543 1.816-8.112-.74-11.352-2.661-3.372-7.331-4.656-11.347-3.145-3.852 1.449-6.476 5.244-6.482 9.36-.008 4.723 3.441 8.865 8.049 9.8z"/><path d="m390.298 234.339c-18.844-66.024-79.28-111.772-148.489-111.772l-.636.004c-9.647.111-17.969 5.887-24.141 10.907-2.755 2.241-5.779 3.928-8.941 5.061v-.144c.024-1.774.025-3.606 0-5.488v-30.723c0-20.493 16.672-37.165 37.165-37.165 5.523 0 10-4.477 10-10s-4.477-10-10-10c-20.963 0-39.326 11.342-49.276 28.212-4.307-9.259-10.049-18.02-17.65-25.603-38.888-38.793-109.64-28.638-112.634-28.187-4.336.654-7.739 4.055-8.396 8.39-.449 2.96-10.455 72.349 27.241 111.365-7.627 3.881-14.973 8.423-21.975 13.604-26.197 19.384-45.289 45.91-55.212 76.709-1.694 5.257 1.195 10.891 6.452 12.584 5.253 1.692 10.891-1.194 12.584-6.452 17.936-55.671 69.345-93.075 127.866-93.075l.525.003c1.419.016 3.101.66 4.762 1.549.186.111.376.216.568.313 2.706 1.54 5.266 3.622 6.42 4.561 18.288 14.874 44.834 14.875 63.121.001 1.94-1.578 7.844-6.379 11.695-6.423l.521-.003c58.434 0 109.716 37.516 127.667 92.27-64.826 6.804-115.534 62.173-115.534 129.248 0 37.329 15.705 71.032 40.809 94.757-19.555 13.211-38.622 15.158-55.027 15.158l-1.054-.013c-.203-.005-.674-.002-1.393.023-16.011.575-28.523-2.238-36.198-4.694-1.983-.634-4.112-.634-6.095 0-7.674 2.456-20.183 5.269-36.199 4.694-.718-.025-1.191-.03-1.386-.023l-1.059.013c-21.323 0-65.691 0-103.687-76.66-11.781-23.77-21.412-50.907-27.118-76.414-1.205-5.39-6.552-8.783-11.942-7.576-5.39 1.206-8.781 6.552-7.576 11.942 6.046 27.025 16.244 55.766 28.715 80.929 38.563 77.802 85.246 87.779 121.608 87.779h.656c.084 0 .168-.001.252-.003l.455-.012.373.012c13.812.493 27.555-1.133 39.956-4.706 10.956 3.157 22.957 4.792 35.129 4.792 1.606 0 3.216-.028 4.826-.086l.372-.012.455.012c.084.002.169.003.253.003h.656c19.737 0 45.37-2.611 71.202-22.148 20.58 14.002 45.367 22.184 72.016 22.184 71.13 0 128.999-58.296 128.999-129.952.001-69.188-53.952-125.921-121.701-129.745zm-219.151-106.606-47.501-55.234c-3.602-4.188-9.916-4.663-14.103-1.061-4.187 3.601-4.663 9.915-1.062 14.102l32.34 37.605c-12.346 1.063-24.404 3.585-35.991 7.505-1.819-1.446-3.542-2.977-5.141-4.571-25.106-25.048-24.685-69.797-23.379-87.624 17.874-1.305 62.767-1.734 87.895 23.333 21.073 21.022 24.131 56.037 23.866 76.743-3.154-1.134-6.172-2.818-8.92-5.054-2.367-1.924-5.05-3.959-8.004-5.744zm-13.241 366.249.065-.001c-.019 0-.041 0-.065.001zm80.311-.002.057.001c-.021 0-.04 0-.057-.001zm144.784-19.943c-60.102 0-108.999-49.324-108.999-109.952 0-60.627 48.897-109.952 108.999-109.952s108.999 49.324 108.999 109.952c0 60.627-48.897 109.952-108.999 109.952z"/><path d="m430.791 329.783h-13.69v-13.896c0-12.251-9.924-22.218-22.122-22.218h-23.956c-12.198 0-22.122 9.967-22.122 22.218v13.896h-13.69c-12.198 0-22.121 9.967-22.121 22.219v24.167c0 12.251 9.924 22.219 22.121 22.219h13.69v13.895c0 12.251 9.924 22.219 22.122 22.219h23.956c12.198 0 22.122-9.967 22.122-22.219v-13.895h13.69c12.198 0 22.122-9.967 22.122-22.219v-24.167c0-12.252-9.924-22.219-22.122-22.219zm2.122 46.385c0 1.224-.952 2.219-2.122 2.219h-23.69c-5.523 0-10 4.477-10 10v23.895c0 1.224-.952 2.219-2.122 2.219h-23.956c-1.17 0-2.122-.995-2.122-2.219v-23.895c0-5.523-4.477-10-10-10h-23.69c-1.17 0-2.121-.995-2.121-2.219v-24.167c0-1.224.952-2.219 2.121-2.219h23.69c5.523 0 10-4.477 10-10v-23.896c0-1.223.952-2.218 2.122-2.218h23.956c1.17 0 2.122.995 2.122 2.218v23.896c0 5.523 4.477 10 10 10h23.69c1.17 0 2.122.995 2.122 2.219z"/></g></g></svg>