<svg id="Capa_1" enable-background="new 0 0 512 512" height="512" viewBox="0 0 512 512" width="512" xmlns="http://www.w3.org/2000/svg"><g><path d="m36.302 357.66c1.967 26.984 13.601 52.395 32.757 71.551 3.904 3.903 10.236 3.905 14.143 0l53.536-53.536 53.531 53.535c1.875 1.876 4.419 2.93 7.071 2.93s5.195-1.054 7.071-2.929c41.72-41.72 43.877-108.243 6.484-152.536 15.286-18.135 24.539-40.691 26.273-64.475 1.772-24.314-4.383-48.489-17.366-68.859 12.982-20.366 19.139-44.54 17.366-68.856-1.968-26.986-13.602-52.398-32.758-71.555-1.875-1.877-4.418-2.93-7.07-2.93s-5.196 1.054-7.071 2.93l-53.531 53.54-53.537-53.541c-3.906-3.905-10.236-3.905-14.143 0-41.72 41.72-43.877 108.243-6.485 152.536-15.286 18.135-24.539 40.692-26.272 64.479-1.773 24.317 4.384 48.491 17.366 68.857-12.982 20.37-19.138 44.545-17.365 68.859zm160.65-333.129c23.115 28.84 26.821 69.398 9.608 101.852-3.019-3.187 2.436 2.4-55.682-55.771zm-120.434 145.46 21.44 21.442c3.906 3.906 10.237 3.906 14.142 0 3.906-3.905 3.906-10.237.001-14.142l-28.895-28.897c-.002-.002-.003-.003-.005-.005-33.816-33.816-36.047-87.439-6.693-123.869 119.457 119.988 115.67 114.497 123.146 124.715.018.025.035.051.053.075 25.116 34.416 23.536 80.362-2.751 112.842l-21.248-21.25c-3.905-3.904-10.236-3.906-14.142 0-3.906 3.905-3.906 10.236-.001 14.142l28.699 28.702.005.005.003.003c33.813 33.816 36.042 87.437 6.69 123.865l-53.097-53.101c-.019-.019-.034-.04-.053-.059s-.04-.035-.059-.053c-60.746-61.226-62.575-61.431-69.94-71.508-.002-.003-.004-.006-.006-.009-.013-.018-.024-.036-.038-.054-24.692-33.825-23.059-80.643 2.749-112.844zm-9.639 135.734c3.007 3.177-2.349-2.311 55.717 55.807l-46.096 46.096c-23.59-29.142-27.256-69.13-9.621-101.903z"/><path d="m274.831 437.516c1.968 26.986 13.602 52.398 32.758 71.555 3.903 3.902 10.238 3.906 14.143-.001l53.531-53.54 53.536 53.541c1.953 1.953 4.512 2.929 7.071 2.929s5.118-.977 7.071-2.929c41.72-41.72 43.877-108.243 6.484-152.536 15.286-18.135 24.539-40.692 26.272-64.479 1.773-24.317-4.384-48.491-17.366-68.857 12.983-20.37 19.139-44.545 17.366-68.859-1.967-26.984-13.601-52.395-32.757-71.551-1.876-1.875-4.419-2.929-7.071-2.929s-5.195 1.054-7.071 2.929l-53.536 53.536-53.531-53.535c-1.875-1.876-4.419-2.93-7.071-2.93s-5.195 1.054-7.071 2.929c-41.72 41.72-43.877 108.243-6.485 152.537-15.286 18.135-24.539 40.691-26.273 64.475-1.772 24.314 4.383 48.489 17.366 68.859-12.982 20.366-19.139 44.54-17.366 68.856zm40.217 49.953c-23.115-28.84-26.821-69.398-9.608-101.852 3.019 3.187-2.436-2.4 55.682 55.771zm120.452-383.097c23.59 29.142 27.256 69.13 9.621 101.902-2.997-3.167 2.306 2.268-55.717-55.807zm-120.471 145.461 21.264 21.265c3.906 3.905 10.237 3.907 14.142 0 3.906-3.905 3.906-10.237.001-14.142l-28.704-28.707c-33.816-33.816-36.047-87.439-6.693-123.868 124.246 124.257 117.378 116.824 123.149 124.722.002.003.004.007.007.01.012.017.023.035.036.052 24.692 33.823 23.041 80.627-2.764 112.829l-21.424-21.426c-3.905-3.905-10.236-3.905-14.142 0s-3.906 10.237-.001 14.142l28.899 28.902c33.816 33.815 36.047 87.439 6.693 123.869-119.457-119.988-115.67-114.497-123.146-124.715-.018-.025-.035-.051-.054-.077-25.115-34.419-23.553-80.377 2.737-112.856z"/><circle cx="137" cy="216" r="10"/><circle cx="375" cy="296" r="10"/></g></svg>