<?xml version="1.0" encoding="iso-8859-1"?>
<!-- Generator: Adobe Illustrator 19.0.0, SVG Export Plug-In . SVG Version: 6.00 Build 0)  -->
<svg version="1.1" id="Capa_1" xmlns="http://www.w3.org/2000/svg" xmlns:xlink="http://www.w3.org/1999/xlink" x="0px" y="0px"
	 viewBox="0 0 511.987 511.987" style="enable-background:new 0 0 511.987 511.987;" xml:space="preserve">
<g>
	<g>
		<g>
			<path d="M503.453,299.894v-22.98c-0.012-11.777-9.556-21.321-21.333-21.333c-2.355-0.003-4.264-1.911-4.267-4.267v-8.533
				c-0.012-11.777-9.556-21.321-21.333-21.333h-11.35c-1.972,0.002-3.678-1.37-4.1-3.296l-4.067-16.021
				c-1.049-4.43-3.848-8.247-7.758-10.579c-3.881-2.327-8.524-3.024-12.917-1.938c-4.484,1.136-9.238,0.377-13.146-2.098
				c-3.908-2.476-6.624-6.45-7.513-10.989l-0.384-1.842l106.217-77.692c5.484-3.994,9.149-10.009,10.184-16.713
				c1.035-6.704-0.644-13.545-4.668-19.007c-3.995-5.487-10.012-9.154-16.719-10.189c-6.707-1.036-13.551,0.646-19.014,4.673
				l-112.137,81.976c-3.612-1.008-7.338-1.552-11.088-1.618h-13.483c-1.957-0.021-3.905-0.265-5.807-0.727l77.198-93.035
				c5.862-7.018,7.529-16.633,4.371-25.214c-3.158-8.582-10.66-14.822-19.674-16.365c-9.013-1.543-18.164,1.846-23.997,8.888
				L266.03,130.943c-6.937,1.794-14.31,0.557-20.281-3.403c-8.352-5.53-18.145-8.483-28.162-8.492h-3.671
				c-8.544-0.026-16.529,4.247-21.246,11.371c-1.966,2.911-5.01,4.919-8.46,5.58c-3.45,0.661-7.021-0.08-9.923-2.059
				c-7.875-4.808-17.996-3.732-24.683,2.625l-7.683,7.683c-2.564,2.601-4.71,5.584-6.363,8.842
				c-2.68,5.259-8.068,8.586-13.971,8.625c-15.309,0.02-27.714,12.425-27.733,27.733c0.004,0.678-0.386,1.296-1,1.583l-17.313,8.654
				c-9.709,4.926-15.84,14.875-15.875,25.762l-10.313,6.904c-9.52,6.328-15.239,17.003-15.233,28.434v3.329
				c-9.422,0.009-17.057,7.645-17.067,17.067v17.067h-2.025c-5.653,0.001-10.827,3.174-13.392,8.211
				c-2.565,5.037-2.087,11.088,1.238,15.66l2.746,6.717c24.649,59.892,67.446,110.554,122.375,144.866v13.242
				c0.015,13.599,11.034,24.621,24.633,24.638h206.729c13.6-0.016,24.621-11.037,24.638-24.638v-13.246
				c54.917-34.307,97.707-84.957,122.358-144.833l2.758-6.746c3.126-4.298,3.75-9.926,1.642-14.804
				C509.293,304.043,506.701,301.408,503.453,299.894z M481.403,69.498c1.784-1.336,4.031-1.897,6.233-1.554
				c2.231,0.328,4.236,1.538,5.567,3.358c1.095,1.469,1.696,3.247,1.717,5.079c-0.019,2.71-1.32,5.251-3.508,6.85L275.416,241.22
				l-8.288,2.761c-1.694,0.567-3.527,0.567-5.221,0l-12.5-4.167c-0.252-0.083-0.512-0.086-0.765-0.161L481.403,69.498z
				 M334.578,153.181h3.438l-61.03,44.616l40.146-48.381C322.616,151.889,328.562,153.173,334.578,153.181z M379.824,20.536
				c1.427-1.74,3.492-2.836,5.733-3.042c3.423-0.296,6.69,1.492,8.286,4.534s1.211,6.746-0.978,9.395l-172.247,207.58l-10.697,7.82
				c-0.091-0.083-0.21-0.12-0.298-0.208c-3.263-3.271-7.361-5.585-11.848-6.691L379.824,20.536z M34.12,281.181
				c9.422-0.009,17.057-7.645,17.067-17.067v-3.329c0.001-5.729,2.871-11.076,7.646-14.242l10.367-6.942
				c4.735-3.189,7.578-8.52,7.587-14.229c0.054-4.413,2.54-8.436,6.462-10.458l17.163-8.583c6.423-3.177,10.494-9.717,10.508-16.884
				c0.017-5.884,4.783-10.649,10.667-10.667c12.302-0.065,23.545-6.972,29.162-17.917c0.844-1.671,1.935-3.205,3.237-4.55
				l7.683-7.683c0.949-0.767,2.26-0.907,3.35-0.358c6.66,4.45,14.817,6.066,22.67,4.491s14.756-6.212,19.184-12.886
				c1.565-2.359,4.211-3.773,7.042-3.762h3.671c6.656,0.007,13.164,1.967,18.717,5.638c4.7,3.117,9.976,5.264,15.517,6.315
				l-79.465,95.764c-1.42,0.121-2.846-0.135-4.136-0.741c-9.746-4.879-21.52-2.966-29.221,4.746l-8.513,8.513
				c-3.308,3.336-3.296,8.719,0.026,12.041c3.322,3.322,8.704,3.334,12.041,0.026l8.513-8.513c2.519-2.518,6.369-3.136,9.55-1.533
				c6.001,3.025,12.964,3.52,19.333,1.375l9.162-3.054c2.965-1.004,6.242-0.231,8.446,1.992c8.545,8.509,21.897,9.833,31.946,3.167
				l7.325-4.879c2.119-1.41,4.768-1.765,7.183-0.962l12.5,4.167c5.198,1.725,10.814,1.725,16.012,0l12.508-4.167
				c2.416-0.791,5.061-0.436,7.183,0.962l18.771,12.513c3.92,2.576,9.184,1.504,11.786-2.398c2.602-3.903,1.566-9.174-2.319-11.802
				l-18.495-12.332l78.598-57.49c5.058,13.089,17.64,21.725,31.672,21.738c2.761-0.012,5.512-0.338,8.2-0.971l4.067,16.009
				c2.273,9.57,10.838,16.314,20.675,16.279h11.35c2.355,0.003,4.264,1.911,4.267,4.267v8.533
				c0.012,11.777,9.556,21.321,21.333,21.333c2.355,0.003,4.264,1.912,4.267,4.267v21.333H34.12V281.181z M490.553,322.402
				c-23.635,57.278-64.824,105.586-117.645,137.979h-23.047c-4.713,0-8.533,3.82-8.533,8.533s3.821,8.533,8.533,8.533h17.067v9.496
				c-0.004,4.18-3.392,7.567-7.571,7.571H152.628c-4.178-0.006-7.563-3.393-7.567-7.571v-9.496h102.4
				c4.713,0,8.533-3.82,8.533-8.533s-3.82-8.533-8.533-8.533H139.068C86.222,428.006,45.025,379.681,21.42,322.377l-2.892-7.063
				h474.925L490.553,322.402z"/>
			<path d="M375.49,434.764L375.49,434.764c1.501,0,2.974-0.396,4.271-1.15c34.867-21.383,62.779-52.424,80.35-89.358
				c1.194-2.805,0.801-6.033-1.031-8.469c-1.832-2.436-4.824-3.71-7.85-3.342s-5.625,2.323-6.819,5.127
				c-16.077,33.679-41.59,61.963-73.438,81.417l-0.033,0.021c-3.224,2.022-4.718,5.936-3.662,9.592
				C368.334,432.258,371.684,434.772,375.49,434.764z"/>
		</g>
	</g>
</g>
<g>
</g>
<g>
</g>
<g>
</g>
<g>
</g>
<g>
</g>
<g>
</g>
<g>
</g>
<g>
</g>
<g>
</g>
<g>
</g>
<g>
</g>
<g>
</g>
<g>
</g>
<g>
</g>
<g>
</g>
</svg>
