<?xml version="1.0" encoding="iso-8859-1"?>
<!-- Generator: Adobe Illustrator 19.0.0, SVG Export Plug-In . SVG Version: 6.00 Build 0)  -->
<svg version="1.1" id="Capa_1" xmlns="http://www.w3.org/2000/svg" xmlns:xlink="http://www.w3.org/1999/xlink" x="0px" y="0px"
	 viewBox="0 0 512 512" style="enable-background:new 0 0 512 512;" xml:space="preserve">
<g>
	<g>
		<path d="M315.622,91.882L197.677,44.703C179.292,37.35,167.411,19.802,167.411,0h-30c0,32.141,19.282,60.622,49.123,72.558
			l48.311,19.324H105.348V512h301.305V91.882H315.622z M376.652,482H135.348V288.381h20.41
			c5.379,27.656,24.985,54.397,50.537,67.138C212.591,358.66,229.32,367,256,367c26.806,0,43.791-8.533,49.374-11.337
			c25.701-12.914,45.425-39.702,50.851-67.281h20.427V482z M184.279,273.473c0-29.209,16.806-48.083,42.814-48.083
			c8.042,0,15.69,1.725,22.118,4.987l6.789,3.445l6.789-3.445c6.428-3.262,14.076-4.987,22.118-4.987
			c26.009-0.001,42.815,18.873,42.815,48.083c0,20.965-15.732,45.292-35.815,55.383C287.471,331.083,275.693,337,256,337
			c-19.615,0-31.321-5.836-36.319-8.328C199.828,318.773,184.279,294.526,184.279,273.473z M376.652,258.381h-20.071
			c-2.536-16.527-9.32-30.812-20.026-41.85c-13.226-13.634-31.567-21.142-51.648-21.142c-4.714,0-9.369,0.406-13.907,1.17v-22.453
			h-30v22.453c-4.538-0.765-9.193-1.17-13.907-1.17c-20.081,0-38.423,7.509-51.648,21.142c-10.706,11.038-17.49,25.322-20.026,41.85
			h-20.07V121.882h241.278h0.025V258.381z"/>
	</g>
</g>
<g>
	<g>
		<rect x="202.669" y="407" width="106.67" height="30"/>
	</g>
</g>
<g>
</g>
<g>
</g>
<g>
</g>
<g>
</g>
<g>
</g>
<g>
</g>
<g>
</g>
<g>
</g>
<g>
</g>
<g>
</g>
<g>
</g>
<g>
</g>
<g>
</g>
<g>
</g>
<g>
</g>
</svg>
