<svg id="Layer_5" enable-background="new 0 0 64 64" height="512" viewBox="0 0 64 64" width="512" xmlns="http://www.w3.org/2000/svg"><path d="m63 8v-4c0-1.654-1.346-3-3-3h-32c-1.654 0-3 1.346-3 3v4c0 1.654 1.346 3 3 3h.131l-2.292 3.437c-.549.824-.839 1.783-.839 2.774v13.789h-21c-1.654 0-3 1.346-3 3v2c0 1.654 1.346 3 3 3h.132l-2.292 3.438c-.55.823-.84 1.782-.84 2.773v12.789c0 2.757 2.243 5 5 5h18c1.123 0 2.15-.386 2.986-1.014.861.651 1.917 1.014 3.014 1.014h28c2.757 0 5-2.243 5-5v-40.789c0-.991-.29-1.95-.84-2.773l-2.292-3.438h.132c1.654 0 3-1.346 3-3zm-36 0v-4c0-.551.448-1 1-1h1v4h2v-4h2v4h2v-4h2v4h2v-4h2v4h2v-4h2v4h2v-4h2v4h2v-4h2v4h2v-4h2v4h2v-4h1c.552 0 1 .449 1 1v4c0 .551-.448 1-1 1h-32c-.552 0-1-.449-1-1zm1.16 34.438-2.292-3.438h.132c1.654 0 3-1.346 3-3v-2c0-1.302-.839-2.402-2-2.816v-10.184h34v34h-32v-9.789c0-.991-.29-1.95-.84-2.773zm-25.16-6.438v-2c0-.552.448-1 1-1h22c.552 0 1 .448 1 1v2c0 .552-.448 1-1 1h-22c-.552 0-1-.448-1-1zm21 25h-18c-1.654 0-3-1.346-3-3v-12.789c0-.595.174-1.17.504-1.664l3.031-4.547h16.93l3.031 4.547c.33.494.504 1.069.504 1.664v12.789c0 1.654-1.346 3-3 3zm34 0h-28c-.606 0-1.188-.193-1.681-.527.421-.733.681-1.569.681-2.473v-1h32v1c0 1.654-1.346 3-3 3zm2.496-45.453c.33.494.504 1.069.504 1.664v1.789h-34v-1.789c0-.595.174-1.17.504-1.664l3.031-4.547h26.93z"/><path d="m34 53h20c1.654 0 3-1.346 3-3v-24c0-1.654-1.346-3-3-3h-20c-1.654 0-3 1.346-3 3v24c0 1.654 1.346 3 3 3zm-1-27c0-.551.448-1 1-1h20c.552 0 1 .449 1 1v24c0 .552-.448 1-1 1h-20c-.552 0-1-.448-1-1z"/><path d="m44 41c3.859 0 7-3.141 7-7 0-3.86-3.141-7-7-7s-7 3.14-7 7c0 3.859 3.141 7 7 7zm0-12c2.757 0 5 2.243 5 5s-2.243 5-5 5-5-2.243-5-5 2.243-5 5-5z"/><path d="m35 43h2v2h-2z"/><path d="m39 43h14v2h-14z"/><path d="m35 47h18v2h-18z"/><path d="m20 45h-10c-1.654 0-3 1.346-3 3v6c0 1.654 1.346 3 3 3h10c1.654 0 3-1.346 3-3v-6c0-1.654-1.346-3-3-3zm1 9c0 .552-.448 1-1 1h-10c-.552 0-1-.448-1-1v-6c0-.552.448-1 1-1h10c.552 0 1 .448 1 1z"/></svg>