<svg id="Capa_1" enable-background="new 0 0 512 512" height="512" viewBox="0 0 512 512" width="512" xmlns="http://www.w3.org/2000/svg"><g><path d="m115.612 121.325c35.26 12.016 82.42 18.984 132.794 19.622l.189-14.999c-48.834-.618-94.343-7.302-128.145-18.821-30.436-10.373-48.608-24.065-48.608-36.627 0-15.821 28.578-32.922 72.807-43.568l-3.51-14.583c-54.36 13.084-84.297 33.736-84.297 58.151 0 20.147 20.322 37.722 58.77 50.825z"/><path d="m256 15c50.419 0 97.717 6.42 133.181 18.077 31.921 10.493 50.977 24.483 50.977 37.423 0 12.562-18.172 26.254-48.609 36.627-33.801 11.52-79.311 18.204-128.144 18.821l.189 14.999c50.374-.638 97.534-7.606 132.793-19.622 38.448-13.103 58.771-30.678 58.771-50.825 0-20.624-21.195-38.492-61.294-51.672-36.934-12.141-85.896-18.828-137.864-18.828-35.226 0-69.771 3.141-99.901 9.082l2.902 14.717c29.189-5.757 62.731-8.799 96.999-8.799z"/><path d="m440.158 441.5c0 15.82-28.578 32.921-72.807 43.568l3.51 14.583c54.359-13.084 84.297-33.736 84.297-58.151v-326h-15z"/><path d="m56.842 115.5h15v166.001h-15z"/><path d="m256 497c-50.419 0-97.717-6.42-133.181-18.077-31.921-10.493-50.977-24.483-50.977-37.423v-145h-15v145c0 20.624 21.195 38.492 61.294 51.672 36.934 12.141 85.896 18.828 137.864 18.828 35.233 0 69.778-3.141 99.901-9.082l-2.902-14.716c-29.183 5.756-62.725 8.798-96.999 8.798z"/><path d="m167.257 41.194-42.915 12.418v33.775l42.915 12.418c2.585.748 4.954 1.062 7.111 1.062 5.556 0 9.698-2.079 12.453-4.16 6.877-5.196 10.951-14.992 10.904-26.207.047-11.215-4.027-21.01-10.904-26.207-3.824-2.889-10.322-5.773-19.564-3.099zm15.469 29.344c.032 6.234-1.956 11.941-4.947 14.201-1.025.774-2.8 1.687-6.352.658l-32.085-9.284v-11.226l32.085-9.284c3.552-1.028 5.326-.117 6.352.658 2.991 2.26 4.979 7.966 4.947 14.201z"/><path d="m220.42 424.375 17.16-63.126c3.388.479 6.924.726 10.574.726 8.553 0 17.706-1.31 26.909-3.908 17.174-4.849 33.105-13.692 46.073-25.573 28.012-25.666 39.345-63.08 31.912-105.35l-.91-5.177-5.178-.911c-42.27-7.433-79.685 3.9-105.35 31.912-11.882 12.968-20.725 28.9-25.573 46.074-3.708 13.13-4.788 26.157-3.188 37.484l-63.12 17.159zm-7.688-28.901-34.104-34.103 40.713-11.067 4.457 4.457zm126.37-160.473c4.823 34.881-5.172 59.054-17.644 75.103l-57.859-57.142c16.046-12.617 40.328-22.824 75.503-17.961zm-86.504 28.18 58.702 57.974c-.099.091-.198.188-.297.278-23.863 21.865-55.284 28.662-75.007 24.312l-7.639-7.639c-4.344-19.701 2.435-51.071 24.241-74.925z"/><path d="m306.342 252.762h15v15h-15z"/><path d="m410.158 134.356h15v15h-15z"/><path d="m410.158 164.356h15v60h-15z"/><path d="m373.015 43.873c-32.966-9.076-73.429-13.873-117.015-13.873v15c42.26 0 81.346 4.611 113.032 13.335z"/><path d="m226 30h15v15h-15z"/><path d="m86.842 431.793h15v15h-15z"/><path d="m86.842 356.793h15v60h-15z"/></g></svg>