<?xml version="1.0"?>
<svg xmlns="http://www.w3.org/2000/svg" viewBox="0 0 512 512" width="512" height="512"><g id="outline"><path d="M56,424H72a8,8,0,0,0,0-16H56a8,8,0,0,0,0,16Z"/><path d="M440,424h16a8,8,0,0,0,0-16H440a8,8,0,0,0,0,16Z"/><path d="M56,472H72a8,8,0,0,0,0-16H56a8,8,0,0,0,0,16Z"/><path d="M248,424h16a8,8,0,0,0,0-16H248a8,8,0,0,0,0,16Z"/><path d="M248,472h16a8,8,0,0,0,0-16H248a8,8,0,0,0,0,16Z"/><path d="M440,472h16a8,8,0,0,0,0-16H440a8,8,0,0,0,0,16Z"/><path d="M147.622,264.467a8,8,0,0,0-10.361-4.545l-14.906,5.816a8,8,0,1,0,5.817,14.907l14.905-5.817A8,8,0,0,0,147.622,264.467Z"/><path d="M485.779,208.072a37.974,37.974,0,0,0-30.992-41.458,67.975,67.975,0,0,0-113.574,0,37.661,37.661,0,0,0-12.727,4.807l30.981-80.549A8,8,0,0,0,354.53,80.41l-24-8a8,8,0,0,0-10,4.718L312,99.314V24a8,8,0,0,0-8-8H272a8,8,0,0,0-8,8V99.318l-8.533-22.189a8,8,0,0,0-10-4.719l-24,8a8,8,0,0,0-4.937,10.462l34.271,89.1a77.693,77.693,0,0,1,5.2,28v9.039a56.648,56.648,0,0,0-7.726,3.651l-2.721-5.443A41.77,41.77,0,0,0,207.987,192H189a8,8,0,0,0-7.155,11.578l6.6,13.2A41.77,41.77,0,0,0,226.013,240h2.159a56.584,56.584,0,0,0-6.642,15.442,31.628,31.628,0,0,0-47.238,2.427l-1.878,2.349a59.89,59.89,0,0,0-5.017,7.337l-7.122-24.636a51.956,51.956,0,0,0-20.632-28.434,40.017,40.017,0,0,0,13.249-46.539,40.271,40.271,0,0,0-41.687-25.216,48.017,48.017,0,0,0-78.872,30.78A40.288,40.288,0,0,0,18.746,220.3a39.855,39.855,0,0,0,41.268,25.268A51.954,51.954,0,0,0,64.1,280.453L91.807,336H24a8,8,0,0,0-8,8V488a8,8,0,0,0,8,8H488a8,8,0,0,0,8-8V344a8,8,0,0,0-8-8H437.9a49.685,49.685,0,0,1,5.541-16.074c.848.044,1.7.074,2.556.074a48.012,48.012,0,0,0,44.424-66.194,37.983,37.983,0,0,0-4.645-45.734Zm-87.15,114.55a65.376,65.376,0,0,0-5.674-16.269c1.723-.822,3.409-1.723,5.045-2.711a57.971,57.971,0,0,0,6.07,3.176A65.612,65.612,0,0,0,398.629,322.622Zm-21.147-11.28A49.686,49.686,0,0,1,384,336h-8.483a65.6,65.6,0,0,0-5.87-20.188A47.962,47.962,0,0,0,377.482,311.342Zm-23.711,8.513A49.69,49.69,0,0,1,359.351,336H335.544a38.29,38.29,0,0,0-6.834-15.049l-8.534-11.383A47.752,47.752,0,0,0,350,320Q351.9,320,353.771,319.855ZM286.88,329.5a60.082,60.082,0,0,0,4.832-54.032l11.069-27.274a38.162,38.162,0,0,0,2.8,5.612A47.979,47.979,0,0,0,304,285.69V312a8,8,0,0,0,1.6,4.8l10.311,13.752a22.38,22.38,0,0,1,3,5.449h-36.1ZM332.723,90.007l8.805,2.935-31.264,81.285a93.52,93.52,0,0,0-6.064,27.925l-22.82,56.226-.407-.509A31.661,31.661,0,0,0,272,250.178V238.105ZM280,140V32h16V137.824a8,8,0,0,0,.325,2.245L288,161.72l-8.039-20.9A8.135,8.135,0,0,0,280,140ZM234.472,92.942l8.8-2.935,32.59,84.744a61.043,61.043,0,0,1,2.917,10.155l-7.1,15.5a93.52,93.52,0,0,0-5.943-26.178ZM256,236.359h0v9.649a31.579,31.579,0,0,0-15.165,4.022A40.711,40.711,0,0,1,256,234.681Zm-53.242-26.732L201.944,208h6.043a25.857,25.857,0,0,1,23.255,14.373l.814,1.627h-6.043A25.857,25.857,0,0,1,202.758,209.627Zm-17.851,60.586,1.879-2.348a15.626,15.626,0,0,1,25.2,1.093,18.8,18.8,0,0,0,31.285,0,15.643,15.643,0,0,1,18.118-6.1c.05.017.1.038.15.054a15.573,15.573,0,0,1,6.937,4.954l1.878,2.347a44.06,44.06,0,0,1,2.954,50.808L263.948,336H191.317l-9.363-14.98A44.056,44.056,0,0,1,184.907,270.213Zm-25.539,24.4c-.018-.054-.034-.107-.053-.161l.057.064C159.37,294.552,159.37,294.584,159.368,294.617ZM33.651,214.48A24.134,24.134,0,0,1,44,184.971a8,8,0,0,0,4.006-6.695,32.008,32.008,0,0,1,54.9-21.422,8,8,0,0,0,7.482,2.21,24.134,24.134,0,0,1,27.6,14.7,23.922,23.922,0,0,1-18.922,32.458c-.279-.046-.556-.1-.835-.145a45.994,45.994,0,0,1,10.786-21.132,8,8,0,1,0-11.868-10.73,62.1,62.1,0,0,0-14.8,29.731,7.969,7.969,0,0,0-3.62,1.25L87.455,176.308a8,8,0,0,0-14.906,5.816l11.274,28.888a8,8,0,0,0-3.51,1.532A62.112,62.112,0,0,0,49.288,200.7a8,8,0,1,0-1.464,15.934,45.986,45.986,0,0,1,22.249,8.24c-.178.221-.344.451-.518.674a23.925,23.925,0,0,1-35.9-11.064Zm70.277,109.976,13.52-5.276a8,8,0,1,0-5.817-14.905L96.757,310.08,89.585,295.7l8.777-3.425a8,8,0,0,0-5.817-14.906l-10.132,3.954-4-8.015a35.438,35.438,0,0,1-1.369-28.888,36.314,36.314,0,0,1,3.834-7.326,39.618,39.618,0,0,0,7.788-8.236,36.125,36.125,0,0,1,8.77-4.923l.015,0,.016-.007a36.134,36.134,0,0,1,9.79-2.318,39.618,39.618,0,0,0,11.3.783,36.251,36.251,0,0,1,7.787,2.793A35.433,35.433,0,0,1,144.9,247.362l12.733,44.044c.05.175.114.342.176.511a8,8,0,0,0-8.918-2.185l-7.453,2.909a8,8,0,1,0,5.816,14.906l7.453-2.908a7.98,7.98,0,0,0,4.621-4.769,59.861,59.861,0,0,0,9.054,29.63l4.062,6.5H109.687ZM480,432H32V400H480Zm0,48H32V448H480Zm0-96H32V352H480Zm-58.263-48h-8.483a49.77,49.77,0,0,1,6.172-24.04,47.7,47.7,0,0,0,7.97,4.3A65.571,65.571,0,0,0,421.737,336Zm53.284-88.071a8,8,0,0,0-.851,8.879A32.009,32.009,0,0,1,446,304a31.67,31.67,0,0,1-19.633-6.742,8,8,0,0,0-3.877-1.621,41.9,41.9,0,0,1-19.685-8.033,8,8,0,0,0-9.61,0,41.9,41.9,0,0,1-19.685,8.033,8,8,0,0,0-3.877,1.621A31.67,31.67,0,0,1,350,304a32.009,32.009,0,0,1-28.17-47.192,8,8,0,0,0-.851-8.879,21.97,21.97,0,0,1-1.96-25.043l.02-.034a22.071,22.071,0,0,1,4.9-5.766,8,8,0,0,0,2.665-7.99,21.987,21.987,0,0,1,19.93-27.04,8,8,0,0,0,6.405-3.986,51.985,51.985,0,0,1,90.13,0,8,8,0,0,0,6.405,3.986,21.985,21.985,0,0,1,19.93,27.038,8,8,0,0,0,2.665,7.992A21.954,21.954,0,0,1,480,234,21.726,21.726,0,0,1,475.021,247.929Z"/><path d="M398,168a32.054,32.054,0,0,0-30.177,21.334,8,8,0,0,0,15.086,5.332,16.009,16.009,0,0,1,30.182,0,8,8,0,0,0,15.086-5.332A32.054,32.054,0,0,0,398,168Z"/><path d="M358,224a8,8,0,0,0,0-16,24,24,0,0,0,0,48,8,8,0,0,0,0-16,8,8,0,0,1,0-16Z"/><path d="M72,360H56a8,8,0,0,0,0,16H72a8,8,0,0,0,0-16Z"/><path d="M440,376h16a8,8,0,0,0,0-16H440a8,8,0,0,0,0,16Z"/><path d="M264,360H248a8,8,0,0,0,0,16h16a8,8,0,0,0,0-16Z"/><path d="M204.6,320a8,8,0,0,0,5.657-13.657,7.686,7.686,0,0,1-1.442-8.884l2.94-5.881a8,8,0,0,0-14.31-7.156L194.5,290.3a23.667,23.667,0,0,0,4.439,27.354A7.978,7.978,0,0,0,204.6,320Z"/></g></svg>
