<?xml version="1.0" encoding="iso-8859-1"?>
<!-- Generator: Adobe Illustrator 19.0.0, SVG Export Plug-In . SVG Version: 6.00 Build 0)  -->
<svg version="1.1" id="Capa_1" xmlns="http://www.w3.org/2000/svg" xmlns:xlink="http://www.w3.org/1999/xlink" x="0px" y="0px"
	 viewBox="0 0 512 512" style="enable-background:new 0 0 512 512;" xml:space="preserve">
<g>
	<g>
		<path d="M436.467,76.507h-7.644V49.282c0-26.014-19.185-47.177-42.699-47.177L76.206,0C34.557,0,0.673,37.838,0.673,84.344
			c0,0,0.014,192.13,0.018,192.248c0.187,20.877,7.207,40.799,19.843,56.177c4.983,6.063,10.657,11.217,16.837,15.356
			c-2.872,1.527-5.741,3.328-8.545,5.452C9.698,368.054,0,392.06,0,424.928c0,46.507,33.884,84.344,75.459,84.344L436.391,512
			c0.025,0,0.05,0,0.076,0c23.582,0,42.768-21.162,42.768-47.176c0-16.018-5.596-27.098-13.077-34.524
			C493.09,417.395,512,387.49,512,352.746c0-0.422,0-193.04,0-193.04C512,113.83,478.116,76.507,436.467,76.507z M386.057,22.125
			c12.553,0,22.766,12.183,22.766,27.157v38.301l-58.028-65.697L386.057,22.125z M335.116,37.31l46.774,51.145
			c-0.015,0-0.029,0-0.044,0c-17.755,0-34.901,6.489-46.73,12.324V37.31z M20.672,84.344h0.001
			c0-35.468,24.912-64.324,55.465-64.324l238.977,1.624v96.403c0,3.732,2.075,7.154,5.382,8.879
			c1.453,0.757,3.038,1.131,4.617,1.131c2.016,0,4.023-0.609,5.735-1.81c0.254-0.178,25.658-17.772,50.996-17.772
			c10.798,0,19.659,3.202,26.978,9.751v82.532c-6.584-4.589-14.366-7.256-22.699-7.256l-309.919-2.107
			c-21.941,0-41.721,10.51-55.533,27.248V84.344z M439.071,416.994c-0.589-0.108-334.522-0.173-334.522-0.173
			c-5.523,0-10,4.481-10,10.01c0,5.527,4.477,10.01,10,10.01c0,0,330.739,0.192,331.254,0.227c0.057,0.004,6.011,0.543,11.848,4.1
			c7.794,4.748,11.583,12.487,11.583,23.657c0,14.96-10.194,27.134-22.733,27.156l-360.968-2.728
			C44.913,489.252,20,460.396,20,424.928c0-55.971,31.68-64.831,50.884-65.051c1.763,0.137,350.241-0.086,350.241-0.086
			c5.523,0,10-4.482,10-10.01c0-5.527-4.477-10.01-10-10.01c0,0-347.48,0.085-349.441,0.082
			c-28.563-2.672-50.891-30.605-51.006-63.857c0.115-35.356,24.978-64.081,55.46-64.081l309.918,2.107
			c12.49,0,22.659,12.061,22.762,26.931c-0.068,2.893-1.24,27.609-19.553,27.609c-0.02,0-284.716-0.407-284.716-0.407
			c-5.523,0-10,4.482-10,10.01s4.477,10.01,10,10.01c0,0,333.781,0.275,334.705,0.328c28.612,1.684,51.996,29.136,52.709,62.636
			c0,0.017,0.003,0.032,0.003,0.048c0.011,0.52,0.034,1.037,0.034,1.56C492,387.202,468.487,415.412,439.071,416.994z
			 M492.001,295.563H492c-12.072-32.828-71.117-27.337-71.117-27.337c4.903-7.567,7.784-16.81,7.927-26.776
			c0.002-0.091,0.014-144.923,0.014-144.923h7.644c30.621,0,55.533,28.342,55.533,63.18V295.563z"/>
	</g>
</g>
<g>
</g>
<g>
</g>
<g>
</g>
<g>
</g>
<g>
</g>
<g>
</g>
<g>
</g>
<g>
</g>
<g>
</g>
<g>
</g>
<g>
</g>
<g>
</g>
<g>
</g>
<g>
</g>
<g>
</g>
</svg>
