<?xml version="1.0" encoding="iso-8859-1"?>
<!-- Generator: Adobe Illustrator 19.0.0, SVG Export Plug-In . SVG Version: 6.00 Build 0)  -->
<svg version="1.1" id="Capa_1" xmlns="http://www.w3.org/2000/svg" xmlns:xlink="http://www.w3.org/1999/xlink" x="0px" y="0px"
	 viewBox="0 0 512 512" style="enable-background:new 0 0 512 512;" xml:space="preserve">
<g>
	<g>
		<path d="M488.558,137.426l14.801-14.932c11.104-11.2,11.567-29.931,1.033-41.752c-5.076-5.697-11.918-8.909-19.266-9.045
			c-7.327-0.128-14.242,2.805-19.492,8.276l-14.927,15.561c-91.154-28.93-193.665-29.275-194.709-29.275
			c-0.607,0-61.496,0.155-130.529,13.3c-4.087,0.777-6.769,4.721-5.991,8.809c0.779,4.086,4.724,6.769,8.809,5.99
			c67.576-12.867,127.12-13.034,127.711-13.034c1.035,0,104.542,0.349,194.525,29.983c2.755,0.904,5.785,0.152,7.791-1.94
			l18.192-18.964c2.307-2.406,5.278-3.689,8.343-3.644c3.099,0.057,6.046,1.479,8.296,4.004c5.249,5.891,5.027,15.565-0.485,21.126
			l-17.818,17.974c-1.877,1.895-2.613,4.64-1.935,7.219c5.558,21.134,12.785,53.773,15.652,89.253
			c0.318,3.94,3.615,6.926,7.499,6.926c0.204,0,0.409-0.008,0.615-0.024c4.147-0.335,7.236-3.968,6.902-8.115
			C500.804,190.811,494.095,159.147,488.558,137.426z"/>
	</g>
</g>
<g>
	<g>
		<path d="M503.36,389.508l-14.801-14.933c7.686-30.125,16.31-73.891,16.31-118.574c0-4.161-3.372-7.532-7.532-7.532
			s-7.532,3.371-7.532,7.532c0,47.565-10.585,94.923-16.896,118.918c-0.678,2.578,0.058,5.324,1.935,7.218l17.818,17.976
			c5.512,5.56,5.733,15.233,0.484,21.125c-2.25,2.526-5.196,3.948-8.296,4.004c-3.036,0.046-6.035-1.237-8.343-3.644l-18.191-18.964
			c-2.009-2.092-5.039-2.846-7.792-1.94c-89.905,29.607-193.49,29.983-194.523,29.983c-0.039,0-3.938-0.004-10.743-0.219
			c-4.166-0.138-7.635,3.131-7.766,7.29c-0.132,4.158,3.132,7.636,7.29,7.766c7.072,0.224,11.052,0.227,11.219,0.227
			c1.041,0,103.553-0.344,194.709-29.274l14.927,15.561c5.249,5.471,12.18,8.42,19.492,8.276c7.348-0.136,14.189-3.347,19.266-9.045
			C514.926,419.436,514.462,400.707,503.36,389.508z"/>
	</g>
</g>
<g>
	<g>
		<path d="M214.652,428.816c-39.839-2.937-98.752-10.198-153.177-28.122c-2.756-0.905-5.785-0.152-7.792,1.94l-18.192,18.964
			c-2.308,2.405-5.275,3.7-8.343,3.644c-3.099-0.057-6.046-1.479-8.296-4.004c-5.249-5.891-5.027-15.565,0.485-21.126l17.818-17.975
			c1.877-1.894,2.613-4.639,1.935-7.218C32.782,350.923,22.195,303.565,22.195,256s10.585-94.923,16.896-118.919
			c0.678-2.578-0.058-5.324-1.935-7.217l-17.818-17.976c-5.512-5.56-5.733-15.233-0.484-21.125c2.25-2.526,5.195-3.948,8.296-4.004
			c3.043-0.041,6.035,1.236,8.343,3.644l18.192,18.964c2.008,2.091,5.037,2.844,7.791,1.94c11.736-3.866,24.341-7.438,37.465-10.62
			c4.042-0.981,6.525-5.053,5.545-9.096c-0.98-4.042-5.052-6.523-9.095-5.545c-11.845,2.872-23.292,6.058-34.099,9.488
			L46.364,79.971c-5.25-5.47-12.163-8.395-19.492-8.276c-7.348,0.136-14.189,3.347-19.266,9.045
			C-2.927,92.562-2.463,111.293,8.64,122.493l14.801,14.932C15.754,167.551,7.13,211.317,7.13,256s8.624,88.449,16.31,118.574
			L8.64,389.507c-11.103,11.2-11.567,29.93-1.033,41.752c5.076,5.697,11.918,8.909,19.266,9.045
			c7.328,0.14,14.243-2.805,19.492-8.276l14.926-15.561c54.581,17.335,112.672,24.456,152.256,27.372
			c0.189,0.014,0.376,0.021,0.561,0.021c3.909,0,7.212-3.019,7.504-6.979C221.916,432.733,218.801,429.122,214.652,428.816z"/>
	</g>
</g>
<g>
</g>
<g>
</g>
<g>
</g>
<g>
</g>
<g>
</g>
<g>
</g>
<g>
</g>
<g>
</g>
<g>
</g>
<g>
</g>
<g>
</g>
<g>
</g>
<g>
</g>
<g>
</g>
<g>
</g>
</svg>
