<svg id="Capa_1" enable-background="new 0 0 512 512" height="512" viewBox="0 0 512 512" width="512" xmlns="http://www.w3.org/2000/svg"><g><path d="m208.935 105.006c-7.301-50.82-51.122-90.005-103.93-90.005-57.9 0-105.005 47.105-105.005 105.005v271.987c0 57.9 47.106 105.005 105.006 105.005h406.994v-391.992zm-178.935 15c0-41.358 33.647-75.005 75.006-75.005 41.358 0 75.005 33.647 75.005 75.005v198.581c-19.074-19.485-45.649-31.599-75.005-31.599s-55.932 12.114-75.006 31.599zm0 271.987c0-41.358 33.647-75.005 75.006-75.005 41.358 0 75.005 33.647 75.005 75.005s-33.647 75.006-75.005 75.006c-41.359 0-75.006-33.647-75.006-75.006zm452 75.006h-303.588c19.485-19.074 31.599-45.649 31.599-75.005v-256.988h271.989z"/><path d="m105.006 346.988c-24.817 0-45.006 20.189-45.006 45.006 0 24.816 20.189 45.005 45.006 45.005 24.816 0 45.005-20.189 45.005-45.005 0-24.817-20.189-45.006-45.005-45.006zm0 60.011c-8.274 0-15.006-6.731-15.006-15.005s6.731-15.006 15.006-15.006c8.274 0 15.005 6.731 15.005 15.006 0 8.274-6.731 15.005-15.005 15.005z"/></g></svg>