<svg id="icons" enable-background="new 0 0 64 64" height="512" viewBox="0 0 64 64" width="512" xmlns="http://www.w3.org/2000/svg"><g><g><path d="m25 64c-4.963 0-9-4.037-9-9 0-.553.447-1 1-1s1 .447 1 1c0 3.859 3.141 7 7 7 .553 0 1 .447 1 1s-.447 1-1 1z"/></g><g><path d="m41 64c-.553 0-1-.447-1-1s.447-1 1-1c3.859 0 7-3.141 7-7 0-.553.447-1 1-1s1 .447 1 1c0 4.963-4.037 9-9 9z"/></g><g><path d="m41 64h-16c-.553 0-1-.447-1-1s.447-1 1-1h16c.553 0 1 .447 1 1s-.447 1-1 1z"/></g><g><path d="m17 56c-.553 0-1-.447-1-1v-54c0-.552.447-1 1-1s1 .448 1 1v54c0 .553-.447 1-1 1z"/></g><g><path d="m49 56c-.553 0-1-.447-1-1v-54c0-.552.447-1 1-1s1 .448 1 1v54c0 .553-.447 1-1 1z"/></g><g><path d="m17 34.002c-.256 0-.512-.098-.707-.293-.391-.391-.391-1.023 0-1.414l32-32.001c.391-.391 1.023-.391 1.414 0s.391 1.023 0 1.414l-32 32.001c-.195.195-.451.293-.707.293z"/></g><g><path d="m14.999 37c-.19 0-.384-.055-.554-.168-.46-.307-.584-.928-.277-1.387l2-2.999c.305-.458.928-.584 1.387-.277.46.307.584.928.277 1.387l-2 2.998c-.192.29-.51.446-.833.446z"/></g><g><path d="m49 56h-32c-.553 0-1-.447-1-1s.447-1 1-1h32c.553 0 1 .447 1 1s-.447 1-1 1z"/></g><g><path d="m49 48h-32c-.553 0-1-.447-1-1s.447-1 1-1h32c.553 0 1 .447 1 1s-.447 1-1 1z"/></g><g><path d="m49 40h-32c-.553 0-1-.447-1-1s.447-1 1-1h32c.553 0 1 .447 1 1s-.447 1-1 1z"/></g><g><path d="m49 34.002h-32c-.553 0-1-.447-1-1 0-.552.447-1 1-1h32c.553 0 1 .448 1 1 0 .553-.447 1-1 1z"/></g><g><path d="m49 2h-32c-.553 0-1-.448-1-1s.447-1 1-1h32c.553 0 1 .448 1 1s-.447 1-1 1z"/></g><g><path d="m30.994 20.002h-8.994c-.553 0-1-.448-1-1v-13c0-.552.447-1 1-1h21.998c.553 0 1 .448 1 1s-.447 1-1 1h-20.998v11h7.994c.553 0 1 .448 1 1s-.447 1-1 1z"/></g></g></svg>