<svg id="Outline" height="512" viewBox="0 0 512 512" width="512" xmlns="http://www.w3.org/2000/svg"><path d="m472 120h-281.462a88 88 0 0 0 -174.538 16v240a88.1 88.1 0 0 0 88 88h368a24.028 24.028 0 0 0 24-24v-296a24.028 24.028 0 0 0 -24-24zm-440 16a72 72 0 0 1 144 0v189.462a87.921 87.921 0 0 0 -144 0zm0 240a72 72 0 1 1 72 72 72.081 72.081 0 0 1 -72-72zm448 64a8.009 8.009 0 0 1 -8 8h-317.462a87.958 87.958 0 0 0 37.462-72v-240h280a8.009 8.009 0 0 1 8 8z"/><path d="m104 352a24 24 0 1 0 24 24 24.028 24.028 0 0 0 -24-24zm0 32a8 8 0 1 1 8-8 8.009 8.009 0 0 1 -8 8z"/><path d="m104 320a56 56 0 1 0 56 56 56.063 56.063 0 0 0 -56-56zm0 96a40 40 0 1 1 40-40 40.045 40.045 0 0 1 -40 40z"/><rect height="16" rx="8" width="16" x="448" y="192"/><rect height="16" rx="8" width="16" x="448" y="224"/><rect height="16" rx="8" width="16" x="448" y="256"/><rect height="16" rx="8" width="16" x="448" y="288"/><rect height="16" rx="8" width="16" x="448" y="320"/><rect height="16" rx="8" width="16" x="448" y="352"/><rect height="16" rx="8" width="16" x="448" y="384"/></svg>