<svg id="_x33_0" enable-background="new 0 0 64 64" height="512" viewBox="0 0 64 64" width="512" xmlns="http://www.w3.org/2000/svg"><g><circle cx="29" cy="15" r="1"/><circle cx="35" cy="15" r="1"/><path d="m34 17.764c-.381.762-1.147 1.236-2 1.236s-1.619-.474-2-1.236l-.105-.211-1.789.895.105.211c.722 1.444 2.174 2.341 3.789 2.341s3.067-.897 3.789-2.342l.105-.211-1.789-.895z"/><path d="m54.354 41.277c-.214-6.812-2.8-13.374-7.275-18.506-.552-1.272-1.338-2.445-2.348-3.455l-1.297-1.297c.351-.595.566-1.279.566-2.019 0-.901-.31-1.724-.814-2.393l.365-1.098c.298-.893.449-1.823.449-2.766 0-4.821-3.922-8.743-8.743-8.743h-10.702c-1.27 0-2.464.494-3.361 1.393-.77.769-1.194 1.793-1.194 2.881 0 .629.148 1.258.43 1.822l.164.328c-1.563.642-2.594 2.164-2.594 3.872 0 1.401.696 2.703 1.863 3.481l.288.192c-.088.331-.151.672-.151 1.031 0 .74.215 1.424.567 2.019l-1.297 1.297c-1.01 1.01-1.796 2.183-2.348 3.455-4.475 5.133-7.061 11.694-7.275 18.506l-.678 21.723h46.063zm-2 .063.207 6.616c-1.998-.223-3.561-1.9-3.561-3.956 0-1.952 1.406-3.576 3.258-3.925.033.422.082.841.096 1.265zm-5.354-7.34c0 1.103-.897 2-2 2-.296 0-.584-.066-.847-.189l1.12-1.293c.48-.554.895-1.153 1.253-1.781.291.351.474.787.474 1.263zm-1-6.791c0 2.203-.795 4.334-2.238 6l-5.554 6.408c-1.068 1.232-2.015 2.56-2.86 3.952-.36-1.275-1.003-2.44-1.854-3.43.499-.325 1.033-.593 1.606-.784l1.9-.634-.003-1.872c-.008-1.688.39-3.385 1.188-4.982 1.061-2.124 2.832-3.844 4.99-4.845l.247-.115-.846-1.813-.245.114c-.523.243-1.022.53-1.505.842-1.262-1.056-2.158-2.468-2.584-4.061.48-.599.875-1.268 1.168-1.989h.59c.74 0 1.424-.215 2.019-.567l1.297 1.297c1.731 1.731 2.684 4.032 2.684 6.479zm-10.04 20.408-.014-.115 1.782-1.141c.37-.236.796-.361 1.236-.361.875 0 1.661.486 2.053 1.271l.367.729h1.616c1.103 0 2 .897 2 2s-.897 2-2 2h-4.81c-.514-1.562-1.264-3.047-2.23-4.383zm-8.126-16.111c1.163.949 2.622 1.494 4.166 1.494 1.541 0 2.997-.543 4.159-1.488-.758 1.68-1.171 3.513-1.162 5.346l.001.421-.531.178c-.897.299-1.727.733-2.48 1.286-.74-.544-1.56-.989-2.454-1.287l-.531-.177.001-.421c.009-1.814-.398-3.629-1.169-5.352zm2.166-5.36v-1.409c.641.166 1.308.263 2 .263s1.359-.097 2-.263v1.409c0 1.263.587 2.413 1.561 3.161-.871 1.065-2.169 1.693-3.561 1.693s-2.69-.628-3.561-1.694c.974-.747 1.561-1.898 1.561-3.16zm8.096 2.284-.991-.495c-.681-.341-1.105-1.027-1.105-1.789v-2.228c.219-.127.431-.264.636-.41.554 1.445 1.435 2.734 2.58 3.781-.394.357-.772.734-1.12 1.141zm-.096-11.43c0 3.309-2.691 6-6 6s-6-2.691-6-6v-4.528c0-1.143.636-2.171 1.658-2.683l.654-.327c.456.938 1.373 1.612 2.479 1.723l6.31.631c.512.05.899.478.899.994zm-10.636 6.507c.205.147.417.283.636.41v2.228c0 .763-.424 1.448-1.105 1.789l-.986.493c-.348-.406-.726-.783-1.122-1.142 1.143-1.045 2.023-2.334 2.577-3.778zm12.636-6.507v-3c1.103 0 2 .897 2 2s-.897 2-2 2h-.069c.041-.328.069-.661.069-1zm-19.027-3.887c-.61-.406-.973-1.086-.973-1.817 0-.942.601-1.775 1.494-2.073l1.916-.639-1.191-2.381c-.143-.287-.219-.608-.219-.929 0-.555.216-1.076.607-1.468.513-.512 1.223-.806 1.948-.806h10.702c3.718 0 6.743 3.025 6.743 6.743 0 .728-.116 1.444-.347 2.133l-.142.425c-.466-.191-.976-.301-1.511-.301h-.123c-.325-1.164-1.319-2.049-2.578-2.175l-6.309-.631c-.564-.056-.99-.527-.99-1.094 0-.607.493-1.1 1.1-1.1h.9v-2h-.9c-1.445 0-2.662.994-3.004 2.334l-1.332.666c-1.562.782-2.571 2.288-2.731 4h-.033c-1.125 0-2.139.47-2.867 1.22zm1.027 2.887c0-1.103.897-2 2-2v3c0 .339.028.672.069 1h-.069c-1.103 0-2-.897-2-2zm-1.316 4.73 1.297-1.297c.595.352 1.279.567 2.019.567h.589c.293.722.688 1.39 1.168 1.989-.426 1.593-1.322 3.004-2.584 4.06-.482-.311-.98-.598-1.503-.84l-.247-.115-.846 1.813.249.116c2.156 1 3.928 2.72 5.027 4.921.76 1.521 1.157 3.217 1.149 4.905l-.002 1.872 1.9.633c2.543.849 4.4 3.114 4.732 5.773l.408 3.261.16.212c1.806 2.408 2.8 5.392 2.8 8.4v4h-3.171l-1.451-7.734c-.945-5.047-3.223-9.767-6.587-13.648l-5.554-6.407c-1.442-1.668-2.237-3.799-2.237-6.002 0-2.447.953-4.748 2.684-6.479zm9.73 32.905.001.007c-.431.233-.911.358-1.415.358-1.654 0-3-1.346-3-3 0-1.553 1.19-2.819 2.703-2.97.766 1.796 1.349 3.672 1.711 5.605zm-12.941-20.898c.359.629.774 1.228 1.254 1.782l1.12 1.292c-.263.123-.551.189-.847.189-1.103 0-2-.897-2-2 0-.476.183-.912.473-1.263zm-5.732 7.338c1.852.349 3.259 1.973 3.259 3.925 0 2.056-1.564 3.734-3.561 3.956l.207-6.616c.013-.424.062-.843.095-1.265zm-.365 9.906c3.133-.195 5.624-2.799 5.624-5.981 0-2.979-2.184-5.45-5.033-5.915.581-3.827 1.956-7.491 4.039-10.747.014 1.19.222 2.358.6 3.468-.994.744-1.606 1.913-1.606 3.194 0 2.206 1.794 4 4 4 .782 0 1.526-.246 2.168-.663l3.112 3.591c1.388 1.601 2.565 3.363 3.536 5.229-2.184.535-3.816 2.496-3.816 4.843 0 2.757 2.243 5 5 5 .617 0 1.223-.124 1.793-.343l1.002 5.343h-6.885c-.478-2.833-2.942-5-5.91-5s-5.431 2.167-5.91 5h-2.059zm11.482 11.019h-7.716c.447-1.721 1.999-3 3.858-3s3.411 1.279 3.858 3zm18.284 0c.447-1.721 1.999-3 3.858-3s3.411 1.279 3.858 3zm9.768 0c-.478-2.833-2.942-5-5.91-5s-5.431 2.167-5.91 5h-.09v-4c0-1.009-.109-2.012-.3-3h4.3c2.206 0 4-1.794 4-4s-1.794-4-4-4h-.406c-.781-1.244-2.137-2-3.63-2-.615 0-1.217.131-1.771.382.753-1.213 1.59-2.374 2.527-3.455l3.112-3.591c.641.418 1.386.664 2.168.664 2.206 0 4-1.794 4-4 0-1.281-.612-2.45-1.606-3.194.378-1.11.586-2.278.6-3.468 2.083 3.255 3.458 6.92 4.039 10.747-2.849.465-5.033 2.936-5.033 5.915 0 3.182 2.491 5.785 5.624 5.981l.345 11.019z"/></g></svg>