<?xml version="1.0" encoding="iso-8859-1"?>
<!-- Generator: Adobe Illustrator 19.0.0, SVG Export Plug-In . SVG Version: 6.00 Build 0)  -->
<svg version="1.1" id="Capa_1" xmlns="http://www.w3.org/2000/svg" xmlns:xlink="http://www.w3.org/1999/xlink" x="0px" y="0px"
	 viewBox="0 0 480 480" style="enable-background:new 0 0 480 480;" xml:space="preserve">
<g>
	<g>
		<path d="M456,28h-11.424c-2-4.584-4.82-8.764-8.32-12.336C428.748,8.196,418.59,4.003,408,4H104
			c-18.262,0.056-35.349,9.013-45.784,24H24C10.745,28,0,38.745,0,52s10.745,24,24,24h24v392c0,4.418,3.582,8,8,8h320
			c4.418,0,8-3.582,8-8v-16h56c4.418,0,8-3.582,8-8V76h8c13.255,0,24-10.745,24-24S469.255,28,456,28z M50.184,44.656
			c-0.472,1.648-0.8,3.344-1.112,5.04c-0.16,0.848-0.392,1.68-0.512,2.536C48.196,54.806,48.009,57.401,48,60H24
			c-4.418,0-8-3.582-8-8s3.582-8,8-8h26.328C50.264,44.216,50.248,44.44,50.184,44.656z M368,460H64v-64h304V460z M368,380H64v-32
			h304V380z M375.336,21.04c-0.488,0.696-0.936,1.416-1.376,2.144c-0.648,1.064-1.248,2.152-1.8,3.28
			c-0.368,0.8-0.72,1.536-1.048,2.328c-0.2,0.496-0.464,0.944-0.64,1.44l-0.048,0.064c-0.46,0.508-0.852,1.072-1.168,1.68
			c-0.218,0.279-0.416,0.573-0.592,0.88c-0.435,0.991-0.661,2.062-0.664,3.144v296H64V60c-0.045-7.035,1.828-13.949,5.416-20
			C76.551,27.642,89.73,20.02,104,20h272C375.752,20.328,375.568,20.704,375.336,21.04z M390.256,27.856
			c1.006-1.108,2.115-2.118,3.312-3.016c0.312-0.24,0.664-0.424,0.984-0.64c0.929-0.637,1.902-1.207,2.912-1.704
			c0.464-0.232,0.936-0.432,1.416-0.624c0.994-0.409,2.015-0.749,3.056-1.016c0.464-0.12,0.92-0.264,1.392-0.352
			c1.537-0.322,3.102-0.491,4.672-0.504c6.339,0,12.422,2.501,16.928,6.96c0.328,0.336,0.672,0.688,0.96,1.04h-35.752
			L390.256,27.856z M432,436h-48V76h48V436z M456,60h-72V44h72c4.418,0,8,3.582,8,8S460.418,60,456,60z"/>
	</g>
</g>
<g>
</g>
<g>
</g>
<g>
</g>
<g>
</g>
<g>
</g>
<g>
</g>
<g>
</g>
<g>
</g>
<g>
</g>
<g>
</g>
<g>
</g>
<g>
</g>
<g>
</g>
<g>
</g>
<g>
</g>
</svg>
