<svg id="Capa_1" enable-background="new 0 0 512 512" height="512" viewBox="0 0 512 512" width="512" xmlns="http://www.w3.org/2000/svg"><g><path d="m497 20c-8.284 0-15 6.716-15 15v45h-31v-25c0-30.327-24.673-55-55-55h-280c-30.327 0-55 24.673-55 55v25h-31v-45c0-8.284-6.716-15-15-15s-15 6.716-15 15v60c0 8.284 6.716 15 15 15h46v287c0 8.284 6.716 15 15 15h65v85c0 8.284 6.716 15 15 15h280c8.284 0 15-6.716 15-15v-387h46c8.284 0 15-6.716 15-15v-60c0-8.284-6.716-15-15-15zm-326 372h250v30h-250zm225-362c13.785 0 25 11.215 25 25v307h-250v-307c0-8.911-2.144-17.326-5.922-24.779-.036-.073-.058-.148-.095-.221zm-305 25c0-13.785 11.215-25 25-25s25 11.215 25 25v25h-50zm0 327v-272h50v272zm330 100h-250v-30h250z"/></g></svg>