<svg height="512" viewBox="0 0 58 60" width="512" xmlns="http://www.w3.org/2000/svg"><g id="Page-1" fill="none" fill-rule="evenodd"><g id="024---Clean-Feet" fill="rgb(0,0,0)" fill-rule="nonzero"><path id="Shape" d="m45.5 55.006c0 .5522847.4477153 1 1 1 1.4791182.0531232 2.9436133-.3084976 4.228-1.044 1.4236549-.9426194 2.4271123-2.399783 2.8-4.066.0946977-.3518311-.0094565-.7273232-.2718612-.980101-.2624046-.2527778-.6415256-.3428313-.9895733-.2350555s-.6099323.3963218-.6835655.7531565c-.2518705 1.1582306-.9411084 2.1745342-1.924 2.837-.9670085.5275066-2.0594562.7816044-3.16.735-.5518942.0005519-.9990003.4481055-.999 1z"/><path id="Shape" d="m2.04 51.3c-1.41498505 1.0609448-2.1766479 2.7812197-2.011 4.542.13232678 1.538555 1.08972323 2.8838885 2.5 3.513 1.0963046.4649343 2.28085573.685054 3.471.645h15c.901226.0013117 1.7857028-.2434926 2.558-.708 3.0086887 1.5358052 6.6924862.5014513 8.462-2.376.452-.026.9-.038 1.354-.026 1.434886.0242056 2.8567349.2770463 4.212.749.578.212 1.13.461 1.682.709.9835566.4773548 2.0101482.8604014 3.066 1.144 1.3574119.3325599 2.7494525.5030824 4.147.508 2.2414752.0566617 4.4537006-.5182258 6.384-1.659 2.3048232-1.503546 3.9382563-3.8408103 4.558-6.522.7810064-2.9383931.1758221-6.072607-1.643-8.509-4.02-5.014-6.622-16.79-3.815-27.071 1.835-6.718 2.205-10.916 2.195-13.258-.0174726-1.64647114-1.3534511-2.97398838-3-2.981h-21.611c-.8025817-.00249525-1.5725392.31744968-2.137.888-.5591165.55724642-.8711156 1.31562768-.866 2.105.1048703 6.91340296.8007387 13.8051763 2.08 20.6.12.661.255 1.323.39 1.986.5774431 2.2704388.8355936 4.6102853.767 6.952-.1899151 2.3993422-1.0657079 4.6934818-2.523 6.609-1.60701-.3484859-3.2866149-.0210129-4.6450109.905639s-2.2761159 2.3709862-2.5379891 3.994361c-.1912114-.0263286-.3839848-.0396924-.577-.04-2.4841391.0027556-4.4972444 2.0158609-4.5 4.5v.024c-2.2017544.5509972-4.4353007.9661136-6.688 1.243-.382.044-.772.077-1.167.109-1.80138913-.0123649-3.57010148.4810036-5.105 1.424zm29.737-18.623c.0846618-2.5250841-.1846185-5.0495872-.8-7.5-.133-.649-.265-1.3-.382-1.943-1.2579096-6.6793876-1.9430659-13.45400527-2.048-20.25-.0008967-.25666395.1010226-.50299891.283-.684.1892562-.19308634.4486326-.30131012.719-.3h21.611c.550922.00327613.9967239.44907798 1 1 .01 2.213-.35 6.216-2.125 12.722-3.012 11.028-.235 23.327 4.185 28.843 1.4334761 1.9543354 1.8963537 4.4561575 1.257 6.794-.4956899 2.1761042-1.8149689 4.0756366-3.681 5.3-3.173 2-7.345 1.293-8.992.894-.936047-.2559585-1.8460303-.5991273-2.718-1.025-.579-.26-1.178-.529-1.818-.764-1.5563557-.5443546-3.1894776-.8373579-4.838-.868-.193-.007-.389 0-.584 0 .5136142-2.3103505-.2770946-4.716622-2.061-6.272 1.0160867-1.3426086 1.4199608-3.0509688 1.1126517-4.706442-.3073091-1.6554731-1.2974013-3.1050683-2.7276517-3.993558 1.5100021-2.1346113 2.4111496-4.6396423 2.607-7.247zm-12.277 13.323c.3724556.0008969.7396693.0878235 1.073.254.3355166.1670454.7362738.1324501 1.0381999-.0896225.301926-.2220726.4543234-.5943335.3948001-.9643775-.0072526-.0664054-.0092588-.1332792-.006-.2-.0014638-1.845363 1.2596759-3.4522305 3.0525235-3.8893396s3.6520404.408999 4.5000799 2.0479609c.8480395 1.6389618.4648033 3.6453583-.9276034 4.8563787-.2449403.2125273-.3716144.5306346-.3398186.8533614.0317957.3227269.2181129.6099976.4998186.7706386 1.3765793.7973787 2.2214982 2.2701697 2.215 3.861.0025948 1.6496147-.8989965 3.167995-2.3486053 3.9553131-1.4496087.7873181-3.2140898.7169472-4.5963947-.1833131-.3610426-.2351131-.8320848-.2125482-1.169.056-.8293878.7366963-1.997614.9555779-3.037442.5691024s-1.7815135-1.3152188-1.9284165-2.4147756c-.146903-1.0995567.3249573-2.1904323 1.2268585-2.8363268.2950049-.2317619.435475-.6091431.3638072-.9773892-.0716678-.3682462-.3434158-.6654017-.7038072-.7696108-1.191354-.3492818-1.9458982-1.5199171-1.77201-2.749179.1738883-1.2292619 1.2235207-2.1446829 2.46501-2.149821zm-10.943 5.752c2.3266779-.2859153 4.6336626-.7140499 6.908-1.282.3277212.6712087.8161936 1.251055 1.422 1.688-1.2319659 1.7694724-1.1757271 4.1331216.139 5.842h-11.026c-.90042617.0375738-1.79840058-.1189663-2.633-.459-.76497941-.3367201-1.28290333-1.0667315-1.348-1.9-.10109604-1.0579658.35581628-2.0922698 1.206-2.73 1.24378956-.7103693 2.65694275-1.0701376 4.089-1.041.416-.035.829-.07 1.243-.118z"/><path id="Shape" d="m11.5 29c-1.93299662 0-3.5 1.5670034-3.5 3.5s1.56700338 3.5 3.5 3.5c1.9329966 0 3.5-1.5670034 3.5-3.5s-1.5670034-3.5-3.5-3.5zm0 5c-.8284271 0-1.5-.6715729-1.5-1.5s.6715729-1.5 1.5-1.5 1.5.6715729 1.5 1.5-.6715729 1.5-1.5 1.5z"/><path id="Shape" d="m19 40c1.6568542 0 3-1.3431458 3-3s-1.3431458-3-3-3-3 1.3431458-3 3 1.3431458 3 3 3zm0-4c.5522847 0 1 .4477153 1 1s-.4477153 1-1 1-1-.4477153-1-1 .4477153-1 1-1z"/><path id="Shape" d="m9 42c0 1.6568542 1.3431458 3 3 3s3-1.3431458 3-3-1.3431458-3-3-3-3 1.3431458-3 3zm4 0c0 .5522847-.4477153 1-1 1s-1-.4477153-1-1 .4477153-1 1-1 1 .4477153 1 1z"/><path id="Shape" d="m38.5 51c2.4852814 0 4.5-2.0147186 4.5-4.5s-2.0147186-4.5-4.5-4.5-4.5 2.0147186-4.5 4.5c.0027556 2.4841391 2.0158609 4.4972444 4.5 4.5zm0-7c1.3807119 0 2.5 1.1192881 2.5 2.5s-1.1192881 2.5-2.5 2.5-2.5-1.1192881-2.5-2.5 1.1192881-2.5 2.5-2.5z"/><path id="Shape" d="m38 38c1.0369455-.0010655 2.0329548-.4047755 2.778-1.126 2.4441788.50841 4.9477757-.5497616 6.2864149-2.6570196 1.3386391-2.1072579 1.2325698-4.8232244-.2663351-6.8196649-1.4989049-1.9964406-4.0774021-2.8561363-6.4744861-2.1586557s-4.1118087 2.8063769-4.3055937 5.2953402c-1.5753004.8976713-2.34855 2.7436345-1.8833359 4.4960503.465214 1.7524158 2.052222 2.9718012 3.8653359 2.9699497zm-.667-5.874c.4641961-.1660806.7443956-.6391009.667-1.126 0-2.209139 1.790861-4 4-4s4 1.790861 4 4-1.790861 4-4 4c-.429549.0001255-.8564404-.0673672-1.265-.2-.4145071-.1329978-.8674324.0174381-1.12.372-.3698462.5242927-.9734112.8337366-1.615.828-1.1045695 0-2-.8954305-2-2-.0017592-.8453309.5338727-1.5983499 1.333-1.874z"/></g></g></svg>