<?xml version="1.0" encoding="iso-8859-1"?>
<!-- Generator: Adobe Illustrator 19.0.0, SVG Export Plug-In . SVG Version: 6.00 Build 0)  -->
<svg version="1.1" id="Capa_1" xmlns="http://www.w3.org/2000/svg" xmlns:xlink="http://www.w3.org/1999/xlink" x="0px" y="0px"
	 viewBox="0 0 512 512" style="enable-background:new 0 0 512 512;" xml:space="preserve">
<g>
	<g>
		<path d="M373.333,298.667H320v-96c0-5.896-4.771-10.667-10.667-10.667v-74.667c0-5.896-4.771-10.667-10.667-10.667
			C298.667,47.854,250.813,0,192,0S85.333,47.854,85.333,106.667c-5.896,0-10.667,4.771-10.667,10.667V192
			C68.771,192,64,196.771,64,202.667v224c0,23.531,19.135,42.667,42.667,42.667H192v32c0,5.896,4.771,10.667,10.667,10.667h234.667
			c5.896,0,10.667-4.771,10.667-10.667v-128C448,332.167,414.5,298.667,373.333,298.667z M192,21.333
			c47.052,0,85.333,38.281,85.333,85.333H106.667C106.667,59.615,144.948,21.333,192,21.333z M96,170.667h64
			c5.896,0,10.667-4.771,10.667-10.667s-4.771-10.667-10.667-10.667H96V128h192v21.333h-64c-5.896,0-10.667,4.771-10.667,10.667
			s4.771,10.667,10.667,10.667h64V192H96V170.667z M192,373.333V448h-85.333c-11.76,0-21.333-9.573-21.333-21.333V213.333h213.333
			v85.333h-32C225.5,298.667,192,332.167,192,373.333z M426.667,490.667H213.333V373.333c0-29.406,23.927-53.333,53.333-53.333
			h106.667c29.406,0,53.333,23.927,53.333,53.333V490.667z"/>
	</g>
</g>
<g>
</g>
<g>
</g>
<g>
</g>
<g>
</g>
<g>
</g>
<g>
</g>
<g>
</g>
<g>
</g>
<g>
</g>
<g>
</g>
<g>
</g>
<g>
</g>
<g>
</g>
<g>
</g>
<g>
</g>
</svg>
