<?xml version="1.0" encoding="iso-8859-1"?>
<!-- Generator: Adobe Illustrator 19.0.0, SVG Export Plug-In . SVG Version: 6.00 Build 0)  -->
<svg version="1.1" id="Capa_1" xmlns="http://www.w3.org/2000/svg" xmlns:xlink="http://www.w3.org/1999/xlink" x="0px" y="0px"
	 viewBox="0 0 295.8 295.8" style="enable-background:new 0 0 295.8 295.8;" xml:space="preserve">
<g>
	<g>
		<path d="M291.4,20.301c-2.783-2.805-6.568-4.388-10.52-4.4H15.12c-4.015-0.053-7.881,1.52-10.72,4.36
			c-2.805,2.783-4.388,6.568-4.4,10.52v101.12c0.132,81.683,66.317,147.868,148,148c81.512-0.242,147.536-66.248,147.8-147.76
			V30.821C295.788,26.869,294.205,23.084,291.4,20.301z M195.6,26.461h31.64v37.92l-31.64-0.04V26.461z M153.32,26.461h31.64v37.92
			l-31.64-0.04V26.461z M111,26.461h31.68v37.92L111,64.341V26.461z M68.72,26.461h31.68v37.92l-31.68-0.04V26.461z M10.76,30.941
			c0.001-1.136,0.446-2.227,1.24-3.04c0.799-0.887,1.927-1.407,3.12-1.44h43v37.92l-47.36,0.12V30.941z M77.6,249.741
			c-9.697-5.757-18.657-12.675-26.68-20.6c-24.361-24.347-38.644-56.985-40-91.4c9.463,0.659,18.731,3.009,27.363,6.94
			C78.152,162.835,95.754,209.872,77.6,249.741z M244.92,229.021c-7.954,7.955-16.846,14.913-26.48,20.72
			c-3.931-8.633-6.282-17.901-6.94-27.363c-3.041-43.686,29.896-81.566,73.574-84.632
			C283.645,172.136,269.31,204.728,244.92,229.021z M268.201,129.51c-48.091,12.302-77.103,61.26-64.801,109.351
			c1.391,5.504,3.307,10.862,5.72,16c-18.964,9.53-39.896,14.489-61.12,14.48c-21.232,0.096-42.191-4.781-61.2-14.24
			c4.894-10.379,7.754-21.599,8.425-33.054c2.905-49.532-34.893-92.041-84.425-94.946v-52h274.32l0.08,51.76
			C279.462,127.198,273.77,128.085,268.201,129.51z M285.2,64.381h-47.36v-37.88l43.12,0.16c1.136,0.001,2.227,0.446,3.04,1.24
			c0.742,0.779,1.169,1.805,1.2,2.88V64.381z"/>
	</g>
</g>
<g>
</g>
<g>
</g>
<g>
</g>
<g>
</g>
<g>
</g>
<g>
</g>
<g>
</g>
<g>
</g>
<g>
</g>
<g>
</g>
<g>
</g>
<g>
</g>
<g>
</g>
<g>
</g>
<g>
</g>
</svg>
