<svg id="Capa_1" enable-background="new 0 0 511.997 511.997" height="512" viewBox="0 0 511.997 511.997" width="512" xmlns="http://www.w3.org/2000/svg"><g><path d="m141.288 214.474c4.118-.727 6.868-4.656 6.142-8.776s-4.654-6.871-8.772-6.145-6.868 4.655-6.142 8.775 4.653 6.872 8.772 6.146zm370.235-11.252c-2.946-16.71-19.362-28.192-35.943-25.182l-121.419 21.418c-4.079.719-6.803 4.609-6.083 8.689.72 4.079 4.613 6.809 8.689 6.083l121.419-21.418c8.557-1.566 17.049 4.419 18.565 13.014 1.536 8.712-4.295 17.048-12.998 18.583l-208.306 36.745c-8.47 1.494-16.005 5.292-22.03 10.673l-.144-39.342 74.355-13.116c4.079-.719 6.803-4.609 6.083-8.689-.719-4.079-4.609-6.807-8.689-6.083l-101.392 17.887-67.793-68.957c-7.914-8.049-17.572-13.626-28.105-16.429l8.833-3.797c4.864-2.091 7.826-6.857 7.546-12.144-.28-5.288-3.73-9.715-8.789-11.281l-17.924-5.544-7.409-17.236c-2.09-4.865-6.865-7.829-12.145-7.547-5.288.28-9.715 3.729-11.281 8.789l-5.544 17.924-17.236 7.409c-4.864 2.091-7.827 6.858-7.546 12.146.28 5.288 3.73 9.715 8.789 11.28l17.256 5.337c-11.819 6.338-21.224 16.333-26.917 28.809l-18.723 41.045c-1.719 3.768-.058 8.217 3.711 9.937 3.691 1.684 8.201.106 9.937-3.711l18.723-41.044c4.203-9.212 11.067-16.642 19.686-21.455l1.661 3.863c2.103 4.893 6.898 7.824 12.146 7.546 5.287-.28 9.715-3.73 11.28-8.788l2.599-8.403c10.876 1.041 20.925 5.846 28.757 13.811l60.563 61.603-172.554 30.438 6.176-13.539c1.719-3.769.058-8.217-3.711-9.936s-8.217-.058-9.937 3.711l-11.104 23.041c-5.125.904-9.565 4.004-12.181 8.504-2.618 4.503-3.114 9.9-1.361 14.807l25.827 72.279c19.29 54.142 74.804 85.519 130.233 75.741 56.229-9.919 96.803-58.583 96.483-115.714 0 0 0-.001 0-.002v-.009c0-.002 0-.004 0-.006v-.027c-2.08-17.967 5.424-35.649 24.478-39.006l208.306-36.745c16.845-2.974 28.134-19.106 25.163-35.962zm-399.178-75.836c-3.369 1.448-5.922 4.287-7.006 7.79l-1.597 5.162c-.01.033-.021.066-.031.1l-2.252 7.282-5.185-12.062c-1.448-3.369-4.287-5.922-7.79-7.006l-12.543-3.88 12.062-5.185c3.369-1.448 5.923-4.288 7.006-7.79l3.88-12.543 5.185 12.062c1.448 3.369 4.287 5.922 7.79 7.006l12.543 3.88zm125.938 107.745c-.999 7.353.251 72.719.292 79.915.287 49.805-35.078 92.228-84.089 100.874-48.373 8.534-96.574-18.615-113.502-66.017l-25.826-72.278c-.547-1.752.222-3.103 2.022-3.492zm-144.368-27.685c4.118-.727 6.868-4.656 6.142-8.776s-4.653-6.871-8.772-6.144c-4.118.726-6.868 4.655-6.142 8.775s4.654 6.871 8.772 6.145z"/></g></svg>