<svg id="Capa_1" enable-background="new 0 0 511.992 511.992" height="512" viewBox="0 0 511.992 511.992" width="512" xmlns="http://www.w3.org/2000/svg"><g><path d="m240.996 299.992h-7.5v-127.5c0-4.143-3.358-7.5-7.5-7.5h-7.5v-104.992c0-33.084-26.916-60-60-60s-60 26.916-60 60v104.992h-7.5c-4.142 0-7.5 3.357-7.5 7.5v127.5h-7.5c-4.142 0-7.5 3.357-7.5 7.5v197c0 4.143 3.358 7.5 7.5 7.5h165c4.142 0 7.5-3.357 7.5-7.5v-197c0-4.142-3.358-7.5-7.5-7.5zm-82.5-284.992c24.813 0 45 20.187 45 45v74.992h-90v-74.992c0-24.813 20.187-45 45-45zm-60 164.992h7.5c4.142 0 7.5-3.357 7.5-7.5v-22.5h90v15h-67.5c-4.142 0-7.5 3.357-7.5 7.5s3.358 7.5 7.5 7.5h82.5v120h-120zm135 317h-150v-182h150z"/><path d="m405.996 89.992h-105c-20.678 0-37.5 16.822-37.5 37.5v377c0 4.143 3.358 7.5 7.5 7.5h165c4.142 0 7.5-3.357 7.5-7.5v-377c0-20.678-16.822-37.5-37.5-37.5zm-105 15h105c12.407 0 22.5 10.094 22.5 22.5v339.5h-150v-339.5c0-12.406 10.093-22.5 22.5-22.5zm-22.5 392v-15h150v15z"/></g></svg>