<svg height="512" viewBox="0 0 128 128" width="512" xmlns="http://www.w3.org/2000/svg"><g><path d="m120.639 30.931-1.433-1.431a1.753 1.753 0 0 0 -1.513-.491c-4.974.791-9.582-.896-13.693-5.009s-5.8-8.72-5.006-13.7a1.749 1.749 0 0 0 -.494-1.506l-1.431-1.433a8.916 8.916 0 0 0 -13.128.568l-75.566 89.912a15.457 15.457 0 0 0 21.784 21.784l89.912-75.566a8.914 8.914 0 0 0 .568-13.128zm-2.82 10.448-89.912 75.566a11.961 11.961 0 0 1 -16.852-16.852l75.566-89.912a5.351 5.351 0 0 1 3.91-1.926c.082 0 .163-.005.244-.005a5.351 5.351 0 0 1 3.819 1.586l.822.821c-.456 4.194.367 10.077 6.108 15.819s11.624 6.566 15.818 6.108l.822.821a5.414 5.414 0 0 1 -.345 7.974z"/><path d="m61.7 71.353-10.417 8.754a1.75 1.75 0 0 0 2.252 2.68l10.415-8.755a1.75 1.75 0 0 0 -2.25-2.679z"/><path d="m16.832 104.45a4.75 4.75 0 1 0 6.717 0 4.756 4.756 0 0 0 -6.717 0zm4.243 4.243a1.249 1.249 0 1 1 0-1.768 1.253 1.253 0 0 1 0 1.768z"/><path d="m94.521 33.479a7.738 7.738 0 0 0 -9.595-1.079 8.894 8.894 0 0 0 -12.866.8l-46.06 54.8a1.749 1.749 0 0 0 .1 2.363l11.53 11.53a1.749 1.749 0 0 0 2.37.107l54.8-46.06a8.889 8.889 0 0 0 .8-12.867 7.759 7.759 0 0 0 -1.079-9.594zm-2.475 2.475a4.254 4.254 0 0 1 .014 5.994l-.018.015-.014.016a4.248 4.248 0 0 1 -6-6.014l.01-.008.009-.011a4.247 4.247 0 0 1 6 .008zm.5 17.306-53.573 45.028-9.261-9.261 45.029-53.572a5.4 5.4 0 0 1 7.718-.577 7.742 7.742 0 0 0 10.662 10.662 5.4 5.4 0 0 1 -.577 7.72z"/></g></svg>