<svg id="Capa_1" enable-background="new 0 0 512 512" height="512" viewBox="0 0 512 512" width="512" xmlns="http://www.w3.org/2000/svg"><path d="m505.397 176.278-10.602-10.602c-.01-.01-159.104-159.104-159.104-159.104-4.238-4.238-9.888-6.572-15.91-6.572s-11.672 2.334-15.91 6.572l-53.032 53.033c-4.238 4.238-6.572 9.888-6.572 15.91s2.334 11.672 6.571 15.91l10.607 10.607 17.073 17.073-16.757 27.926c-8.868 14.782-6.549 33.619 5.64 45.81l2.208 2.208-38.578 17.536c-7.395 3.361-14.057 7.978-19.799 13.72l-195.55 195.548c-20.419 20.42-20.936 53.676-1.15 74.133 9.872 10.207 23.122 15.894 37.31 16.012.151.002.3.002.452.002 14.021 0 27.186-5.451 37.112-15.377l196.072-196.072c5.742-5.743 10.358-12.404 13.72-19.798l17.536-38.579 2.394 2.394c7.24 7.24 16.825 10.998 26.513 10.998 6.624 0 13.295-1.757 19.298-5.358l27.926-16.756 17.063 17.063c.019.019 10.616 10.616 10.616 10.616 4.238 4.238 9.888 6.572 15.91 6.572 6.021 0 11.671-2.333 15.909-6.571.001 0 53.034-53.034 53.034-53.034 8.772-8.773 8.772-23.048 0-31.82zm-228.042-79.55 10.607-10.607 137.885 137.886-10.606 10.606zm159.099 116.672-137.886-137.886 10.606-10.606 137.886 137.886zm21.213-21.213-137.886-137.885 21.213-21.213 137.886 137.885zm-196.222-121.976 53.033-53.033c1.404-1.405 3.288-2.178 5.303-2.178 2.016 0 3.898.773 5.303 2.178l5.303 5.303-63.639 63.639-5.303-5.303c-1.405-1.405-2.179-3.289-2.179-5.304 0-2.013.774-3.896 2.179-5.302zm24.097 204.334c-2.614 5.751-6.204 10.932-10.671 15.399l-196.072 196.073c-7.166 7.167-16.731 11.075-26.832 10.982-10.134-.084-19.599-4.147-26.652-11.441-14.13-14.61-13.692-38.43.976-53.098l195.549-195.548c4.466-4.467 9.646-8.057 15.398-10.671l43.699-19.863 24.469 24.469zm71.679-37.2c-8.87 5.322-20.174 3.93-27.486-3.384l-51.728-51.727c-7.313-7.314-8.705-18.617-3.385-27.486l14.827-24.711 92.482 92.481zm137.569-39.854-53.033 53.033c-1.404 1.405-3.288 2.178-5.303 2.178-2.016 0-3.898-.773-5.303-2.178l-5.304-5.304 63.639-63.639 5.303 5.303c2.925 2.925 2.925 7.682.001 10.607z"/><path d="m222.129 267.348c-.046 0-.094 0-.141 0-5.961.037-11.578 2.391-15.817 6.63l-74.246 74.246c-2.929 2.929-2.929 7.678 0 10.606 2.93 2.929 7.678 2.929 10.607 0l74.246-74.246c1.43-1.43 3.313-2.225 5.303-2.237 1.994 0 3.827.76 5.21 2.144 1.412 1.412 2.19 3.295 2.19 5.303s-.778 3.891-2.19 5.303l-169.705 169.706c-2.926 2.925-7.683 2.924-10.606 0-1.395-1.395-2.156-3.245-2.144-5.211.012-1.989.806-3.872 2.236-5.302l74.246-74.246c2.929-2.929 2.929-7.678 0-10.606-2.93-2.929-7.678-2.929-10.607 0l-74.245 74.246c-4.239 4.239-6.594 9.856-6.63 15.818-.036 6.007 2.285 11.657 6.536 15.909 4.387 4.387 10.147 6.58 15.91 6.58 5.761-.001 11.523-2.194 15.91-6.58l169.705-169.706c4.246-4.245 6.584-9.896 6.584-15.91s-2.338-11.665-6.583-15.91c-4.219-4.219-9.813-6.537-15.769-6.537z"/></svg>