<svg height="512" viewBox="0 0 128 128" width="512" xmlns="http://www.w3.org/2000/svg"><path d="m100.5 33.373-4.825-4.4v-17.473h5a5.75 5.75 0 0 0 0-11.5h-21.049a40.886 40.886 0 0 0 -30.775 13.969 1.749 1.749 0 0 0 .164 2.47l6.022 5.267a1.753 1.753 0 0 0 1.152.433h.117a1.75 1.75 0 0 0 1.2-.594 29.379 29.379 0 0 1 21.172-10.017v17.442l-4.825 4.4a52.61 52.61 0 0 0 -17.112 38.782v27.226a10.324 10.324 0 0 0 -5.049-1.551c-3.546-11.3-14.18-14.438-14.648-14.571a1.75 1.75 0 0 0 -2.123 2.281c.883 2.428-.588 6.876-4.041 12.282h-2.436a10.416 10.416 0 0 0 -10.4 10.405 10.257 10.257 0 0 0 .267 2.336 10.391 10.391 0 0 0 -5.453 16.82 1.75 1.75 0 0 0 1.332.62h96.676a6.758 6.758 0 0 0 6.75-6.75v-49.1a52.61 52.61 0 0 0 -17.116-38.777zm-8.325-5.559h-10v-16.314h10zm-36.116-9.864-3.392-2.967a37.393 37.393 0 0 1 26.959-11.483h21.047a2.25 2.25 0 0 1 0 4.5h-21.047a32.885 32.885 0 0 0 -23.567 9.95zm-42.175 102.707a6.928 6.928 0 0 1 6.811-6.9 1.75 1.75 0 0 0 1.549-2.518 6.82 6.82 0 0 1 -.7-3.017 6.912 6.912 0 0 1 6.9-6.905h3.386a1.751 1.751 0 0 0 1.459-.783c3.4-5.125 5.192-9.422 5.371-12.831a18.994 18.994 0 0 1 10.008 12.291 1.75 1.75 0 0 0 1.7 1.325h.921a6.913 6.913 0 0 1 6.9 6.905 6.783 6.783 0 0 1 -.366 2.179h-18.723a1.75 1.75 0 0 0 0 3.5h19.678a6.884 6.884 0 0 1 4.365 10.6h-48.086a6.9 6.9 0 0 1 -1.173-3.846zm100.232.591a3.254 3.254 0 0 1 -3.25 3.25h-43.8a10.319 10.319 0 0 0 .278-6.936 1.736 1.736 0 0 0 1.145.436h37.375a1.75 1.75 0 0 0 1.75-1.75v-44.1a1.75 1.75 0 0 0 -1.75-1.75h-37.373a1.749 1.749 0 0 0 -1.75 1.75v43.9a10.405 10.405 0 0 0 -5.431-5.042 10.341 10.341 0 0 0 -1.069-8.062v-30.8a49.1 49.1 0 0 1 15.971-36.185l4.894-4.466h12.144l4.894 4.466a49.1 49.1 0 0 1 15.972 36.193zm-43.875-6.748v-40.6h33.875v40.6z"/></svg>