<svg id="Capa_1" enable-background="new 0 0 512 512" height="512" viewBox="0 0 512 512" width="512" xmlns="http://www.w3.org/2000/svg"><g><g><path d="m512 221.352c0-18.944-13.466-34.8-31.328-38.502 1.16-3.086 1.81-6.411 1.842-9.876l.002-1.044c0-19.281-15.711-34.967-35.021-34.967h-17.226c2.162-4.539 3.372-9.614 3.372-14.966 0-19.28-15.711-34.966-35.021-34.966h-172.152c-3.052-1.669-5.852-3.767-8.344-6.254-8.444-8.425-12.114-20.72-9.818-32.888.613-3.246-.417-6.586-2.752-8.923s-5.667-3.369-8.921-2.76c-11.268 2.117-21.898 7.699-29.935 15.718-9.563 9.541-15.284 21.935-16.431 35.106h-38.887c-19.311 0-35.021 15.686-35.021 34.966 0 5.352 1.21 10.427 3.372 14.966h-17.227c-19.31 0-35.021 15.686-35.021 34.967l.001 1.012c.032 3.483.686 6.825 1.853 9.923-17.18 3.646-29.337 18.976-29.337 38.488 0 19.944 12.705 35.513 30.489 38.706v139.677c0 42.033 34.196 76.23 76.23 76.23h296.56c42.033 0 76.23-34.197 76.23-76.23v-139.67c18.436-3.243 32.491-19.362 32.491-38.713zm-464.518-49.422c0-8.253 6.738-14.967 15.021-14.967h223.092c5.522 0 10-4.478 10-10 0-5.523-4.478-10-10-10h-174.215c-8.283 0-15.021-6.714-15.021-14.966s6.738-14.966 15.021-14.966h48.944c2.838 0 5.541-1.205 7.438-3.316 1.896-2.11 2.807-4.927 2.505-7.748-1.189-11.11 2.658-22.003 10.558-29.885 2.107-2.102 4.494-3.948 7.074-5.493 1.245 12.928 6.83 25.099 16.098 34.347 4.62 4.609 9.934 8.356 15.796 11.133 1.339.634 2.801.963 4.282.963h174.544c8.283 0 15.021 6.714 15.021 14.966s-6.738 14.966-15.021 14.966h-22.54c-5.522 0-10 4.477-10 10 0 5.522 4.478 10 10 10h71.415c8.283 0 15.021 6.714 15.021 14.967l-.001.826c-.047 5.115-4.37 9.276-9.637 9.276h-395.757c-5.267 0-9.59-4.161-9.638-9.308zm412.028 227.804c0 31.006-25.225 56.23-56.23 56.23h-296.56c-31.005 0-56.23-25.225-56.23-56.23v-139.064h409.02zm13.173-159.064h-435.368c-11.368 0-17.315-9.719-17.315-19.318 0-9.601 5.947-19.319 17.315-19.319h435.367c10.651 0 19.317 8.667 19.317 19.319.001 10.652-8.665 19.318-19.316 19.318z"/><path d="m126.675 372.55c7.476 29.919 34.431 50.815 65.551 50.815 26.471 0 48.546-10.229 62.773-28.584 14.228 18.355 36.303 28.584 62.773 28.584 31.119 0 58.074-20.896 65.549-50.813l5.087-20.346c1.888-7.497-1.493-15.4-8.222-19.217-.009-.004-.017-.009-.025-.014-6.747-3.803-15.27-2.634-20.696 2.825-1.491 1.492-3.639 2.383-5.744 2.383-3.676 0-7.125-2.34-8.198-5.555-3.744-11.243-15.136-45.456-54.216-45.456-13.627 0-26.52 5.172-36.308 14.238-9.79-9.068-22.681-14.238-36.309-14.238-39.082 0-50.472 34.214-54.212 45.449-1.11 3.326-4.212 5.561-7.718 5.561-2.264 0-4.826-.98-6.248-2.402-5.46-5.431-13.96-6.583-20.7-2.792-6.726 3.815-10.107 11.716-8.228 19.201zm30.086-14.366c12.124 0 22.85-7.728 26.691-19.237 7.414-22.271 17.952-31.773 35.238-31.773 11.246 0 21.704 5.646 27.975 15.102 1.853 2.794 4.982 4.474 8.334 4.474 3.353 0 6.482-1.68 8.335-4.475 6.268-9.455 16.726-15.1 27.973-15.1 17.285 0 27.824 9.503 35.243 31.783 3.781 11.321 14.954 19.228 27.171 19.228 4.697 0 9.333-1.21 13.436-3.438l-3.239 12.956c-5.246 20.998-24.222 35.663-46.146 35.663-25.232 0-44.292-11.373-53.668-32.023-1.622-3.571-5.183-5.865-9.105-5.865-3.923 0-7.483 2.294-9.105 5.865-9.376 20.65-28.437 32.023-53.668 32.023-21.924 0-40.9-14.665-46.148-35.665l-3.258-13.03c4.225 2.253 9.087 3.512 13.941 3.512z"/><path d="m325.47 155.279c3.477 2.32 8.147 2.195 11.504-.286 3.348-2.475 4.831-6.952 3.61-10.933-1.222-3.986-4.863-6.854-9.033-7.081-4.318-.235-8.351 2.437-9.882 6.463-1.633 4.297-.008 9.28 3.801 11.837z"/></g></g></svg>