<?xml version="1.0"?>
<svg xmlns="http://www.w3.org/2000/svg" viewBox="0 0 512 512" width="512" height="512"><g id="Outline"><path d="M462.708,348.791a155.936,155.936,0,0,0,11.647-17.04l-13.779-8.133a139.8,139.8,0,0,1-17.666,23.757,138.139,138.139,0,0,1-10.961,10.617A64,64,0,0,0,307.58,338.841a44.009,44.009,0,1,0,18.232,69.289A63.99,63.99,0,0,0,428.5,380.845a154.041,154.041,0,0,0,22.9-19.179,39.994,39.994,0,0,1-7.077,78.1,8,8,0,0,0-6.334,11.469C444.379,464.312,434.5,480,420,480H272a20.332,20.332,0,0,1-20-20,19.779,19.779,0,0,1,1.925-8.564A8,8,0,0,0,246.7,440H72a40.006,40.006,0,0,1-11.4-78.351A154.64,154.64,0,0,0,170.92,408H232V392H170.92A138.7,138.7,0,0,1,69.088,347.373c-.073-.08-.149-.158-.226-.234a139.793,139.793,0,0,1-15.977-21.106C16.332,266.776,27.924,182.515,80.917,137.246L70.524,125.08c-1.113-1.3-23.657,25.213-25.484,27.767a155.577,155.577,0,0,0-18.361,33.88c-18.38,47.065-14,104.691,12.592,147.713A155.372,155.372,0,0,0,49.3,348.791,56.008,56.008,0,0,0,72,456H236.218a36.588,36.588,0,0,0-.218,4,36,36,0,0,0,36,36H420a36,36,0,0,0,35.47-42.159,56.039,56.039,0,0,0,7.238-105.05ZM368,408a47.845,47.845,0,0,1-37.229-17.71,8,8,0,0,0-6.2-2.946,8.1,8.1,0,0,0-.969.058,8,8,0,0,0-6.266,4.528A28,28,0,1,1,292,352a27.8,27.8,0,0,1,16.169,5.149,8,8,0,0,0,12.517-5.195A48,48,0,1,1,368,408Z"/><path d="M496,144a55.984,55.984,0,0,0-40.8-53.9A64,64,0,0,0,337.658,46.2,56.032,56.032,0,0,0,256.581,88H170.92a157.1,157.1,0,0,0-68.806,16.188c-4.361,2.17-8.671,4.577-12.808,7.149l8.449,13.588c3.712-2.309,7.577-4.466,11.491-6.414A141.225,141.225,0,0,1,170.92,104H341.08a138.779,138.779,0,0,1,118.033,65.963c24.947,40.407,28.2,94.5,9.439,137.967l14.691,6.34c1.61.694,10.2-33.4,10.715-36.524,5.3-32.4,1.974-67.327-11.344-97.411A55.371,55.371,0,0,0,496,144Zm-86.113-39.812A155.166,155.166,0,0,0,341.08,88H272.805A40.068,40.068,0,0,1,312,56a39.635,39.635,0,0,1,23.919,7.937,8,8,0,0,0,12.117-3.193A48,48,0,0,1,437.92,93.992a8,8,0,0,0,6.729,10.285,40.015,40.015,0,0,1,29.778,60.113c-.559-.95-1.123-1.9-1.7-2.833A154.945,154.945,0,0,0,409.887,104.188Z"/><path d="M362.684,67.17,377.336,73.6a16.006,16.006,0,0,1,19.99-8.687l5.348-15.08a32.007,32.007,0,0,0-39.99,17.339Z"/><path d="M129.9,161.522l-7.1-14.335a107.534,107.534,0,0,0-24.148,16.382l10.7,11.9A91.567,91.567,0,0,1,129.9,161.522Z"/><path d="M79.172,186.847c-22.23,35.822-22.21,86.515,0,122.306l13.6-8.435c-1.791,1.111-11.339-27.177-11.873-29.767-5.2-25.219-1.782-53.665,11.873-75.669a91.877,91.877,0,0,1,6.5-9.169L86.806,176.076A108.006,108.006,0,0,0,79.172,186.847Z"/><path d="M336,360h16a16.019,16.019,0,0,1,16-16V328A32.036,32.036,0,0,0,336,360Z"/></g></svg>
