<svg id="Capa_1" enable-background="new 0 0 512 512" height="512" viewBox="0 0 512 512" width="512" xmlns="http://www.w3.org/2000/svg"><g id="XMLID_2183_"><g id="XMLID_372_"><path id="XMLID_925_" d="m154 139c33.34 0 67.091-11.679 67.091-34s-33.751-34-67.091-34-67.091 11.679-67.091 34 33.751 34 67.091 34zm-36.494-41.752c9.446-3.971 22.747-6.248 36.494-6.248s27.048 2.277 36.494 6.248c8.754 3.681 10.597 7.21 10.597 7.752s-1.842 4.071-10.597 7.752c-9.446 3.971-22.747 6.248-36.494 6.248s-27.048-2.277-36.494-6.248c-8.754-3.681-10.597-7.21-10.597-7.752s1.842-4.071 10.597-7.752z"/><path id="XMLID_935_" d="m502 27h-348c-39.91 0-77.588 7.413-106.093 20.874-30.893 14.589-47.907 34.876-47.907 57.126v302c0 22.25 17.014 42.537 47.907 57.126 28.505 13.461 66.183 20.874 106.093 20.874s77.588-7.413 106.093-20.874c26.195-12.371 42.406-28.839 46.732-47.126h195.175c5.523 0 10-4.478 10-10v-370c0-5.522-4.477-10-10-10zm-445.553 38.959c25.89-12.226 60.535-18.959 97.553-18.959s71.663 6.733 97.553 18.959c23.163 10.937 36.447 25.168 36.447 39.041s-13.284 28.104-36.447 39.041c-25.89 12.226-60.535 18.959-97.553 18.959s-71.663-6.733-97.553-18.959c-23.163-10.937-36.447-25.168-36.447-39.041s13.284-28.104 36.447-39.041zm435.553 331.041h-184v-89.335c0-5.522-4.477-10-10-10s-10 4.478-10 10v99.335c0 13.873-13.284 28.103-36.447 39.041-25.89 12.226-60.535 18.959-97.553 18.959-20.322 0-39.918-2.042-57.754-5.895v-18.092c0-5.522-4.477-10-10-10s-10 4.478-10 10v12.762c-7.03-2.263-13.667-4.839-19.799-7.735-23.163-10.937-36.447-25.167-36.447-39.04v-262.759c7.393 6.588 16.737 12.611 27.907 17.885 8.661 4.09 18.179 7.613 28.339 10.548v13.34c0 5.522 4.477 10 10 10s10-4.478 10-10v-8.494c18.093 3.592 37.638 5.48 57.754 5.48 39.91 0 77.588-7.413 106.093-20.874 11.169-5.274 20.514-11.297 27.907-17.885v73.424c0 5.523 4.477 10 10 10s10-4.477 10-10v-112.665c0-22.25-17.014-42.537-47.907-57.126-.635-.3-1.298-.58-1.942-.874h233.849z"/><path id="XMLID_937_" d="m86.246 293.014c-5.523 0-10 4.478-10 10v21c0 5.522 4.477 10 10 10s10-4.478 10-10v-21c0-5.523-4.477-10-10-10z"/><path id="XMLID_938_" d="m86.246 362.014c-5.523 0-10 4.478-10 10v21c0 5.522 4.477 10 10 10s10-4.478 10-10v-21c0-5.523-4.477-10-10-10z"/><path id="XMLID_939_" d="m86.246 224.014c-5.523 0-10 4.477-10 10v21c0 5.522 4.477 10 10 10s10-4.478 10-10v-21c0-5.523-4.477-10-10-10z"/><path id="XMLID_940_" d="m298 252.67c-2.64 0-5.21 1.06-7.07 2.93-1.86 1.86-2.93 4.43-2.93 7.061 0 2.64 1.07 5.21 2.93 7.069 1.86 1.87 4.44 2.94 7.07 2.94s5.21-1.07 7.07-2.94c1.86-1.859 2.93-4.43 2.93-7.069 0-2.631-1.07-5.2-2.93-7.061-1.86-1.87-4.43-2.93-7.07-2.93z"/></g></g></svg>