<svg id="Capa_1" enable-background="new 0 0 512 512" height="512" viewBox="0 0 512 512" width="512" xmlns="http://www.w3.org/2000/svg"><g><g><path d="m241.644 147.771c-2.777-3.073-7.521-3.311-10.593-.534l-205.72 185.98c-.051.046-.235.222-.277.265l-22.857 22.857c-2.929 2.93-2.929 7.678 0 10.607l142.857 142.857c1.465 1.464 3.384 2.196 5.304 2.196 1.919 0 3.839-.732 5.303-2.196l22.858-22.856c.047-.047.223-.232.265-.278l53.45-59.13c2.778-3.072 2.539-7.815-.534-10.593-3.069-2.777-7.813-2.539-10.593.534l-22.618 25.021v-245.606l42.621-38.532c3.073-2.777 3.312-7.52.534-10.592zm-91.286 346.123-132.251-132.251 12.251-12.251 132.252 132.252zm33.131-34.798-10.543 11.663-131.705-131.704 142.247-128.599v248.64z"/><path d="m509.804 40.769-38.571-38.573c-2.638-2.636-6.81-2.935-9.794-.703l-71.938 53.779-62.259 6.917v.005c-1.514.167-2.991.787-4.202 1.882l-65.971 59.641c-3.073 2.777-3.312 7.521-.534 10.593 2.778 3.073 7.521 3.312 10.593.534l27.478-24.841v226.184l-49.96 55.264c-2.778 3.072-2.539 7.815.534 10.593 1.435 1.298 3.233 1.937 5.027 1.937 2.046 0 4.085-.833 5.565-2.471l192.15-212.551c1.095-1.211 1.715-2.687 1.883-4.201h.005l6.917-62.259 53.778-71.938c2.235-2.984 1.935-7.156-.701-9.792zm-73.177 126.82-92.215-92.215 45.189-5.021 52.046 52.046zm-127.02 152.006v-223.153l18.203-16.457 104.205 104.205zm139.073-211.378-44.895-44.895 61.434-45.926 29.387 29.388z"/></g></g></svg>