<svg id="Capa_1" enable-background="new 0 0 511.988 511.988" height="512" viewBox="0 0 511.988 511.988" width="512" xmlns="http://www.w3.org/2000/svg"><g><path d="m435.646 159.965c-70.282-70.016-68.075-68.709-72.968-72.208 11.329-27.656 3.952-54.857-22.02-80.954-12.643-12.705-34.326-6.752-38.838 10.698-.891 3.445-2.127 6.939-3.674 10.384-1.696 3.779-.008 8.217 3.771 9.914s8.217.008 9.914-3.77c1.892-4.214 3.41-8.512 4.512-12.773 1.596-6.173 9.226-8.351 13.684-3.872 21.32 21.423 27.552 42.487 18.956 64.203-23.275-5.296-44.573 12.112-45.284 34.95-19.611.633-35.319 16.388-35.95 35.95-17.175.534-31.435 12.748-35.014 28.929-19.55-7.676-24.606-33.463-9.733-48.337 63.789-63.892 62.4-62.161 67.757-68.073 2.781-3.07 2.548-7.813-.522-10.594-3.071-2.783-7.813-2.547-10.594.521-4.91 5.419-3.173 3.369-67.248 67.539-24.013 24.013-13.32 66.106 20.258 74.626 1.468 7.04 4.964 13.777 10.477 19.29l40.032 40.032-48.457 48.457c-23.881 23.879-50.575 12.338-78.12 39.882-5.355 5.355-76.43 76.431-80.243 80.244-15.545 15.545-15.545 40.84 0 56.385l18.94 18.941c15.544 15.545 40.839 15.546 56.385 0l13.753-13.753c2.929-2.929 2.929-7.678 0-10.606-2.929-2.929-7.678-2.929-10.607 0l-13.752 13.752c-9.697 9.696-25.475 9.696-35.172 0l-18.94-18.94c-9.697-9.697-9.697-25.475 0-35.172l.315-.315 10.387 10.388c11.348 11.347 29.714 11.349 41.062 0l67.259-67.259c5.484-5.483 8.504-12.775 8.504-20.531 0-13.325-8.958-20.879-9.184-21.21 3.87-1.525 22.782-3.961 40.019-21.198l162.32-162.32 17.408 17.408c9.697 9.697 9.697 25.475 0 35.172l-244.507 244.505c-2.929 2.929-2.929 7.678 0 10.607s7.678 2.929 10.606 0l244.508-244.507c15.545-15.546 15.545-40.84 0-56.385zm-240.28 207.851-67.259 67.259c-5.485 5.485-14.363 5.486-19.849 0l-10.388-10.387 69.322-69.322c6.141-6.14 13.588-10.872 21.725-13.847l6.449 6.45c5.485 5.483 5.486 14.362 0 19.847zm173.31-196.91-21.41-21.41c-2.929-2.929-7.678-2.929-10.606 0-2.929 2.929-2.929 7.678 0 10.607l21.41 21.41-25.346 25.346-21.41-21.41c-2.929-2.929-7.678-2.929-10.606 0-2.929 2.929-2.929 7.678 0 10.606l21.41 21.41-28.349 28.349-40.032-40.032c-8.571-8.571-9.06-22.556-1.09-31.174 4.585-4.957 11.073-7.532 17.795-7.087 7.015.467 12.819-5.319 12.34-12.307-.922-13.425 10.218-24.565 23.643-23.643 7.022.474 12.777-5.356 12.307-12.34-.452-6.725 2.131-13.211 7.087-17.794 8.618-7.971 22.603-7.482 31.174 1.089l40.032 40.032z"/></g></svg>