<svg xmlns="http://www.w3.org/2000/svg" width="39.308" height="52.907" viewBox="0 0 39.308 52.907">
  <g id="blanket" transform="translate(-8.969 -1)">
    <circle id="Ellipse_3" cx="0.853" cy="0.853" r="0.853" transform="translate(25.209 12.093)"/>
    <circle id="Ellipse_4" cx="0.853" cy="0.853" r="0.853" transform="translate(30.329 12.093)"/>
    <path id="Path_175" d="M33.136,17.733a1.908,1.908,0,0,1-3.413,0l-.09-.18-1.527.764.09.18a3.615,3.615,0,0,0,6.467,0l.09-.18-1.527-.764Z" transform="translate(-2.807 -2.427)"/>
    <path id="Path_176" d="M47.7,35.37A25.288,25.288,0,0,0,41.49,19.578a9.519,9.519,0,0,0-2-2.948l-1.107-1.107a3.333,3.333,0,0,0-.212-3.765l.311-.937A7.461,7.461,0,0,0,31.4,1H22.269A4.024,4.024,0,0,0,19.4,2.189a3.453,3.453,0,0,0-1.019,2.458A3.491,3.491,0,0,0,18.749,6.2l.14.28a3.572,3.572,0,0,0-.624,6.275l.246.164a3.4,3.4,0,0,0-.129.88,3.368,3.368,0,0,0,.484,1.723L17.759,16.63a9.519,9.519,0,0,0-2,2.948A25.29,25.29,0,0,0,9.548,35.37L8.969,53.907H48.277Zm-1.707.054.177,5.646a3.4,3.4,0,0,1-.259-6.725C45.938,34.7,45.979,35.062,45.991,35.424ZM41.423,29.16a1.706,1.706,0,0,1-2.429,1.545l.956-1.1a9.5,9.5,0,0,0,1.069-1.52,1.687,1.687,0,0,1,.4,1.078Zm-.853-5.8a7.822,7.822,0,0,1-1.91,5.12L33.92,33.954a24.709,24.709,0,0,0-2.441,3.372A7.711,7.711,0,0,0,29.9,34.4a5.967,5.967,0,0,1,1.37-.669l1.621-.541,0-1.6A9.394,9.394,0,0,1,33.9,27.34a9.016,9.016,0,0,1,4.258-4.134l.211-.1-.722-1.547-.209.1a10.621,10.621,0,0,0-1.284.719,6.792,6.792,0,0,1-2.205-3.465,6.821,6.821,0,0,0,1-1.7h.5a3.368,3.368,0,0,0,1.723-.484l1.107,1.107a7.768,7.768,0,0,1,2.29,5.529ZM32,40.78l-.012-.1,1.521-.974a1.958,1.958,0,0,1,2.807.777l.313.622h1.379a1.707,1.707,0,1,1,0,3.413H33.9A13.693,13.693,0,0,0,32,40.78ZM25.067,27.032a5.594,5.594,0,0,0,7.1.005A11.012,11.012,0,0,0,31.18,31.6v.359l-.453.152a7.655,7.655,0,0,0-2.116,1.1,7.594,7.594,0,0,0-2.094-1.1l-.453-.151V31.6a11.048,11.048,0,0,0-1-4.567Zm1.848-4.574v-1.2a6.6,6.6,0,0,0,3.413,0v1.2a3.386,3.386,0,0,0,1.332,2.7,3.917,3.917,0,0,1-6.078,0A3.384,3.384,0,0,0,26.916,22.458Zm6.909,1.949-.846-.422a1.7,1.7,0,0,1-.943-1.527v-1.9q.28-.163.543-.35a8.479,8.479,0,0,0,2.2,3.226,10.726,10.726,0,0,0-.956.974Zm-.082-9.754a5.12,5.12,0,0,1-10.24,0V10.79A2.548,2.548,0,0,1,24.917,8.5l.558-.279a2.636,2.636,0,0,0,2.115,1.47l5.385.538a.849.849,0,0,1,.767.848Zm-9.076,5.553c.175.125.356.241.543.35v1.9a1.7,1.7,0,0,1-.943,1.527l-.841.421a10.863,10.863,0,0,0-.957-.975A8.476,8.476,0,0,0,24.666,20.206Zm10.783-5.553v-2.56a1.707,1.707,0,1,1,0,3.413H35.39A6.867,6.867,0,0,0,35.449,14.653ZM19.213,11.337a1.864,1.864,0,0,1,.445-3.32l1.635-.545L20.276,5.44a1.786,1.786,0,0,1-.187-.793,1.762,1.762,0,0,1,.518-1.253,2.37,2.37,0,0,1,1.662-.688H31.4a5.752,5.752,0,0,1,5.458,7.574l-.121.363a3.394,3.394,0,0,0-1.289-.257h-.1a2.542,2.542,0,0,0-2.2-1.856L27.76,7.992a.938.938,0,0,1,.094-1.872h.768V4.413h-.768a2.65,2.65,0,0,0-2.563,1.992l-1.137.568a4.236,4.236,0,0,0-2.33,3.413H21.8a3.4,3.4,0,0,0-2.447,1.041Zm.876,2.464A1.708,1.708,0,0,1,21.8,12.093v2.56a6.866,6.866,0,0,0,.059.853H21.8A1.708,1.708,0,0,1,20.089,13.8Zm-1.123,4.036,1.107-1.107a3.368,3.368,0,0,0,1.723.484h.5a6.806,6.806,0,0,0,1,1.7,6.789,6.789,0,0,1-2.205,3.465,10.523,10.523,0,0,0-1.283-.717l-.211-.1-.722,1.547.212.1a9.066,9.066,0,0,1,4.29,4.2,9.312,9.312,0,0,1,.98,4.186l0,1.6,1.621.54a6,6,0,0,1,4.038,4.926l.348,2.783.137.181a12.023,12.023,0,0,1,2.389,7.168V52.2H30.183l-1.238-6.6a24.756,24.756,0,0,0-5.621-11.646l-4.739-5.467a7.822,7.822,0,0,1,.381-10.651Zm8.3,28.079v.006a2.525,2.525,0,0,1-1.207.306,2.553,2.553,0,0,1-.253-5.094A22.979,22.979,0,0,1,27.269,45.916ZM16.226,28.083A9.526,9.526,0,0,0,17.3,29.6l.956,1.1a1.694,1.694,0,0,1-2.026-2.623Zm-4.891,6.262a3.4,3.4,0,0,1-.258,6.725l.177-5.646C11.264,35.062,11.306,34.7,11.334,34.344ZM11.023,42.8a5.113,5.113,0,0,0,.5-10.151,23.59,23.59,0,0,1,3.447-9.171,9.523,9.523,0,0,0,.512,2.959,3.4,3.4,0,0,0,3.893,5.573l2.656,3.064a23.028,23.028,0,0,1,3.017,4.462,4.258,4.258,0,1,0,2.54,8.107l.855,4.559H22.572a5.114,5.114,0,0,0-10.087,0H10.729Zm9.8,9.4H14.237a3.4,3.4,0,0,1,6.584,0Zm15.6,0a3.4,3.4,0,0,1,6.584,0Zm8.335,0a5.114,5.114,0,0,0-10.087,0H34.6V48.787a13.488,13.488,0,0,0-.256-2.56h3.669a3.413,3.413,0,0,0,0-6.827h-.346a3.665,3.665,0,0,0-4.609-1.381,23.052,23.052,0,0,1,2.156-2.948l2.656-3.064a3.4,3.4,0,0,0,3.893-5.572,9.523,9.523,0,0,0,.512-2.959,23.585,23.585,0,0,1,3.447,9.171,5.113,5.113,0,0,0,.5,10.151l.294,9.4Z"/>
  </g>
</svg>
