<svg xmlns="http://www.w3.org/2000/svg" width="49.496" height="55.091" viewBox="0 0 49.496 55.091">
  <g id="clothes" transform="translate(-25.999 0)">
    <g id="Group_178" transform="translate(25.999 0)">
      <path id="Path_173" d="M75.4,21.718,68.616,6.871a5.555,5.555,0,0,0-2.9-2.99L58.225.115a1.076,1.076,0,0,0-.762-.078,22.062,22.062,0,0,1-13.431,0,1.075,1.075,0,0,0-.762.078L35.782,3.881a5.554,5.554,0,0,0-2.9,2.99L26.1,21.718a1.076,1.076,0,0,0,.408,1.36l8.1,5.064V54.015a1.076,1.076,0,0,0,1.076,1.076H65.811a1.076,1.076,0,0,0,1.076-1.076V28.142l8.1-5.064a1.076,1.076,0,0,0,.408-1.36ZM56.471,2.5a6.088,6.088,0,0,1-11.447,0A22.777,22.777,0,0,0,56.471,2.5ZM66.887,25.6V18.937a1.076,1.076,0,1,0-2.152,0v34H36.76v-34a1.076,1.076,0,1,0-2.152,0V25.6l-6.161-3.851,6.39-13.988A3.451,3.451,0,0,1,36.749,5.8l2.192-1.1a12.147,12.147,0,0,0,6.635,6.99,1.076,1.076,0,1,0,.856-1.974,9.96,9.96,0,0,1-5.55-5.991l1.979-1a8.206,8.206,0,0,0,15.773,0l1.979,1a9.96,9.96,0,0,1-5.551,5.992,1.076,1.076,0,1,0,.856,1.974A12.146,12.146,0,0,0,62.554,4.7l2.192,1.1a3.451,3.451,0,0,1,1.913,1.962l6.39,13.988Z" transform="translate(-25.999 0)"/>
      <path id="Path_174" d="M247.073,98.561h0a1.076,1.076,0,1,0,1.077,1.076A1.076,1.076,0,0,0,247.073,98.561Z" transform="translate(-222.325 -87.956)"/>
    </g>
  </g>
</svg>
