<svg xmlns="http://www.w3.org/2000/svg" width="57.054" height="58.902" viewBox="0 0 57.054 58.902">
  <g id="viburnum-fruit" transform="translate(-8.033)">
    <path id="Path_214" d="M64.581,2.946A1.726,1.726,0,0,0,63.361,0H51.32a12.736,12.736,0,0,0-9.063,3.753l-4.9,4.9V1.726a1.726,1.726,0,1,0-3.451,0V11.09H28.242A20.232,20.232,0,0,0,8.033,31.3a27.6,27.6,0,1,0,55.205,0A20.227,20.227,0,0,0,52.663,13.538a12.81,12.81,0,0,0,4.076-2.751ZM59.787,31.3a24.151,24.151,0,1,1-48.3,0A16.777,16.777,0,0,1,28.242,14.541H43.029A16.777,16.777,0,0,1,59.787,31.3ZM47.677,11.09H39.8l4.9-4.9A9.307,9.307,0,0,1,51.32,3.451H59.2l-4.9,4.9a9.307,9.307,0,0,1-6.623,2.743Z"/>
  </g>
</svg>
