<svg xmlns="http://www.w3.org/2000/svg" width="58" height="58" viewBox="0 0 58 58">
  <g id="water" transform="translate(0 0)">
    <path id="Path_210" d="M58,41.1a6.346,6.346,0,0,0-1.873-4.516L46.98,27.441c-.01-.011-.02-.023-.031-.034s-.023-.02-.034-.031L43.86,24.321a1.133,1.133,0,0,0-1.6,1.6l2.286,2.286-3.783,3.783a1.133,1.133,0,0,0-.33.733,8.237,8.237,0,0,1-7.707,7.707,1.134,1.134,0,0,0-.733.33l-3.783,3.783L17.232,33.568l3.781-3.781a1.133,1.133,0,0,0,.33-.733,8.25,8.25,0,0,1,7.71-7.71,1.133,1.133,0,0,0,.733-.33l3.781-3.781L35,18.666a1.133,1.133,0,0,0,1.6-1.6L34.369,14.83h0L31.629,12.09c-4.2-4.2-8.194-3.959-11.107-3.781-1.729.106-2.735.137-3.324-.451l-1.45-1.45.088-.088a1.133,1.133,0,0,0,0-1.6L12.318,1.2A4.127,4.127,0,0,0,6.5,1.2L1.2,6.5a4.127,4.127,0,0,0,0,5.821l3.516,3.519a1.133,1.133,0,0,0,.8.332h0a1.133,1.133,0,0,0,.8-.332l.088-.088,1.45,1.45c.588.588.557,1.595.451,3.323-.178,2.914-.423,6.9,3.781,11.107l2.739,2.739h0L27.378,46.917c.01.011.019.022.029.032s.022.019.032.029l9.148,9.148A6.383,6.383,0,0,0,47.4,52.656,6.4,6.4,0,0,0,52.656,47.4,6.4,6.4,0,0,0,58,41.1ZM2.8,10.716A1.862,1.862,0,0,1,2.8,8.1L8.1,2.8a1.862,1.862,0,0,1,2.618,0l2.718,2.715L5.519,13.434ZM10.57,20.66c.117-1.916.228-3.725-1.111-5.064l-1.45-1.45L14.147,8.01,15.6,9.46c1.339,1.339,3.148,1.228,5.064,1.111,2.759-.169,5.885-.36,9.367,3.122l1.938,1.938-3.487,3.487a10.52,10.52,0,0,0-9.361,9.361L15.63,31.965l-1.938-1.938C10.21,26.545,10.4,23.419,10.57,20.66ZM52.62,45.1a6.36,6.36,0,0,0-1.745-3.257,1.133,1.133,0,1,0-1.6,1.6,4.121,4.121,0,1,1-5.828,5.828,1.133,1.133,0,0,0-1.6,1.6A6.36,6.36,0,0,0,45.1,52.62a4.118,4.118,0,0,1-6.909,1.9l-8.378-8.378L33.3,42.658A10.506,10.506,0,0,0,42.658,33.3l3.489-3.489,8.378,8.378a4.118,4.118,0,0,1-1.9,6.91Z"/>
    <path id="Path_211" d="M220.424,210.258a1.133,1.133,0,0,0-1.6,0l-7.431,7.431a1.133,1.133,0,1,0,1.6,1.6l7.431-7.431A1.133,1.133,0,0,0,220.424,210.258Z" transform="translate(-187.15 -186.145)"/>
    <path id="Path_212" d="M252.838,244.274l-7.431,7.431a1.133,1.133,0,1,0,1.6,1.6l7.431-7.431a1.133,1.133,0,0,0-1.6-1.6Z" transform="translate(-217.313 -216.308)"/>
    <path id="Path_213" d="M337.68,181.848a1.129,1.129,0,0,0,1.6,0,1.135,1.135,0,1,0-1.605,0Z" transform="translate(-299.128 -159.528)"/>
  </g>
</svg>
