<?xml version="1.0" encoding="iso-8859-1"?>
<!-- Generator: Adobe Illustrator 19.0.0, SVG Export Plug-In . SVG Version: 6.00 Build 0)  -->
<svg version="1.1" id="Capa_1" xmlns="http://www.w3.org/2000/svg" xmlns:xlink="http://www.w3.org/1999/xlink" x="0px" y="0px"
	 viewBox="0 0 157.014 157.014" style="enable-background:new 0 0 157.014 157.014;" xml:space="preserve">
<g>
	<g>
		<path d="M17.067,61.44C7.656,61.44,0,69.096,0,78.507s7.656,17.067,17.067,17.067s17.067-7.656,17.067-17.067
			S26.477,61.44,17.067,61.44z M17.067,88.747c-5.647,0-10.24-4.593-10.24-10.24c0-5.647,4.593-10.24,10.24-10.24
			c5.647,0,10.24,4.593,10.24,10.24C27.307,84.154,22.714,88.747,17.067,88.747z"/>
	</g>
</g>
<g>
	<g>
		<path d="M78.507,61.44c-9.411,0-17.067,7.656-17.067,17.067c0,9.411,7.656,17.067,17.067,17.067s17.067-7.656,17.067-17.067
			C95.574,69.096,87.917,61.44,78.507,61.44z M78.507,88.747c-5.647,0-10.24-4.593-10.24-10.24c0-5.647,4.593-10.24,10.24-10.24
			c5.647,0,10.24,4.593,10.24,10.24C88.747,84.154,84.154,88.747,78.507,88.747z"/>
	</g>
</g>
<g>
	<g>
		<path d="M139.947,61.44c-9.411,0-17.067,7.656-17.067,17.067c0,9.411,7.656,17.067,17.067,17.067s17.067-7.656,17.067-17.067
			C157.014,69.096,149.357,61.44,139.947,61.44z M139.947,88.747c-5.647,0-10.24-4.593-10.24-10.24c0-5.647,4.593-10.24,10.24-10.24
			c5.647,0,10.24,4.593,10.24,10.24C150.187,84.154,145.594,88.747,139.947,88.747z"/>
	</g>
</g>
<g>
</g>
<g>
</g>
<g>
</g>
<g>
</g>
<g>
</g>
<g>
</g>
<g>
</g>
<g>
</g>
<g>
</g>
<g>
</g>
<g>
</g>
<g>
</g>
<g>
</g>
<g>
</g>
<g>
</g>
</svg>
