<?xml version="1.0" encoding="iso-8859-1"?>
<!-- Generator: Adobe Illustrator 19.0.0, SVG Export Plug-In . SVG Version: 6.00 Build 0)  -->
<svg version="1.1" id="Capa_1" xmlns="http://www.w3.org/2000/svg" xmlns:xlink="http://www.w3.org/1999/xlink" x="0px" y="0px"
	 viewBox="0 0 477.867 477.867" style="enable-background:new 0 0 477.867 477.867;" xml:space="preserve">
<g>
	<g>
		<path d="M68.267,170.667C30.564,170.667,0,201.231,0,238.933S30.564,307.2,68.267,307.2s68.267-30.564,68.267-68.267
			S105.969,170.667,68.267,170.667z M68.267,273.067c-18.851,0-34.133-15.282-34.133-34.133c0-18.851,15.282-34.133,34.133-34.133
			s34.133,15.282,34.133,34.133C102.4,257.785,87.118,273.067,68.267,273.067z"/>
	</g>
</g>
<g>
	<g>
		<path d="M238.933,170.667c-37.703,0-68.267,30.564-68.267,68.267s30.564,68.267,68.267,68.267s68.267-30.564,68.267-68.267
			S276.636,170.667,238.933,170.667z M238.933,273.067c-18.851,0-34.133-15.282-34.133-34.133c0-18.851,15.282-34.133,34.133-34.133
			c18.851,0,34.133,15.282,34.133,34.133C273.067,257.785,257.785,273.067,238.933,273.067z"/>
	</g>
</g>
<g>
	<g>
		<path d="M409.6,170.667c-37.703,0-68.267,30.564-68.267,68.267S371.897,307.2,409.6,307.2s68.267-30.564,68.267-68.267
			S447.303,170.667,409.6,170.667z M409.6,273.067c-18.851,0-34.133-15.282-34.133-34.133c0-18.851,15.282-34.133,34.133-34.133
			s34.133,15.282,34.133,34.133C443.733,257.785,428.451,273.067,409.6,273.067z"/>
	</g>
</g>
<g>
</g>
<g>
</g>
<g>
</g>
<g>
</g>
<g>
</g>
<g>
</g>
<g>
</g>
<g>
</g>
<g>
</g>
<g>
</g>
<g>
</g>
<g>
</g>
<g>
</g>
<g>
</g>
<g>
</g>
</svg>
