<svg id="Layer_1" enable-background="new 0 0 511.996 511.996" height="512" viewBox="0 0 511.996 511.996" width="512" xmlns="http://www.w3.org/2000/svg"><g><g><path d="m265.074 272.97c-3.353-2.432-8.042-1.687-10.475 1.668l-56.642 78.098c-2.432 3.353-1.685 8.043 1.668 10.475 1.33.965 2.871 1.429 4.397 1.429 2.321 0 4.61-1.074 6.078-3.097l56.642-78.098c2.432-3.354 1.686-8.044-1.668-10.475z"/><path d="m218.858 412.364c1.331.965 2.871 1.43 4.398 1.43 2.321 0 4.61-1.074 6.077-3.096l99.107-136.607c2.433-3.353 1.687-8.042-1.666-10.475-3.354-2.432-8.042-1.687-10.475 1.667l-99.108 136.607c-2.432 3.352-1.686 8.042 1.667 10.474z"/><path d="m121.983 142.191h-6.03c-4.142 0-7.5 3.358-7.5 7.5s3.358 7.5 7.5 7.5h6.03c4.142 0 7.5-3.358 7.5-7.5s-3.358-7.5-7.5-7.5z"/><path d="m390.013 157.191h6.03c4.143 0 7.5-3.358 7.5-7.5s-3.357-7.5-7.5-7.5h-6.03c-4.143 0-7.5 3.358-7.5 7.5s3.357 7.5 7.5 7.5z"/><path d="m255.984 0c-108.883 0-224.605 25.132-224.605 71.707v59.133c0 15.319 16.442 28.334 48.868 38.727v4.05c0 4.677 2.337 8.813 5.9 11.335l-9.089 86.588c-.433 4.119 2.557 7.809 6.676 8.242.266.028.53.042.792.042 3.79 0 7.045-2.864 7.45-6.718l8.983-85.582h310.079l23.27 221.284c3.393 32.247 1.845 39.079-25.085 52.738-46.351 23.528-99.291 35.811-153.287 35.444-53.803.355-106.813-11.916-153.166-35.445-27.197-13.795-28.612-20.045-25.085-52.717l10.917-101.229c.444-4.118-2.534-7.817-6.652-8.261-4.113-.447-7.817 2.534-8.261 6.652l-10.917 101.227c-4.097 37.942-.424 50.643 33.211 67.703 47.822 24.275 102.323 37.077 157.684 37.076.753 0 1.516-.002 2.27-.007.759.004 1.516.007 2.273.007 55.466 0 109.983-12.802 157.801-37.074 14.66-7.436 25.497-14.756 30.733-26.31 4.664-10.289 4.471-22.479 2.482-41.374l-23.375-222.288c3.563-2.522 5.898-6.658 5.898-11.334v-4.05c32.426-10.392 48.868-23.407 48.868-38.727v-59.132c0-46.575-115.736-71.707-224.633-71.707zm-175.737 125.766v27.988c-24.779-8.608-33.868-17.508-33.868-22.914v-31.92c8.504 7.124 20.559 13.643 36.029 19.447-1.361 2.146-2.161 4.679-2.161 7.399zm320.355-13.907h-125.1c-4.143 0-7.5 3.358-7.5 7.5s3.357 7.5 7.5 7.5h141.247v45.664h-321.502v-45.664h15.108c.01 0 .02.002.03.002.008 0 .016-.002.024-.002h130.172c4.142 0 7.5-3.358 7.5-7.5s-3.358-7.5-7.5-7.5h-129.187c-19.707-5.34-34.193-11.233-44.43-17.082 46.144-19.642 118.424-32.041 189.306-32.041 70.579 0 142.653 12.398 188.765 32.04-10.238 5.849-24.724 11.743-44.433 17.083zm65.015 18.981c0 5.406-9.089 14.306-33.868 22.914v-27.988c0-2.72-.8-5.253-2.161-7.399 15.47-5.804 27.525-12.323 36.029-19.447zm-6.681-46.271c-47.479-22.457-126.14-36.832-202.666-36.832-76.845 0-155.717 14.375-203.209 36.832-4.64-4.686-6.682-9.091-6.682-12.862 0-13.146 21.762-27.43 58.212-38.21 40.333-11.928 94.098-18.497 151.393-18.497 57.307 0 111.082 6.569 151.417 18.497 36.453 10.78 58.216 25.064 58.216 38.21 0 3.771-2.041 8.176-6.681 12.862z"/></g></g></svg>