<svg id="Layer_1_1_" enable-background="new 0 0 64 64" height="512" viewBox="0 0 64 64" width="512" xmlns="http://www.w3.org/2000/svg"><path d="m14 51.343c0 3.915 1.524 7.596 4.293 10.364.187.188.442.293.707.293h26c.265 0 .52-.105.707-.293 2.769-2.768 4.293-6.449 4.293-10.364v-20.343c0-6.052-4.139-13.75-10.077-15.121l-.775-.179c-.935-.215-1.659-.88-1.974-1.735.466-.085.826-.475.826-.965v-9c0-1.103-.897-2-2-2h-8c-1.103 0-2 .897-2 2v9c0 .49.36.88.826.965-.315.855-1.039 1.52-1.974 1.735l-.775.179c-5.938 1.371-10.077 9.069-10.077 15.121zm14-47.343h8v8h-8zm-12 27c0-5.289 3.646-12.046 8.526-13.172l.775-.179c1.842-.426 3.203-1.864 3.582-3.649h6.232c.379 1.785 1.74 3.224 3.583 3.649l.775.179c4.881 1.126 8.527 7.883 8.527 13.172v20.343c0 3.245-1.212 6.302-3.423 8.657h-25.154c-2.211-2.354-3.423-5.412-3.423-8.657z"/><path d="m42 47c2.206 0 4-1.794 4-4v-12c0-2.206-1.794-4-4-4s-4 1.794-4 4v12c0 2.206 1.794 4 4 4zm-2-16c0-1.103.897-2 2-2s2 .897 2 2v12c0 1.103-.897 2-2 2s-2-.897-2-2z"/><path d="m32 57c2.206 0 4-1.794 4-4v-24c0-2.206-1.794-4-4-4h-10c-2.206 0-4 1.794-4 4v24c0 2.206 1.794 4 4 4zm-12-4v-24c0-1.103.897-2 2-2h10c1.103 0 2 .897 2 2v24c0 1.103-.897 2-2 2h-10c-1.103 0-2-.897-2-2z"/><path d="m57 20c-2.206 0-4 1.794-4 4s1.794 4 4 4 4-1.794 4-4-1.794-4-4-4zm0 6c-1.103 0-2-.897-2-2s.897-2 2-2 2 .897 2 2-.897 2-2 2z"/><path d="m4.833 20.753-1.49 1.49 1.414 1.414 1.49-1.49c.524.348 1.116.602 1.753.732v2.101h2v-2.101c.637-.13 1.229-.384 1.753-.732l1.49 1.49 1.414-1.414-1.49-1.49c.348-.524.602-1.116.732-1.753h2.101v-2h-2.101c-.13-.637-.384-1.229-.732-1.753l1.49-1.49-1.414-1.414-1.49 1.49c-.524-.348-1.116-.602-1.753-.732v-2.101h-2v2.101c-.637.13-1.229.384-1.753.732l-1.49-1.49-1.414 1.414 1.49 1.49c-.348.524-.602 1.116-.732 1.753h-2.101v2h2.101c.13.637.384 1.229.732 1.753zm4.167-5.753c1.654 0 3 1.346 3 3s-1.346 3-3 3-3-1.346-3-3 1.346-3 3-3z"/><path d="m44 8v2h2.101c.13.637.384 1.229.732 1.753l-1.49 1.49 1.414 1.414 1.49-1.49c.524.348 1.116.602 1.753.732v2.101h2v-2.101c.637-.13 1.229-.384 1.753-.732l1.49 1.49 1.414-1.414-1.49-1.49c.348-.524.602-1.116.732-1.753h2.101v-2h-2.101c-.13-.637-.384-1.229-.732-1.753l1.49-1.49-1.414-1.414-1.49 1.49c-.524-.348-1.116-.602-1.753-.732v-2.101h-2v2.101c-.637.13-1.229.384-1.753.732l-1.49-1.49-1.414 1.414 1.49 1.49c-.348.524-.602 1.116-.732 1.753zm7-2c1.654 0 3 1.346 3 3s-1.346 3-3 3-3-1.346-3-3 1.346-3 3-3z"/><path d="m9 32c0-1.654-1.346-3-3-3s-3 1.346-3 3 1.346 3 3 3 3-1.346 3-3zm-4 0c0-.551.449-1 1-1s1 .449 1 1-.449 1-1 1-1-.449-1-1z"/><path d="m16 4h2v2h-2z"/><path d="m57 31h2v2h-2z"/><path d="m7 44h2v2h-2z"/><path d="m26.628 45.929c.12.047.246.071.372.071s.252-.024.372-.071c3.419-1.368 5.628-4.632 5.628-8.314v-2.615c0-.347-.18-.668-.474-.851-.295-.182-.664-.198-.973-.044l-.961.481c-.321.159-.705.136-1.002-.063l-.924-.616c-1.012-.673-2.318-.674-3.329 0l-.925.616c-.298.198-.682.221-1.001.063l-.962-.481c-.31-.154-.678-.138-.973.044-.296.183-.476.504-.476.851v2.615c0 3.682 2.209 6.946 5.628 8.314zm-3.628-9.362c.845.25 1.773.119 2.521-.379l.925-.616c.335-.225.771-.225 1.109 0l.924.616c.747.498 1.675.629 2.521.379v1.048c0 2.725-1.557 5.153-4 6.296-2.443-1.143-4-3.571-4-6.296z"/><path d="m26 42h2v-1h1v-2h-1v-1h-2v1h-1v2h1z"/><path d="m22 50h10v2h-10z"/></svg>