<svg id="wipe-sufraces" enable-background="new 0 0 300 300" height="512" viewBox="0 0 300 300" width="512" xmlns="http://www.w3.org/2000/svg"><g><path d="m247.663 119.264-20.455-20.453.674-2.83 22.367-6.617c1.699-.502 2.867-2.064 2.867-3.836s-1.168-3.334-2.867-3.836l-22.367-6.617-4.875-20.473c-.43-1.803-2.039-3.074-3.891-3.074s-3.461 1.271-3.891 3.074l-4.871 20.473-5.31 1.571-31.948-31.944c-5.906-5.908-13.762-9.162-22.113-9.162-8.355 0-16.207 3.254-22.113 9.162l-74.566 74.562c-12.195 12.193-12.195 32.037 0 44.23l3.734 3.734-4.391 15.584c-2.305 12.135-16.402 33-16.543 33.209-1.078 1.588-.879 3.719.48 5.076l44.352 44.352c.773.773 1.797 1.172 2.828 1.172.75 0 1.508-.211 2.172-.643l23.832-15.426c6.12-3.962 11.979-8.337 17.589-13.007l.512.511c5.906 5.908 13.758 9.16 22.113 9.16 8.352 0 16.207-3.252 22.113-9.16l74.566-74.562c12.193-12.195 12.193-32.035.002-44.23zm-32.821-37.174c1.375-.406 2.426-1.516 2.758-2.91l1.516-6.373 1.52 6.373c.332 1.395 1.383 2.504 2.758 2.91l11.621 3.438-11.621 3.438c-1.375.406-2.426 1.516-2.758 2.91l-1.52 6.373-1.516-6.373c-.332-1.395-1.383-2.504-2.758-2.91l-11.621-3.438zm-108.422 161.748-21.113 13.668-39.762-39.762c4.117-6.396 13.852-22.35 15.883-33.1l17.055-60.535c.668-3.508 3.781-5.918 7.406-5.562 1.848.176 3.512 1.066 4.684 2.508 1.129 1.387 1.664 3.117 1.516 4.891l-7.953 34.465c-.398 1.74.398 3.533 1.961 4.398 1.551.865 3.5.594 4.766-.67l57.426-57.424c2.238-2.236 6.117-2.229 8.348 0 1.113 1.115 1.73 2.598 1.73 4.174 0 1.578-.617 3.061-1.73 4.176 0 0 0 .001-.001.001l-42.249 42.251c-1.562 1.562-1.562 4.094 0 5.656s4.094 1.562 5.656 0l53.922-53.924c2.305-2.301 6.047-2.301 8.352 0 1.113 1.115 1.727 2.598 1.727 4.176 0 1.576-.613 3.059-1.727 4.174l-14.094 14.093c-.002.002-.005.004-.008.006l-39.824 39.824c-1.562 1.562-1.562 4.094 0 5.656.781.781 1.805 1.172 2.828 1.172s2.047-.391 2.828-1.172l39.829-39.827c2.352-2.348 6.177-2.347 8.535.003 2.352 2.354 2.352 6.186 0 8.539l-11.484 11.484-30.488 30.486c-1.562 1.562-1.562 4.094 0 5.656s4.094 1.562 5.656 0l2.143-2.143c.002-.002.004-.002.005-.004l28.34-28.34c2.176-2.178 5.977-2.184 8.16.002 1.09 1.088 1.691 2.537 1.691 4.078s-.602 2.99-1.691 4.08l-49.688 49.689c-8.689 8.688-18.322 16.479-28.635 23.157zm135.586-86-74.566 74.562c-4.398 4.396-10.242 6.816-16.457 6.816-6.219 0-12.062-2.42-16.457-6.818l-.099-.099c2.137-1.943 4.243-3.919 6.283-5.96l49.688-49.689c2.602-2.602 4.035-6.059 4.035-9.736 0-3.68-1.434-7.137-4.035-9.734-1.443-1.446-3.197-2.448-5.071-3.091l2.739-2.739c5.473-5.473 5.473-14.379 0-19.854-1.535-1.532-3.351-2.589-5.273-3.262l5.179-5.179c2.625-2.625 4.07-6.117 4.07-9.83 0-3.715-1.445-7.207-4.07-9.834-5.434-5.424-14.246-5.414-19.664.002l-2.805 2.805c-.67-1.874-1.712-3.642-3.21-5.139-5.246-5.252-14.406-5.26-19.66 0l-47.562 47.562 4.875-21.127c.035-.152.059-.305.078-.457.441-3.994-.707-7.91-3.242-11.029-2.535-3.117-6.133-5.045-10.133-5.426-7.719-.727-14.582 4.441-15.945 11.695l-10.177 36.125-.565-.565c-9.074-9.076-9.074-23.842 0-32.918l74.566-74.562c4.395-4.396 10.238-6.818 16.457-6.818 6.215 0 12.059 2.422 16.457 6.818l28.873 28.87-8.33 2.464c-1.699.502-2.867 2.064-2.867 3.836s1.168 3.334 2.867 3.836l22.371 6.617 4.871 20.473c.43 1.803 2.039 3.074 3.891 3.074s3.461-1.271 3.891-3.074l2.025-8.506 16.975 16.973c9.068 9.076 9.068 23.842-.003 32.918z"/><path d="m58.983 49.379c2.211 0 4-1.791 4-4v-8c0-2.209-1.789-4-4-4s-4 1.791-4 4v8c0 2.209 1.789 4 4 4z"/><path d="m58.983 57.379c-2.211 0-4 1.791-4 4v8c0 2.209 1.789 4 4 4s4-1.791 4-4v-8c0-2.209-1.789-4-4-4z"/><path d="m42.983 57.379h8c2.211 0 4-1.791 4-4s-1.789-4-4-4h-8c-2.211 0-4 1.791-4 4s1.789 4 4 4z"/><path d="m66.983 57.379h8c2.211 0 4-1.791 4-4s-1.789-4-4-4h-8c-2.211 0-4 1.791-4 4s1.789 4 4 4z"/><path d="m228.983 229.379c-7.719 0-14 6.281-14 14s6.281 14 14 14 14-6.281 14-14-6.281-14-14-14zm0 20c-3.309 0-6-2.691-6-6s2.691-6 6-6 6 2.691 6 6-2.692 6-6 6z"/><path d="m259.311 203.494c-2.362 0-4.276 1.915-4.276 4.276 0 2.362 1.914 4.277 4.276 4.277s4.276-1.915 4.276-4.277c.001-2.362-1.914-4.276-4.276-4.276z"/></g></svg>