<svg height="512pt" viewBox="-1 0 512 512.002" width="512pt" xmlns="http://www.w3.org/2000/svg"><path d="m489.988281 160.214844c-2.597656-.09375-5.128906.265625-7.515625 1.039062v-32.339844c0-11.882812-9.667968-21.550781-21.550781-21.550781-2.289063 0-4.492187.363281-6.5625 1.027344-.226563-11.6875-9.789063-21.132813-21.53125-21.132813h-.429687c-8.1875 0-15.320313 4.589844-18.96875 11.335938-2.773438-1.304688-5.859376-2.054688-9.121094-2.054688h-.429688c-11.886718 0-21.554687 9.667969-21.554687 21.550782v10.910156c-2.085938-.664062-4.285157-1.019531-6.539063-1.019531h-.535156c-11.726562 0-21.390625 9.535156-21.546875 21.257812-.0625 4.949219-.941406 54.101563.164063 73.773438 1.46875 26.113281 8.023437 46.390625 19.480468 60.277343 1.855469 2.25 2.878906 5.023438 2.878906 7.816407v24.535156h-.152343c-6.898438 0-12.511719 5.613281-12.511719 12.507813v16.042968c-4.464844 1.398438-7.710938 5.570313-7.710938 10.488282v149.816406c0 4.144531 3.359376 7.503906 7.503907 7.503906h119.324219c4.144531 0 7.503906-3.359375 7.503906-7.503906v-145.667969c0-5.648437-3.113282-10.574219-7.710938-13.175781v-17.503906c0-6.675782-5.261718-12.132813-11.855468-12.476563v-19.882813c0-3.714843 1.648437-7.144531 4.523437-9.414062.484375-.382812.984375-.785156 1.5-1.214844.039063-.027344.074219-.058594.109375-.089844 14.703125-12.664062 24.488281-27.324218 29.914062-44.8125 2.839844-9.144531 4.277344-18.71875 4.277344-28.457031v-29.515625c0-11.957031-9.203125-21.652344-20.953125-22.070312zm-15.019531 198.488281h.078125c.066406 0 .125.054687.125.125v138.160156h-104.308594v-138.285156zm-96.394531-15.011719v-13.039062h88.886719v13.039062zm117.355469-131.890625c0 8.226563-1.210938 16.304688-3.601563 24.011719-4.625 14.902344-12.667969 26.925781-25.320313 37.835938-.398437.332031-.792968.648437-1.167968.945312-6.503906 5.128906-10.234375 12.855469-10.234375 21.195312v19.851563h-64.367188v-24.535156c0-6.269531-2.242187-12.441407-6.3125-17.371094-9.378906-11.363281-14.785156-28.714844-16.070312-51.566406-1.078125-19.117188-.207031-67.757813-.140625-72.734375.046875-3.550782 2.980468-6.441406 6.535156-6.441406h.535156c1.746094 0 3.390625.679687 4.625 1.914062 1.234375 1.238281 1.914063 2.878906 1.914063 4.625v42.140625c0 4.144531 3.363281 7.503906 7.507812 7.503906s7.503907-3.359375 7.503907-7.503906v-73.582031c0-3.605469 2.933593-6.542969 6.542968-6.542969h.429688c3.605468 0 6.539062 2.9375 6.539062 6.542969v73.582031c0 4.144531 3.359375 7.503906 7.503906 7.503906 4.144532 0 7.507813-3.359375 7.507813-7.503906v-82.863281c0-3.605469 2.933594-6.539063 6.539063-6.539063h.429687c3.609375 0 6.542969 2.933594 6.542969 6.539063v82.863281c0 4.144531 3.359375 7.503906 7.503906 7.503906s7.507812-3.359375 7.507812-7.503906v-62.757813c0-3.605468 2.933594-6.542968 6.539063-6.542968s6.539063 2.9375 6.539063 6.542968v86.832032c0 1.207031-.679688 2.304687-1.777344 2.863281-7.703125 3.921875-18.519532 10.6875-26.292969 20.621094-2.554687 3.265625-1.980469 7.980469 1.285156 10.535156 1.371094 1.074219 3 1.597656 4.621094 1.597656 2.226563 0 4.433594-.988281 5.914063-2.882812 6.402343-8.179688 16.085937-13.84375 21.285156-16.492188 6.15625-3.136719 9.980468-9.359375 9.980468-16.242187v-33.804688c0-1.839844.730469-3.5625 2.054688-4.839844 1.328125-1.28125 3.070312-1.949218 4.925781-1.882812 3.570313.128906 6.476563 3.296875 6.476563 7.066406v29.515625zm0 0"/><path d="m137.597656 340c11.457032-13.886719 18.011719-34.164062 19.480469-60.277344 1.105469-19.675781.75-39.625.40625-58.917968-.089844-4.953126-.179687-9.90625-.242187-14.859376-.15625-11.71875-9.820313-21.253906-21.550782-21.253906h-.53125c-2.28125 0-4.476562.359375-6.542968 1.019532v-10.910157c0-11.886719-9.667969-21.550781-21.550782-21.550781h-.429687c-3.261719 0-6.347657.75-9.121094 2.054688-3.648437-6.742188-10.78125-11.335938-18.972656-11.335938h-.425781c-11.746094 0-21.308594 9.445312-21.53125 21.132812-2.074219-.664062-4.273438-1.027343-6.5625-1.027343-11.886719 0-21.554688 9.667969-21.554688 21.550781v32.339844c-2.386719-.773438-4.917969-1.132813-7.515625-1.039063-11.75.417969-20.953125 10.113281-20.953125 22.070313v29.515625c0 9.734375 1.441406 19.308593 4.277344 28.457031 5.425781 17.488281 15.210937 32.144531 29.917968 44.8125.035157.03125.074219.0625.113282.09375.515625.425781 1.015625.832031 1.496094 1.210938 2.875 2.265624 4.523437 5.699218 4.523437 9.414062v19.882812c-6.59375.34375-11.855469 5.800782-11.855469 12.476563v17.503906c-4.597656 2.601563-7.710937 7.527344-7.710937 13.175781v33.980469c0 4.144531 3.359375 7.503907 7.503906 7.503907 4.148437 0 7.507813-3.359376 7.507813-7.503907v-33.980469c0-.070312.058593-.125.125-.125h104.183593v81.574219h-104.3125v-12.402343c0-4.144532-3.359375-7.503907-7.503906-7.503907s-7.503906 3.359375-7.503906 7.503907v19.910156c0 4.144531 3.359375 7.503906 7.503906 7.503906h119.320313c4.144531 0 7.507812-3.359375 7.507812-7.503906v-93.105469c0-4.917969-3.25-9.089844-7.710938-10.488281v-16.042969c0-6.898437-5.613281-12.507813-12.511718-12.507813h-.152344v-24.535156c0-2.792968 1.019531-5.570312 2.878906-7.816406zm-5.226562 60.402344h-88.886719v-13.042969h88.886719zm-6.351563-69.957032c-4.070312 4.929688-6.3125 11.101563-6.3125 17.371094v24.535156h-64.371093v-19.851562c0-8.339844-3.730469-16.0625-10.234376-21.199219-.378906-.296875-.769531-.613281-1.167968-.941406-12.648438-10.910156-20.695313-22.9375-25.320313-37.839844-2.390625-7.703125-3.601562-15.78125-3.601562-24.007812v-29.515625c0-3.769532 2.90625-6.941406 6.476562-7.066406 1.851563-.066407 3.597657.601562 4.921875 1.878906 1.328125 1.28125 2.058594 3 2.058594 4.84375v33.800781c0 6.882813 3.824219 13.109375 9.980469 16.242187 5.199219 2.648438 14.878906 8.3125 21.285156 16.496094 1.480469 1.890625 3.6875 2.878906 5.914063 2.878906 1.617187 0 3.25-.519531 4.621093-1.59375 3.265625-2.554687 3.839844-7.273437 1.285157-10.539062-7.773438-9.933594-18.589844-16.695312-26.292969-20.617188-1.097657-.5625-1.777344-1.660156-1.777344-2.867187v-86.828125c0-3.609375 2.933594-6.539062 6.539063-6.539062 3.605468 0 6.539062 2.933593 6.539062 6.539062v62.753906c0 4.148438 3.363281 7.507813 7.507812 7.507813 4.144532 0 7.503907-3.359375 7.503907-7.507813v-82.859375c0-3.605469 2.933593-6.539062 6.542969-6.539062h.429687c3.605469 0 6.539063 2.933593 6.539063 6.539062v82.863281c0 4.144532 3.359374 7.503907 7.507812 7.503907 4.144531 0 7.503906-3.359375 7.503906-7.503907v-73.582031c0-3.609375 2.933594-6.539062 6.539063-6.539062h.429687c3.609375 0 6.542969 2.933593 6.542969 6.539062v73.578125c0 4.148438 3.359375 7.507813 7.503906 7.507813s7.507813-3.359375 7.507813-7.507813v-42.136718c0-3.605469 2.933594-6.539063 6.539062-6.539063h.535156c3.558594 0 6.488282 2.886719 6.535157 6.441406.066406 4.976563.15625 9.953125.242187 14.929688.34375 19.019531.695313 38.6875-.382812 57.804687-1.285156 22.851563-6.695313 40.199219-16.070313 51.566406zm0 0"/><path d="m321.503906 81.867188c-3.238281-.113282-6.394531.417968-9.316406 1.546874v-37.585937c0-12.828125-10.4375-23.269531-23.269531-23.269531-2.90625 0-5.6875.542968-8.253907 1.519531v-.808594c0-12.832031-10.4375-23.269531-23.269531-23.269531h-.480469c-9.148437 0-17.074218 5.308594-20.875 13.003906-3.191406-1.652344-6.8125-2.589844-10.648437-2.589844h-.480469c-12.828125 0-23.265625 10.4375-23.265625 23.265626v13.535156c-2.570312-.976563-5.351562-1.519532-8.257812-1.519532h-.597657c-12.660156 0-23.097656 10.296876-23.261718 22.949219-.074219 5.554688-1.058594 60.675781.179687 82.71875 1.636719 29.101563 8.921875 51.679688 21.652344 67.105469 2.21875 2.6875 3.441406 6.011719 3.441406 9.355469v28.445312h-1.089843c-7.234376 0-13.121094 5.886719-13.121094 13.121094v18.707031c-4.960938 1.238282-8.652344 5.722656-8.652344 11.0625v205.335938c0 4.144531 3.359375 7.507812 7.503906 7.507812h133.890625c4.144531 0 7.503907-3.363281 7.503907-7.507812v-146.507813c0-4.144531-3.359376-7.503906-7.503907-7.503906s-7.503906 3.359375-7.503906 7.503906v139h-118.882813v-194.234375h117.824219c.582031 0 1.058594.476563 1.058594 1.058594v19.335938c0 4.144531 3.359375 7.503906 7.503906 7.503906s7.503907-3.359375 7.503907-7.503906v-19.335938c0-6.183594-3.515626-11.554688-8.652344-14.242188v-20.179687c0-7.238281-5.886719-13.125-13.121094-13.125h-.179688v-23.1875c0-4.453125 1.976563-8.5625 5.421876-11.285156.539062-.421875 1.09375-.875 1.667968-1.347657.035156-.03125.074219-.0625.109375-.09375 16.363281-14.09375 27.253907-30.402343 33.289063-49.855468 3.160156-10.175782 4.757812-20.832032 4.757812-31.660156v-33.125c.003906-12.917969-9.9375-23.394532-22.625-23.84375zm-125.90625 205.875v-16.464844h101.578125v16.464844zm133.523438-148.90625c0 9.320312-1.375 18.476562-4.085938 27.210937-5.242187 16.898437-14.359375 30.527344-28.695312 42.886719-.460938.378906-.90625.738281-1.335938 1.078125-7.074218 5.585937-11.132812 13.992187-11.132812 23.066406v23.191406h-74.0625v-28.449219c0-6.820312-2.441406-13.539062-6.871094-18.910156-10.652344-12.90625-16.789062-32.550781-18.242188-58.390625-1.210937-21.488281-.816406-43.574219-.433593-64.933593.101562-5.582032.199219-11.167969.273437-16.746094.058594-4.484375 3.761719-8.132813 8.253906-8.132813h.597657c4.550781 0 8.253906 3.703125 8.253906 8.257813v47.28125c0 4.144531 3.363281 7.507812 7.507813 7.507812 4.144531 0 7.503906-3.363281 7.503906-7.507812v-82.566406c0-4.550782 3.703125-8.253907 8.257812-8.253907h.480469c4.550781 0 8.257813 3.703125 8.257813 8.253907v82.566406c0 4.144531 3.359374 7.507812 7.503906 7.507812 4.144531 0 7.503906-3.363281 7.503906-7.507812v-92.976563c0-4.554687 3.707031-8.257812 8.257812-8.257812h.480469c4.554688 0 8.257813 3.703125 8.257813 8.257812v92.976563c0 4.144531 3.359375 7.507812 7.503906 7.507812s7.507812-3.363281 7.507812-7.507812v-70.417969c0-4.554687 3.703126-8.257813 8.253907-8.257813 4.554687 0 8.257812 3.703126 8.257812 8.257813v97.429687c0 1.703126-.957031 3.246094-2.5 4.03125-8.558593 4.359376-20.574219 11.871094-29.195312 22.886719-2.558594 3.265625-1.980469 7.980469 1.285156 10.535157 1.371094 1.078124 3 1.597656 4.621094 1.597656 2.226562 0 4.433593-.988282 5.914062-2.882813 7.292969-9.320312 18.285157-15.753906 24.1875-18.757812 6.601563-3.363281 10.699219-10.03125 10.699219-17.410157v-37.929687c0-2.316406.917969-4.484375 2.585938-6.09375 1.667968-1.609375 3.875-2.441406 6.195312-2.367187 4.496094.160156 8.152344 4.128906 8.152344 8.84375zm0 0"/></svg>